<?xml version="1.0"?>
<svg xmlns="http://www.w3.org/2000/svg" xmlns:xlink="http://www.w3.org/1999/xlink" xmlns:svgjs="http://svgjs.com/svgjs" version="1.1" width="35" height="35" x="0" y="0" viewBox="0 0 74 74" style="enable-background:new 0 0 512 512" xml:space="preserve"><g><path xmlns="http://www.w3.org/2000/svg" d="m54.291 37.4a1.022 1.022 0 0 1 -.256-.033 1 1 0 0 1 -.712-1.222c.239-.905.44-1.769.595-2.567.014-.092.042-.216.072-.346a1.032 1.032 0 0 1 1.207-.781.971.971 0 0 1 .758 1.163c-.036.152-.054.227-.067.308-.171.88-.381 1.787-.631 2.733a1 1 0 0 1 -.966.745z" fill="#bac1e3" data-original="#000000" style=""/><path xmlns="http://www.w3.org/2000/svg" d="m30.257 62.347a41.316 41.316 0 0 1 -15.945-3.685 20.154 20.154 0 0 1 -5.554-3.462 17.291 17.291 0 0 1 -4.584-6.158 25.647 25.647 0 0 1 -2.174-10.409c-.02-8.956 4.611-17.7 12.389-23.4 21.592-15.812 56.326-13.782 56.675-13.761a1 1 0 0 1 .627 1.721c-6.669 6.378-10.863 15.061-13.207 21.223-.282.751-.546 1.5-.792 2.269a1 1 0 1 1 -1.9-.61c.255-.8.53-1.582.826-2.367 2.223-5.846 6.07-13.9 12.07-20.316-7.958-.15-35.248.373-53.113 13.455-7.268 5.32-11.594 13.463-11.575 21.78a23.687 23.687 0 0 0 2 9.607 15.317 15.317 0 0 0 4.071 5.46 18.147 18.147 0 0 0 5.013 3.124c8.3 3.5 23.5 7.478 31.961-5.213a1 1 0 0 1 1.664 1.11 21.253 21.253 0 0 1 -18.452 9.632z" fill="#bac1e3" data-original="#000000" style=""/><path xmlns="http://www.w3.org/2000/svg" d="m51.029 46.891a.981.981 0 0 1 -.376-.075 1 1 0 0 1 -.549-1.3l.069-.169c.175-.426.545-1.326.99-2.522a1 1 0 1 1 1.875.7c-.456 1.227-.836 2.149-1.015 2.586l-.067.163a1 1 0 0 1 -.927.617z" fill="#bac1e3" data-original="#000000" style=""/><path xmlns="http://www.w3.org/2000/svg" d="m3 72.639a.983.983 0 0 1 -.233-.028 1 1 0 0 1 -.741-1.2c8.87-37.17 42.448-53.059 42.785-53.215a1 1 0 1 1 .839 1.815c-.329.153-33.039 15.661-41.678 51.864a1 1 0 0 1 -.972.764z" fill="#bac1e3" data-original="#000000" style=""/><path xmlns="http://www.w3.org/2000/svg" d="m40.585 28.444a.941.941 0 0 1 -.129-.008l-7.167-.92a1 1 0 0 1 -.855-.8l-1.194-6.25a1 1 0 1 1 1.965-.376l1.058 5.535 6.448.828a1 1 0 0 1 -.126 1.991z" fill="#bac1e3" data-original="#000000" style=""/><path xmlns="http://www.w3.org/2000/svg" d="m35.06 35.611h-.021l-10.739-.217a1 1 0 0 1 -.969-.85l-1.653-10.831a1 1 0 0 1 1.977-.3l1.522 10 9.9.2a1 1 0 0 1 -.019 2z" fill="#bac1e3" data-original="#000000" style=""/><path xmlns="http://www.w3.org/2000/svg" d="m32.223 46.361h-.074l-16.374-1.2a1 1 0 0 1 -.885-.711l-3.932-13.136a1 1 0 0 1 1.917-.573l3.733 12.478 15.692 1.145a1 1 0 0 1 -.072 2z" fill="#bac1e3" data-original="#000000" style=""/></g></svg>
