<svg display="none"
	xmlns="http://www.w3.org/2000/svg">
	<symbol id="facebook" viewBox="0 0 98.6 98.6">
		<g>
			<path d="M49.3,0C22.1,0,0,22.1,0,49.3s22.1,49.3,49.3,49.3s49.3-22.1,49.3-49.3S76.5,0,49.3,0z M63.8,28.3c-2.3,0-4.7,0-7,0
                c-1.5-0.1-3,1-3.3,2.5c0,2.6,0,5.1,0,7.7c3.4,0,6.9,0,10.3,0c-0.3,3.7-0.7,7.4-1.3,11.1c-3,0-6.1,0-9.1,0c0,11,0,21.9,0,32.8
                c-4.5,0-9,0-13.6,0c-0.1-11,0-21.9,0-32.9c-2.2,0-4.4,0-6.6,0c0-3.7,0-7.4,0-11c2.2,0,4.4,0,6.6,0c0.1-3.6-0.1-7.2,0.1-10.7
                c0.2-2.9,1.3-5.7,3.4-7.7c2.6-2.4,6.2-3.3,9.6-3.4c3.6,0,7.3,0,10.9,0C63.8,20.6,63.8,24.4,63.8,28.3z"/>
		</g>
	</symbol>
	<symbol id="instagram" viewBox="0 0 98.6 98.6">
		<g>
			<path d="M62.2,24.5H36.2c-6.5,0-11.8,5.3-11.8,11.8v26.2c0,6.5,5.3,11.8,11.8,11.8h25.9c6.5,0,11.8-5.3,11.8-11.8V36.2
                C73.9,29.8,68.7,24.5,62.2,24.5z M49.2,65c-8.8,0-16-7.1-16-15.8s7.2-15.8,16-15.8s16,7.1,16,15.8S58,65,49.2,65z M65.5,36.5
                c-2.1,0-3.8-1.7-3.8-3.8s1.7-3.8,3.8-3.8c2.1,0,3.8,1.7,3.8,3.8S67.6,36.5,65.5,36.5z"/>
			<path d="M49.3,0C22.1,0,0,22.1,0,49.3s22.1,49.3,49.3,49.3s49.3-22.1,49.3-49.3S76.5,0,49.3,0z M79.8,62.4
                c0,9.7-7.9,17.6-17.6,17.6H36.2c-9.7,0-17.6-7.9-17.6-17.6V36.2c0-9.7,7.9-17.6,17.6-17.6h25.9c9.7,0,17.6,7.9,17.6,17.6V62.4z"/>
			<path d="M49.2,39.2c-5.6,0-10.1,4.5-10.1,10s4.6,10,10.1,10s10.1-4.5,10.1-10S54.8,39.2,49.2,39.2z"/>
		</g>
	</symbol>
	<symbol id="odnoklassniki" viewBox="0 0 98.6 98.6">
		<g>
			<circle cx="49.9" cy="30.9" r="8.3"/>
			<path d="M49.3,0C22.1,0,0,22.1,0,49.3s22.1,49.3,49.3,49.3s49.3-22.1,49.3-49.3S76.5,0,49.3,0z M49.9,14c9.3,0,16.9,7.6,16.9,16.9
                s-7.6,16.9-16.9,16.9s-16.9-7.6-16.9-16.9S40.5,14,49.9,14z M64.9,57.6c-3.6,2.3-8.5,3.2-11.8,3.5l2.7,2.7l10,10
                c1.5,1.5,1.5,4,0,5.5l-0.5,0.5c-1.5,1.5-4,1.5-5.5,0c-2.5-2.5-6.2-6.2-10-10l-10,10c-1.5,1.5-4,1.5-5.5,0L34,79.3
                c-1.5-1.5-1.5-4,0-5.5c2.5-2.5,6.2-6.2,10-10l2.7-2.7c-3.2-0.3-8.2-1.2-11.8-3.5c-4.2-2.7-6.1-4.3-4.5-7.7c1-1.9,3.6-3.5,7.1-0.7
                c4.8,3.7,12.4,3.7,12.4,3.7s7.6,0,12.4-3.7c3.5-2.8,6.2-1.2,7.1,0.7C71,53.2,69.2,54.9,64.9,57.6z"/>
		</g>
	</symbol>
	<symbol id="vk" viewBox="0 0 98.6 98.6">
		<g>
			<path d="M49.3,0C22.1,0,0,22.1,0,49.3s22.1,49.3,49.3,49.3s49.3-22.1,49.3-49.3S76.5,0,49.3,0z M70.7,55.8c0.4,0.5,1.3,1.4,2.8,2.8
            h0l0,0l0,0l0.1,0.1c3.2,3,5.4,5.5,6.5,7.6c0.1,0.1,0.1,0.3,0.2,0.4c0.1,0.2,0.2,0.5,0.2,0.9c0.1,0.4,0.1,0.8,0,1.2
            c-0.1,0.3-0.4,0.7-0.9,0.9c-0.5,0.3-1.2,0.4-2,0.4L69,70.3c-0.5,0.1-1.2,0.1-1.9-0.2c-0.7-0.2-1.3-0.5-1.8-0.8L64.6,69
            c-0.7-0.5-1.5-1.2-2.4-2.2c-0.9-1-1.7-1.9-2.3-2.7s-1.3-1.4-2.1-2c-0.7-0.5-1.4-0.7-1.9-0.5c-0.1,0-0.2,0.1-0.3,0.1
            c-0.1,0.1-0.3,0.2-0.6,0.5c-0.3,0.3-0.5,0.6-0.7,1c-0.2,0.4-0.4,1-0.6,1.8c-0.2,0.8-0.2,1.7-0.2,2.7c0,0.3,0,0.7-0.1,0.9
            c-0.1,0.3-0.2,0.5-0.3,0.6l-0.1,0.2c-0.4,0.4-1,0.7-1.8,0.8h-3.9c-1.6,0.1-3.3-0.1-5-0.6c-1.7-0.5-3.2-1.1-4.5-1.8
            c-1.3-0.7-2.5-1.5-3.5-2.3c-1.1-0.8-1.9-1.4-2.4-2l-0.9-0.8c-0.2-0.2-0.5-0.6-0.9-1c-0.4-0.5-1.2-1.5-2.4-3.1
            c-1.2-1.6-2.4-3.3-3.6-5.2c-1.2-1.8-2.6-4.2-4.2-7.2c-1.6-3-3.1-6.1-4.5-9.3C15.1,36.6,15,36.3,15,36c0-0.2,0-0.4,0.1-0.5l0.1-0.2
            c0.3-0.4,1-0.7,1.9-0.7l9.4-0.1c0.3,0,0.5,0.1,0.8,0.2c0.3,0.1,0.4,0.2,0.5,0.3l0.2,0.1c0.4,0.3,0.6,0.6,0.8,1.1
            c0.5,1.1,1,2.3,1.6,3.5c0.6,1.2,1.1,2.2,1.4,2.8l0.5,1c0.7,1.4,1.3,2.6,1.9,3.6c0.6,1,1.2,1.8,1.7,2.3c0.5,0.6,1,1,1.4,1.3
            c0.5,0.3,0.8,0.5,1.2,0.5c0.3,0,0.6-0.1,0.9-0.2c0,0,0.1-0.1,0.2-0.2s0.2-0.3,0.4-0.8c0.2-0.4,0.4-0.9,0.5-1.6
            c0.1-0.7,0.2-1.6,0.3-2.8c0.1-1.2,0.1-2.6,0-4.3c0-0.9-0.1-1.7-0.3-2.5c-0.2-0.8-0.3-1.3-0.5-1.6L39.9,37c-0.6-0.8-1.5-1.3-2.9-1.5
            c-0.3,0-0.2-0.3,0.2-0.8c0.4-0.4,0.8-0.8,1.3-1c1.2-0.6,3.9-0.9,8.2-0.8c1.9,0,3.4,0.2,4.6,0.4c0.5,0.1,0.8,0.3,1.1,0.5
            c0.3,0.2,0.5,0.5,0.7,0.8c0.2,0.4,0.3,0.7,0.4,1.1c0.1,0.4,0.1,0.9,0.1,1.6c0,0.7,0,1.3,0,1.9c0,0.6-0.1,1.4-0.1,2.4
            c0,1-0.1,2-0.1,2.8c0,0.3,0,0.7,0,1.4c0,0.7,0,1.3,0,1.6c0,0.4,0.1,0.9,0.1,1.4c0.1,0.5,0.2,1,0.4,1.3c0.2,0.4,0.5,0.6,0.8,0.8
            c0.2,0,0.4,0.1,0.6,0.1c0.2,0,0.5-0.1,0.9-0.4c0.4-0.3,0.8-0.7,1.3-1.2c0.5-0.5,1.1-1.3,1.8-2.3c0.7-1,1.5-2.3,2.3-3.7
            c1.4-2.4,2.6-4.9,3.7-7.7c0.1-0.2,0.2-0.4,0.3-0.6c0.1-0.2,0.3-0.3,0.4-0.4l0.1-0.1c0,0,0.1-0.1,0.2-0.1c0.1,0,0.2-0.1,0.4-0.1
            c0.2,0,0.5,0,0.7,0l9.9-0.1c0.9-0.1,1.6-0.1,2.2,0.1c0.6,0.2,0.9,0.4,1.1,0.6l0.2,0.3c0.5,1.5-1.2,4.8-5.1,10.1
            c-0.5,0.7-1.3,1.7-2.2,2.9c-1.8,2.3-2.8,3.8-3.1,4.5C69.8,54,70,54.9,70.7,55.8z"/>
		</g>
	</symbol>
	<symbol id="youtube" viewBox="0 0 98.6 98.6">
		<g>
			<g>
				<polygon points="43.7,56.5 59,48.4 43.7,40.5 	"/>
				<path d="M49.3,0C22.1,0,0,22.1,0,49.3s22.1,49.3,49.3,49.3s49.3-22.1,49.3-49.3S76.5,0,49.3,0z M76.8,60.8
                        c-0.7,4.2-2.7,6.4-6.9,6.9c-4.7,0.5-15.4,0.8-20.1,0.8c-4.9,0-14.8-0.2-19.7-0.6c-4.2-0.4-7.1-2.7-7.7-6.9
                        c-0.4-3.1-0.7-6.7-0.7-12.5c0-6.5,0.2-9.2,0.8-12.1c0.8-4.2,2.8-6.2,7.3-6.6c4.8-0.5,9.3-0.7,19.3-0.7c4.9,0,15.5,0.3,20.4,0.7
                        c4.3,0.4,6.7,3,7.2,7.2c0.4,2.9,0.7,7.1,0.7,11.6C77.5,56.2,76.8,60.8,76.8,60.8z"/>
			</g>
		</g>
	</symbol>
	<symbol id="call" viewBox="0 0 30 30">
		<g>
			<path d="M23.7094 18.5839C23.0952 17.9444 22.3544 17.6025 21.5692 17.6025C20.7904 17.6025 20.0433 17.9381 19.4038 18.5776L17.403 20.5721C17.2384 20.4834 17.0737 20.4011 16.9154 20.3188C16.6875 20.2048 16.4722 20.0972 16.2886 19.9832C14.4144 18.7929 12.7112 17.2416 11.0776 15.2345C10.2861 14.234 9.75429 13.3919 9.36805 12.5371C9.88725 12.0623 10.3685 11.5684 10.837 11.0935C11.0143 10.9162 11.1916 10.7326 11.3689 10.5553C12.6985 9.22567 12.6985 7.50344 11.3689 6.17379L9.64032 4.44523C9.44403 4.24895 9.24142 4.04633 9.05147 3.84372C8.67156 3.45115 8.27267 3.04592 7.86111 2.66602C7.24693 2.05818 6.51245 1.73526 5.73998 1.73526C4.96752 1.73526 4.22038 2.05818 3.58721 2.66602C3.58087 2.67235 3.58087 2.67235 3.57454 2.67868L1.42176 4.85046C0.611304 5.66092 0.14909 6.64866 0.0477825 7.7947C-0.104178 9.64356 0.440348 11.3658 0.858241 12.4928C1.88398 15.2598 3.41625 17.8241 5.70199 20.5721C8.47528 23.8836 11.8121 26.4986 15.6238 28.3411C17.0801 29.0312 19.0239 29.848 21.1957 29.9873C21.3286 29.9937 21.4679 30 21.5946 30C23.0572 30 24.2855 29.4745 25.248 28.4297C25.2543 28.4171 25.267 28.4107 25.2733 28.3981C25.6025 27.9992 25.9824 27.6383 26.3813 27.252C26.6536 26.9924 26.9322 26.7202 27.2045 26.4352C27.8313 25.7831 28.1606 25.0233 28.1606 24.2445C28.1606 23.4593 27.825 22.7059 27.1855 22.0727L23.7094 18.5839ZM25.9761 25.2512C25.9698 25.2512 25.9698 25.2575 25.9761 25.2512C25.7292 25.5171 25.4759 25.7577 25.2036 26.0237C24.7921 26.4162 24.3742 26.8278 23.9816 27.29C23.3421 27.9738 22.5887 28.2968 21.6009 28.2968C21.5059 28.2968 21.4046 28.2968 21.3096 28.2904C19.4291 28.1701 17.6816 27.4357 16.3709 26.8088C12.7872 25.0739 9.64032 22.6109 7.02532 19.4894C4.86621 16.887 3.42258 14.481 2.46649 11.8976C1.87765 10.3211 1.66237 9.0927 1.75734 7.934C1.82066 7.19319 2.10559 6.57901 2.63112 6.05348L4.79023 3.89437C5.10048 3.60311 5.42973 3.44482 5.75265 3.44482C6.15155 3.44482 6.47446 3.68543 6.67708 3.88804C6.68341 3.89437 6.68974 3.9007 6.69607 3.90704C7.08231 4.26794 7.44954 4.64151 7.83578 5.04041C8.03206 5.24303 8.23468 5.44564 8.43729 5.65459L10.1658 7.38314C10.837 8.0543 10.837 8.67481 10.1658 9.34597C9.98223 9.52959 9.80494 9.71321 9.62132 9.8905C9.08946 10.435 8.58292 10.9416 8.03206 11.4354C8.0194 11.4481 8.00674 11.4544 8.0004 11.4671C7.45588 12.0116 7.55718 12.5435 7.67115 12.9044C7.67749 12.9234 7.68382 12.9424 7.69015 12.9614C8.1397 14.0504 8.77287 15.0762 9.73529 16.2982L9.74162 16.3045C11.4892 18.4573 13.3317 20.1352 15.3642 21.4205C15.6238 21.5852 15.8897 21.7181 16.143 21.8448C16.3709 21.9587 16.5862 22.0664 16.7698 22.1803C16.7951 22.193 16.8205 22.212 16.8458 22.2247C17.0611 22.3323 17.2637 22.383 17.4726 22.383C17.9982 22.383 18.3274 22.0537 18.4351 21.9461L20.6005 19.7806C20.8158 19.5653 21.1577 19.3057 21.5566 19.3057C21.9491 19.3057 22.2721 19.5527 22.4683 19.768C22.4747 19.7743 22.4747 19.7743 22.481 19.7806L25.9698 23.2694C26.6219 23.9152 26.6219 24.5801 25.9761 25.2512Z" fill="#7F5E9A"/>
			<path d="M16.2126 7.1362C17.8715 7.41479 19.3785 8.19992 20.5815 9.40295C21.7845 10.606 22.5633 12.1129 22.8482 13.7718C22.9179 14.1897 23.2788 14.481 23.6904 14.481C23.741 14.481 23.7853 14.4746 23.836 14.4683C24.3045 14.3923 24.6148 13.9491 24.5388 13.4806C24.1969 11.4734 23.2471 9.64355 21.7972 8.19359C20.3472 6.74363 18.5174 5.79388 16.5102 5.45197C16.0417 5.37598 15.6048 5.68624 15.5225 6.14845C15.4402 6.61067 15.7441 7.06022 16.2126 7.1362Z" fill="#7F5E9A"/>
			<path d="M29.9649 13.2338C29.4014 9.92867 27.8438 6.9211 25.4504 4.52772C23.057 2.13434 20.0495 0.576736 16.7443 0.0132147C16.2821 -0.0690975 15.8452 0.247488 15.7629 0.709702C15.6869 1.17825 15.9972 1.61514 16.4657 1.69745C19.4163 2.19765 22.1073 3.59696 24.2474 5.73074C26.3875 7.87086 27.7805 10.5618 28.2807 13.5124C28.3503 13.9303 28.7112 14.2216 29.1228 14.2216C29.1735 14.2216 29.2178 14.2152 29.2684 14.2089C29.7306 14.1392 30.0472 13.696 29.9649 13.2338Z" fill="#7F5E9A"/>
		</g>
	</symbol>
	<symbol id="date" viewBox="0 0 512 512">
		<g>
			<g>
				<path d="M504.5,497H7.5c-4.143,0-7.5,3.358-7.5,7.5c0,4.142,3.357,7.5,7.5,7.5h497c4.143,0,7.5-3.358,7.5-7.5
                    C512,500.358,508.643,497,504.5,497z" fill="#7F5E9A"/>
			</g>
			<g>
				<path d="M504.5,467H7.5c-4.143,0-7.5,3.358-7.5,7.5c0,4.142,3.357,7.5,7.5,7.5h497c4.143,0,7.5-3.358,7.5-7.5
                    C512,470.358,508.643,467,504.5,467z" fill="#7F5E9A"/>
			</g>
			<g>
				<path d="M504.5,35H452V22.5C452,10.093,441.906,0,429.5,0S407,10.093,407,22.5V35H105V22.5C105,10.093,94.906,0,82.5,0
                    S60,10.093,60,22.5V35H7.5C3.357,35,0,38.358,0,42.5v402c0,4.142,3.357,7.5,7.5,7.5h497c4.143,0,7.5-3.358,7.5-7.5v-402
                    C512,38.358,508.643,35,504.5,35z M422,22.5c0-4.136,3.364-7.5,7.5-7.5s7.5,3.364,7.5,7.5v38.526c0,4.136-3.364,7.5-7.5,7.5
                    s-7.5-3.364-7.5-7.5V22.5z M75,22.5c0-4.136,3.364-7.5,7.5-7.5s7.5,3.364,7.5,7.5v38.526c0,4.136-3.364,7.5-7.5,7.5
                    s-7.5-3.364-7.5-7.5V22.5z M497,128H67.5c-4.143,0-7.5,3.358-7.5,7.5c0,4.142,3.357,7.5,7.5,7.5H497v294H15V143h22.5
                    c4.143,0,7.5-3.358,7.5-7.5c0-4.142-3.357-7.5-7.5-7.5H15V50h45v11.026c0,12.407,10.094,22.5,22.5,22.5s22.5-10.093,22.5-22.5V50
                    h302v11.026c0,12.407,10.094,22.5,22.5,22.5s22.5-10.093,22.5-22.5V50h45V128z" fill="#7F5E9A"/>
			</g>
			<g>
				<path d="M100.5,251h-63c-4.143,0-7.5,3.358-7.5,7.5v63c0,4.142,3.357,7.5,7.5,7.5h63c4.143,0,7.5-3.358,7.5-7.5v-63
                    C108,254.358,104.643,251,100.5,251z M93,314H45v-48h48V314z" fill="#7F5E9A"/>
			</g>
			<g>
				<path d="M194,251h-63c-4.143,0-7.5,3.358-7.5,7.5v63c0,4.142,3.357,7.5,7.5,7.5h63c4.143,0,7.5-3.358,7.5-7.5v-63
                    C201.5,254.358,198.143,251,194,251z M186.5,314h-48v-48h48V314z" fill="#7F5E9A"/>
			</g>
			<g>
				<path d="M287.5,251h-63c-4.143,0-7.5,3.358-7.5,7.5v63c0,4.142,3.357,7.5,7.5,7.5h63c4.143,0,7.5-3.358,7.5-7.5v-63
                    C295,254.358,291.643,251,287.5,251z M280,314h-48v-48h48V314z" fill="#7F5E9A"/>
			</g>
			<g>
				<path d="M287.5,158h-63c-4.143,0-7.5,3.358-7.5,7.5v63c0,4.142,3.357,7.5,7.5,7.5h63c4.143,0,7.5-3.358,7.5-7.5v-63
                    C295,161.358,291.643,158,287.5,158z M280,221h-48v-48h48V221z" fill="#7F5E9A"/>
			</g>
			<g>
				<g>
					<path d="M381,158h-63c-4.143,0-7.5,3.358-7.5,7.5v63c0,4.142,3.357,7.5,7.5,7.5h63c4.143,0,7.5-3.358,7.5-7.5v-63
                        C388.5,161.358,385.143,158,381,158z M373.5,221h-48v-48h48V221z" fill="#7F5E9A"/>
				</g>
			</g>
			<g>
				<g>
					<path d="M474.5,158h-63c-4.143,0-7.5,3.358-7.5,7.5v63c0,4.142,3.357,7.5,7.5,7.5h63c4.143,0,7.5-3.358,7.5-7.5v-63
                        C482,161.358,478.643,158,474.5,158z M467,221h-48v-48h48V221z" fill="#7F5E9A"/>
				</g>
			</g>
			<g>
				<g>
					<path d="M381,251h-63c-4.143,0-7.5,3.358-7.5,7.5v63c0,4.142,3.357,7.5,7.5,7.5h63c4.143,0,7.5-3.358,7.5-7.5v-63
                        C388.5,254.358,385.143,251,381,251z M373.5,314h-48v-48h48V314z" fill="#7F5E9A"/>
				</g>
			</g>
			<g>
				<g>
					<path d="M474.5,251h-63c-4.143,0-7.5,3.358-7.5,7.5v63c0,4.142,3.357,7.5,7.5,7.5h63c4.143,0,7.5-3.358,7.5-7.5v-63
                        C482,254.358,478.643,251,474.5,251z M467,314h-48v-48h48V314z" fill="#7F5E9A"/>
				</g>
			</g>
			<g>
				<g>
					<path d="M100.5,344h-63c-4.143,0-7.5,3.358-7.5,7.5v63c0,4.142,3.357,7.5,7.5,7.5h63c4.143,0,7.5-3.358,7.5-7.5v-63
                        C108,347.358,104.643,344,100.5,344z M93,407H45v-48h48V407z" fill="#7F5E9A"/>
				</g>
			</g>
			<g>
				<g>
					<path d="M194,344h-63c-4.143,0-7.5,3.358-7.5,7.5v63c0,4.142,3.357,7.5,7.5,7.5h63c4.143,0,7.5-3.358,7.5-7.5v-63
                        C201.5,347.358,198.143,344,194,344z M186.5,407h-48v-48h48V407z" fill="#7F5E9A"/>
				</g>
			</g>
			<g>
				<g>
					<path d="M287.5,344h-63c-4.143,0-7.5,3.358-7.5,7.5v63c0,4.142,3.357,7.5,7.5,7.5h63c4.143,0,7.5-3.358,7.5-7.5v-63
                        C295,347.358,291.643,344,287.5,344z M280,407h-48v-48h48V407z" fill="#7F5E9A"/>
				</g>
			</g>
			<g>
				<g>
					<path d="M381,344h-63c-4.143,0-7.5,3.358-7.5,7.5v63c0,4.142,3.357,7.5,7.5,7.5h63c4.143,0,7.5-3.358,7.5-7.5v-63
                        C388.5,347.358,385.143,344,381,344z M373.5,407h-48v-48h48V407z" fill="#7F5E9A"/>
				</g>
			</g>
		</g>
	</symbol>
	<symbol id="phone" viewBox="0 0 512 512">
		<g>
			<g>
				<g>
					<g>
						<path d="M366,0H146c-20.678,0-37.5,16.822-37.5,37.5v437c0,20.678,16.822,37.5,37.5,37.5h220c20.678,0,37.5-16.822,37.5-37.5v-437
                    C403.5,16.822,386.678,0,366,0z M388.5,407H176c-4.142,0-7.5,3.358-7.5,7.5c0,4.142,3.358,7.5,7.5,7.5h212.5v52.5
                    c0,12.407-10.093,22.5-22.5,22.5H146c-12.407,0-22.5-10.093-22.5-22.5V422H146c4.142,0,7.5-3.358,7.5-7.5
                    c0-4.142-3.358-7.5-7.5-7.5h-22.5V75h265V407z M388.5,60h-265V37.5c0-12.407,10.093-22.5,22.5-22.5h220
                    c12.407,0,22.5,10.093,22.5,22.5V60z" fill="#7F5E9A"/>
					</g>
				</g>
				<g>
					<g>
						<path d="M286,30h-30c-4.142,0-7.5,3.358-7.5,7.5c0,4.142,3.358,7.5,7.5,7.5h30c4.142,0,7.5-3.358,7.5-7.5
                    C293.5,33.358,290.142,30,286,30z" fill="#7F5E9A"/>
					</g>
				</g>
				<g>
					<g>
						<path d="M256,437c-12.407,0-22.5,10.093-22.5,22.5c0,12.407,10.093,22.5,22.5,22.5s22.5-10.093,22.5-22.5
                    C278.5,447.093,268.407,437,256,437z M256,467c-4.136,0-7.5-3.364-7.5-7.5s3.364-7.5,7.5-7.5s7.5,3.364,7.5,7.5
                    S260.136,467,256,467z" fill="#7F5E9A"/>
					</g>
				</g>
				<g>
					<g>
						<circle cx="226" cy="37.5" r="7.5" fill="#7F5E9A"/>
					</g>
				</g>
			</g>
		</g>
	</symbol>
	<symbol id="check" viewBox="0 0 20 18">
		<g>
			<g>
				<path d="M18.9239 3.99998L9.3503 16.5C8.93406 16.9167 8.3097 17.3333 7.68534 17.3333C7.06097 17.3333 6.43661 17.125 6.02037 16.5L1.02547 10.0416C0.401104 9.20831 0.401104 7.74998 1.44171 7.12498C2.48231 6.49998 3.73104 6.49998 4.3554 7.54165L7.68534 11.9166L15.5939 1.49998C16.2183 0.666645 17.6751 0.458312 18.5076 1.08331C19.5482 1.70831 19.5482 2.95831 18.9239 3.99998Z" fill="#9271EE"/>
			</g>
		</g>
	</symbol>
    <symbol id="mental" viewBox="0 0 512 512">
		<g>
			<g>
                <path d="m470.561 164.584c-4.135-54.412-33.877-104.923-79.56-135.116-22.032-14.562-47.493-23.823-75.671-27.524-23.822-3.128-49.852-2.486-79.576 1.965-21.259 3.181-39.823 8.161-56.755 15.222-37.862 15.788-67.315 43.267-85.174 79.466-12.615 25.572-16.411 55.22-10.687 83.486l.101.496c2.155 10.635 3.856 19.033 1.53 28.793-3.051 12.796-10.963 24.045-19.059 34.294-8.316 10.528-17.742 22.462-22.787 36.578-1.314 3.678-2.691 8.571-1.658 13.808.958 4.86 3.898 9.032 7.791 12.02 2.193 1.683 4.655 2.998 7.227 3.999 3.758 1.462 7.675 2.113 11.667 2.593 6.483.781 10.579 1.455 12.772 4.221 7.192 9.077 5.608 25.026 4.075 40.45-.778 7.824-1.512 15.213-1.152 21.964 1.921 36.038 22.475 55.651 59.437 56.718 19.598.557 40.071-2.16 57.635-7.677 2.61-.822 5.342-.323 7.496 1.362 2.151 1.684 3.288 4.215 3.113 7.042l-3.189 65.393c-.1 2.049.644 4.051 2.06 5.537 1.415 1.486 3.377 2.326 5.429 2.326h35.384c4.141 0 7.498-3.356 7.498-7.498s-3.356-7.498-7.498-7.498h-27.512l2.8-57.432c.472-7.619-2.834-14.975-8.842-19.679-6.01-4.705-13.947-6.147-21.233-3.86-16.012 5.031-34.744 7.519-52.708 6.994-29.127-.841-43.394-14.354-44.896-42.527-.299-5.608.381-12.445 1.099-19.683 1.744-17.537 3.719-37.413-7.244-51.248-6.244-7.879-15.948-8.871-25.206-10.103-4.968-.661-10.622-2.92-11.291-6.315-.328-1.663.451-4.142 1.066-5.861 4.218-11.799 12.461-22.237 20.434-32.331 9.161-11.597 18.153-24.484 21.878-40.111 3.092-12.976.9-23.795-1.42-35.249l-.101-.494c-5.068-25.029-1.716-51.265 9.438-73.875 16.232-32.9 43.03-57.888 77.498-72.261 15.778-6.58 33.181-11.235 53.203-14.232 60.963-9.124 106.961-1.743 144.759 23.24 41.847 27.657 69.09 73.916 72.876 123.742 2.131 28.022-2.66 55.066-14.243 80.382-6.72 14.687-16.298 28.465-25.562 41.788-4.51 6.49-9.029 12.987-13.282 19.649-10.583 16.577-20.774 34.714-19.094 58.021 1.117 15.485 12.099 103.394 15.625 131.443h-113.135c-4.141 0-7.498 3.356-7.498 7.498s3.356 7.498 7.498 7.498h121.637c2.153 0 4.201-.925 5.624-2.539 1.424-1.615 2.084-3.763 1.814-5.899-.153-1.211-15.333-121.396-16.608-139.079-1.224-16.979 5.225-30.778 16.778-48.877 4.125-6.455 8.597-12.887 12.955-19.155 9.64-13.865 19.608-28.203 26.886-44.11 12.649-27.648 17.884-57.174 15.558-87.755z"/>
                <path d="m415.491 172.315c0-74.878-60.917-135.795-135.795-135.795-74.877 0-135.794 60.917-135.794 135.795s60.918 135.795 135.795 135.795 135.794-60.917 135.794-135.795zm-135.794 120.799c-66.609 0-120.798-54.19-120.798-120.799s54.189-120.799 120.798-120.799 120.799 54.19 120.799 120.799-54.191 120.799-120.799 120.799z"/>
                <path d="m348.814 201.796c3.547-4.296 6.561-9.193 8.97-14.54 5.239-11.628 7.873-24.389 8.757-37.071.638-9.152.025-18.179-.803-27.27-.291-3.201-1.937-6.14-4.513-8.061s-5.86-2.659-9.005-2.026c-8.506 1.708-17.549 3.651-26.362 6.93-4.749 1.766-9.221 3.732-13.45 5.858-1.462-2.608-3.013-5.205-4.675-7.781-5.593-8.644-12.17-16.321-19.042-23.953-2.24-2.49-5.443-3.916-8.807-3.916-3.352.005-6.556 1.439-8.789 3.935-6.5 7.258-13.323 15.084-19.028 23.934-1.705 2.644-3.297 5.287-4.787 7.925-4.313-2.183-8.887-4.194-13.744-6.001-8.813-3.278-17.855-5.22-26.36-6.929-3.146-.635-6.432.104-9.008 2.026-2.577 1.921-4.222 4.859-4.514 8.068-.834 9.109-1.442 18.112-.802 27.262 1.308 18.762 6.72 38.101 17.547 51.686-10.973 5.09-17.919 11.911-17.919 20.583 0 5.245 2.702 12.879 15.577 19.466 2.987 1.528 6.371 1.783 9.53.717l8.654-2.922 2.21 4.323c1.917 3.753 5.265 6.32 9.188 7.046 12.713 2.344 27.256 3.583 42.057 3.583 42.006 0 87.217-10.08 87.217-32.212 0-8.72-7.028-15.562-18.099-20.66zm-99.562-41.329c2.632-11.108 7.82-22.719 15.419-34.51 4.481-6.952 9.739-13.204 15.245-19.417.443.489.781.86.94 1.031 5.227 5.614 10.03 11.799 14.274 18.386 4.763 7.389 8.612 14.912 11.441 22.358 1.47 3.872 5.806 5.816 9.671 4.346 3.871-1.47 5.818-5.8 4.346-9.671-.498-1.311-1.032-2.622-1.584-3.934 3.771-1.9 7.8-3.653 12.082-5.246 6.53-2.429 13.239-4.035 20.097-5.467.013.128.022.23.03.302.725 6.715.849 13.61.369 20.493v.001c-.862 12.349-5.836 50.418-34.103 55.468 4.781-6.826 7.742-14.649 8.826-23.414.509-4.11-2.412-7.853-6.521-8.362-4.096-.514-7.853 2.41-8.362 6.521-1.374 11.104-6.726 19.812-16.362 26.617-7.935 5.604-22.389 5.603-30.322-.001-14.932-10.545-20.143-25.854-15.486-45.501zm-41.441-11.326c-.48-6.884-.356-13.779.368-20.488.008-.074.019-.178.031-.308 6.856 1.431 13.566 3.038 20.098 5.467 4.375 1.627 8.46 3.436 12.302 5.384-2.567 6.001-4.56 11.951-5.949 17.814-4.339 18.306-1.62 34.692 7.636 47.666-28.588-4.771-33.621-43.132-34.486-55.535zm126.035 83.626c-14.357 4.451-33.588 6.902-54.149 6.902-13.477 0-26.67-1.084-38.239-3.136l-2.619-5.123c-2.977-5.819-9.427-8.595-15.329-6.603l-9.604 3.242c-5.308-2.899-6.43-5.134-6.43-5.598 0-.873 2.804-5.087 15.248-9.388 7.081 4.477 15.547 7.103 25.581 7.102 2.933 0 6.076-.357 9.024-1.156 6.394 4.091 14.471 6.164 22.572 6.164 8.045-.001 16.07-2.046 22.444-6.082 2.37.621 4.767.987 7.139 1.051 10.071.275 19.09-2.39 26.779-7.218 12.79 4.349 15.655 8.645 15.655 9.527 0 .937-3.216 5.71-18.072 10.316z"/>
		    </g>
		</g>
	</symbol>
    <symbol id="body" viewBox="0 0 64 64">
		<g>
			<g>
				<path d="m26.72626 16h-2.41278c-2.4043 0-4.66406.93604-6.36328 2.63623l-11.65723 11.65674c-.1875.1875-.29297.44189-.29297.70703s.10547.51953.29297.70703l5 5c.39062.39062 1.02344.39062 1.41406 0l9.29297-9.29297v10.41699l-7.94434 22.84033c-.10645.30566-.05859.64404.12891.9082.18848.26368.49219.42042.81543.42042h9c.42578 0 .80469-.26953.94434-.67139l7.11133-20.44336 8.0127 20.479c.15038.38331.51952.63575.93163.63575h9c.33008 0 .63965-.16309.82617-.43604.18652-.27344.22559-.62061.10547-.92822l-8.93164-22.82422v-10.39746l9.29297 9.29297c.39062.39062 1.02344.39062 1.41406 0l5-5c.1875-.1875.29297-.44189.29297-.70703s-.10547-.51953-.29297-.70703l-11.65723-11.65674c-1.69921-1.70019-3.95898-2.63623-6.36328-2.63623h-2.41278c1.66712-1.46722 2.72626-3.60992 2.72626-6 0-4.41113-3.58887-8-8-8s-8 3.58887-8 8c0 2.39008 1.05914 4.53278 2.72626 6zm12.96026 2c1.87012 0 3.62695.72803 4.94922 2.05029l10.9502 10.94971-3.58594 3.58594-10.29297-10.29297c-.28613-.28613-.71582-.37061-1.08984-.2168-.37403.15479-.61719.51953-.61719.92383v13c0 .12451.02344.24805.06836.36426l8.4668 21.63574h-6.85254l-8.75098-22.36426c-.15039-.38379-.52051-.63574-.93164-.63574-.00586 0-.0127 0-.01953 0-.41797.0083-.78711.27588-.9248.67139l-7.76661 22.32861h-6.88281l7.53809-21.67139c.03711-.10595.05566-.21679.05566-.32861v-13c0-.4043-.24316-.76904-.61719-.92383-.37402-.1543-.80371-.06934-1.08984.2168l-10.29297 10.29297-3.58594-3.58594 10.9502-10.94971c1.32226-1.32226 3.0791-2.05029 4.94922-2.05029zm-7.68652-14c3.30859 0 6 2.69141 6 6s-2.69141 6-6 6-6-2.69141-6-6 2.69141-6 6-6z"/>
                <path d="m31.31152 32.72559c.19336.1831.44043.27441.68848.27441s.49512-.09131.68848-.27441l4.28809-4.06982c.66015-.6255 1.02343-1.46143 1.02343-2.35352s-.36328-1.72803-1.02246-2.35352c-1.3252-1.25586-3.48242-1.25781-4.80762 0-.00098 0-.00098 0-.00098.00049l-.16894.16016-.16992-.16064c-1.32324-1.25684-3.48145-1.25781-4.80664 0-.66016.62548-1.02344 1.46142-1.02344 2.35351s.36328 1.72803 1.02246 2.35352zm-2.91211-7.32569c.2832-.26904.65527-.40332 1.02734-.40332s.74414.13428 1.02734.40283l.85742.81396c.38672.36621.99023.36621 1.37695 0l.85742-.81396c.56641-.53711 1.4873-.53662 2.05566.00049.25686.24414.39846.56446.39846.90235s-.1416.6582-.39941.90234l-3.60059 3.41699-3.60156-3.41699c-.25684-.24414-.39844-.56445-.39844-.90234s.1416-.65821.39941-.90235z"/>
                <path d="m52.72949 11.72754c-.48926-.5-.99902-.98438-1.51367-1.43945l-1.32422 1.49902c.47852.42285.95312.87402 1.41016 1.33984z"/>
                <path d="m53.81445 16.09375 1.61523-1.18066c-.41113-.56152-.8457-1.11328-1.29297-1.64062l-1.52539 1.29297c.41602.4912.8213 1.00536 1.20313 1.52831z"/>
                <path d="m46.11523 6.67041c-.60742-.33936-1.2334-.65967-1.86035-.95215l-.8457 1.8125c.58301.27197 1.16602.56982 1.73145.88574z"/>
                <path d="m55.87695 19.38818 1.76758-.93652c-.32617-.61475-.67676-1.22363-1.04395-1.80957l-1.69531 1.06152c.3418.54541.66895 1.11231.97168 1.68457z"/>
                <path d="m58.96094 30.54688 1.99805-.10645c-.03809-.69727-.09961-1.39697-.18555-2.08008l-1.98438.24902c.08008.63575.1377 1.2876.17188 1.93751z"/>
                <path d="m57.44238 22.94531 1.88477-.67188c-.2334-.65332-.49316-1.30664-.77344-1.94189l-1.83008.80762c.26075.59033.50293 1.19824.71875 1.80615z"/>
                <path d="m58.1123 44.62256-1.79883-.87207c-.28027.57715-.58691 1.15527-.91113 1.71826l1.73242.99902c.34864-.60449.67774-1.22509.97754-1.84521z"/>
                <path d="m59.65527 40.74512-1.90625-.60254c-.19629.61914-.41504 1.23486-.65234 1.8291l1.85742.74121c.25488-.64014.49121-1.30225.70117-1.96777z"/>
                <path d="m56.02637 48.2373-1.65625-1.12109c-.35938.53125-.74512 1.05908-1.14746 1.56934l1.57031 1.23828c.43262-.54834.84765-1.11572 1.2334-1.68653z"/>
                <path d="m50.60352 51.56006 1.37891 1.44922c.50098-.47656.99219-.97852 1.46094-1.49219l-1.47852-1.34766c-.43555.47852-.89356.94629-1.36133 1.39063z"/>
                <path d="m58.47852 26.68945 1.96094-.39062c-.13574-.68457-.29883-1.36865-.48242-2.03369l-1.92773.53418c.17089.61767.32225 1.25341.44921 1.89013z"/>
                <path d="m60.62305 36.68506-1.97461-.32129c-.10352.63721-.23145 1.27832-.37988 1.90576l1.94531.46191c.16015-.67382.29785-1.3623.40918-2.04638z"/>
                <path d="m60.99512 32.52734-2-.03418c-.01074.64551-.0459 1.29834-.10352 1.94043l1.99219.17871c.06152-.68994.09961-1.39111.11133-2.08496z"/>
                <path d="m49.60449 8.96191c-.54688-.41895-1.12012-.82568-1.70312-1.20898l-1.09766 1.67187c.54297.35645 1.07617.73535 1.58594 1.125z"/>
                <path d="m5.10547 34.40088c-.05664-.63867-.09082-1.29248-.10156-1.94336l-2 .03418c.0127.69824.04883 1.39941.10938 2.08496z"/>
                <path d="m5.21484 28.57568-1.98438-.25195c-.08594.68262-.14941 1.38232-.1875 2.07959l1.99609.10938c.03615-.64991.09474-1.30176.17579-1.93702z"/>
                <path d="m5.98047 24.76514-1.92773-.53418c-.18359.66309-.34668 1.34619-.48535 2.03076l1.96094.39551c.1289-.63819.28026-1.27442.45214-1.89209z"/>
                <path d="m20.62207 7.5166-.84375-1.81348c-.63086.29297-1.25684.6123-1.86133.94922l.97266 1.74707c.5625-.31298 1.14551-.60986 1.73242-.88281z"/>
                <path d="m9.11328 17.67432-1.69531-1.0625c-.36816.58838-.7207 1.19629-1.04492 1.80762l1.76562.93848c.30274-.56886.63086-1.13526.97461-1.6836z"/>
                <path d="m7.28906 21.10645-1.83008-.80713c-.2832.64307-.54395 1.2959-.77344 1.94043l1.88281.67188c.21388-.59864.45606-1.20606.72071-1.80518z"/>
                <path d="m14.13379 11.76416-1.32422-1.49902c-.52344.4624-1.03223.9458-1.51465 1.4375l1.42773 1.40039c.44923-.45752.92383-.90821 1.41114-1.33887z"/>
                <path d="m13.38086 51.54639c-.47461-.45312-.93164-.92139-1.35938-1.39209l-1.48047 1.34473c.45996.50586.9502 1.0083 1.45898 1.49365z"/>
                <path d="m11.41016 14.54004-1.52344-1.2959c-.4502.52881-.88574 1.08057-1.29492 1.63965l1.61328 1.18164c.38086-.52002.78613-1.0332 1.20508-1.52539z"/>
                <path d="m6.89355 41.94824c-.23828-.60107-.45801-1.21777-.65137-1.83301l-1.9082.60156c.20898.66064.44434 1.32324.7002 1.96875z"/>
                <path d="m17.22559 9.40674-1.0957-1.67383c-.57617.37695-1.14941.7832-1.70508 1.20605l1.21289 1.59082c.5166-.39453 1.05078-.77246 1.58789-1.12304z"/>
                <path d="m3.37109 36.6499c.10938.68213.24707 1.37207.4082 2.05078l1.94531-.46094c-.14941-.63184-.27734-1.27344-.37891-1.90723z"/>
                <path d="m8.58594 45.44824c-.32031-.55664-.62598-1.13525-.90918-1.72021l-1.80078.87207c.30469.62744.63281 1.24854.97754 1.84619z"/>
                <path d="m10.7627 48.66748c-.39648-.50342-.78223-1.03125-1.14648-1.56982l-1.65625 1.12012c.39062.57861.80566 1.14648 1.23242 1.68799z"/>
                <path d="m33.04199 60.98096c.69629-.02539 1.39746-.07617 2.08496-.15137l-.21875-1.98828c-.63867.07031-1.29102.11719-1.93848.14062z"/>
                <path d="m30.95117 60.98145.07422-1.99902c-.64355-.02344-1.29688-.0708-1.94043-.14111l-.2168 1.98828c.69141.07519 1.39258.12645 2.08301.15185z"/>
			</g>
		</g>
	</symbol>
    <symbol id="habit" viewBox="0 0 60 60">
		<g>
			<g id="031---Brain-Research" fill-rule="nonzero">
			<path id="Shape" d="m55.073 39.676-18.51 6.17c-.3059974.102017-.6264447.154018-.949.154h-.575c.4755431-1.3021295.3385067-2.7492771-.373-3.939l-.089-.147c-1.0881016-1.8035179-3.038674-2.9082736-5.145-2.914h-5.232c-1.845108-.0020745-3.634951-.6299473-5.077-1.781-1.7963064-1.4330224-4.0251194-2.2152043-6.323-2.219h-1.984c-.4222546-1.1943509-1.54921457-1.9947486-2.816-2h-5c-1.65685425 0-3 1.3431458-3 3v21c0 1.6568542 1.34314575 3 3 3h5c.84849384-.0026614 1.6557601-.3662948 2.22-1h25.08c1.467221.00049 2.906212-.4032856 4.159-1.167l18.741-11.409c1.6276173-.9901832 2.2517913-3.0449436 1.4499321-4.7731283-.8018593-1.7281847-2.7738821-2.5783375-4.5809321-1.9748717zm-47.073 18.324h-5c-.55228475 0-1-.4477153-1-1v-21c0-.5522847.44771525-1 1-1h5c.55228475 0 1 .4477153 1 1v21c0 .5522847-.44771525 1-1 1zm49.968-14.441c-.0895889.4817962-.3806653.9024017-.8 1.156l-18.749 11.41c-.9395909.5725464-2.018709.8752808-3.119.875l-24.3.0000002v-20.0000002h1.8c1.845108.0020745 3.634951.6299473 5.077 1.781 1.7963064 1.4330224 4.0251194 2.2152043 6.323 2.219h5.23c1.4042669.0039537 2.7046337.7405754 3.43 1.943l.089.147c.5459744.910232.4870881 2.0602928-.149 2.91h-6.075c-1.9743155-.002054-3.9047017.5827006-5.546 1.68l-.733.488c-.3042178.195156-.4794522.5392835-.4583434.9001003s.2352753.6821632.5601743.8405141.7099611.1290596 1.0071691-.0766144l.733-.488c1.3131213-.8778224 2.8574884-1.3456226 4.437-1.344h8.889c.5373321.0001732 1.0711793-.0862688 1.581-.256l18.511-6.171c.7127634-.2378448 1.497674.0090028 1.946.612.2970653.3916942.4121015.8918831.316 1.374z"/>
			<path id="Shape" d="m38.982 16.188c.0744538-.3538613-.0479307-.7203513-.3200693-.9584726-.2721387-.2381213-.6516311-.3107736-.9924777-.1900059-.3408465.1207677-.5899418.4161394-.651453.7724785-.3723423 1.9645378-1.825176 3.5487223-3.7502305 4.0892893s-3.9901865-.0557514-5.3307695-1.5392893c-.3763988-.3765332-.9818154-.3921363-1.37711-.0354915s-.4418469.9604705-.10589 1.3734915c1.1097214 1.2261399 2.6042267 2.0374126 4.237 2.3-.7082808 1.2413486-2.0298121 2.0054603-3.459 2-.5522847 0-1 .4477153-1 1s.4477153 1 1 1c2.5338765.0080662 4.7947721-1.5897725 5.633-3.981 3.0711457-.4458646 5.5247018-2.7847048 6.117-5.831z"/>
			<path id="Shape" d="m52.21 26.5c2.1219553-2.4990064 2.3832074-6.0837415.646-8.864.5624503-1.3645643.47669-2.9104338-.2332482-4.2044098s-1.9676737-2.1968427-3.4207518-2.4555902c-.8428505-4.9663303-5.12976-8.61064614-10.167-8.643-.17 0-.332.021-.5.029-.7698571-1.28926288-2.0937984-2.14890071-3.5847543-2.32758838-1.4909559-.17868768-2.9805365.34375593-4.0332457 1.41458838-1.3805042-.94219031-3.0126201-1.44708696-4.684-1.449-2.6501843.01288967-5.1397199 1.27247613-6.72 3.4-1.7911118-.57666777-3.7489512-.28073715-5.289614.79953382s-2.486115 2.82004964-2.554386 4.70046618c-1.87614714.7287024-3.11348995 2.5333095-3.117 4.546.00456616.3650802.05086695.7284408.138 1.083-1.10433517 1.6314141-1.69311251 3.5569598-1.69 5.527-.00001342 5.4833395 4.4386739 9.9318687 9.922 9.944.8513778.0001798 1.6991605-.1104152 2.522-.329 1.0717545 2.1715442 3.1180972 3.6989618 5.504781 4.1088424 2.3866839.4098806 4.8253742-.3472935 6.560219-2.0368424.9329568.304928 1.9005394.4913892 2.88.555.551 2.286 2.241 3.66 5.884 4.881 1.0318181.3235402 1.9522986.9298033 2.657 1.75.7026049.837329 1.7369757 1.3245432 2.83 1.333.4757281.0002683.9465629-.0960079 1.384-.283 1.3252975-.5660377 2.1853273-1.8678853 2.186-3.309.0001076-.3761334-.0599857-.74986-.178-1.107-.2975845-.9421144-.7001109-1.8477988-1.2-2.7 2.1856825-1.4936253 3.7109053-3.7728626 4.258-6.363zm-8.7 6.044c-.5135633.083605-.8771992.5470675-.8362143 1.0657749.040985.5187073.4728938.919311.9932143.9212251.0535561-.000053.1070351-.0040639.16-.012.8185964-.1332077 1.6178512-.3659319 2.38-.693.4381163.7429309.7884635 1.5342323 1.044 2.358.0525307.1559508.0792158.3194398.079.484-.0006418.6403597-.3830274 1.218659-.972 1.47-.6745984.2655791-1.4435103.0632339-1.9-.5-.9392428-1.1005777-2.1679968-1.9160519-3.547-2.354-2.914-.976-4.015-1.867-4.451-3.039.7410331-.0738875 1.4733416-.2182062 2.187-.431.3415459-.1048574.6012066-.3839623.6811703-.7321785.0799637-.3482161-.0319178-.7126413-.2935-.956s-.6331244-.328679-.9746703-.2238215c-.7183657.2196159-1.4595355.3561736-2.209.407-1.4489609.1147154-2.9048829-.1056404-4.255-.644-.3964725-.1271453-.8307532-.0195428-1.122.278-1.3060229 1.5230403-3.3288407 2.2281885-5.2986406 1.8470903-1.9697999-.3810981-3.5836436-1.7898331-4.2273594-3.6900903-.5390167-1.5621244-.3596427-3.2826507.49-4.7.2838744-.4738603.1298603-1.0881256-.344-1.372s-1.0881256-.1298603-1.372.344c-.3243077.5466642-.5786335 1.1319159-.757 1.742-.5707108.015028-1.1238465-.1981843-1.5368164-.5923828s-.651665-.9368248-.6631836-1.5076172v-.031c-.000781-.2636059-.1068717-.5159691-.2946732-.7009536s-.4417392-.2872493-.7053268-.2840464c-.5553216.0076667-1.0011483.4606267-1 1.016.0024844 2.1813321 1.7125024 3.9788066 3.891 4.09 0 .063-.012.125-.012.188.0003521.5016419.0499229 1.002039.148 1.494-2.9758159.7319597-6.1066779-.3205774-8.0359852-2.7015476-1.92930723-2.3809703-2.30995733-5.6620123-.9770148-8.4214524.3280202.3808134.7128904.7086783 1.141.972.473308.2849789 1.0880211.132308 1.373-.341s.132308-1.0880211-.341-1.373c-1.1110143-.667911-1.6411098-1.9940949-1.2965959-3.2438021s1.4792782-2.1169298 2.7755959-2.1211979c.9078706-.0026056 1.7624297.4283894 2.3 1.16.3299901.4432085.9567915.5349901 1.4.205s.5349901-.9567915.205-1.4c-.8556249-1.15804509-2.1841627-1.87293199-3.622-1.949.287842-1.98179779 1.9834199-3.45404943 3.986-3.461.2656491.0031389.5303111.03295525.79.089-.1414334.34346661-.2600249.69590048-.355 1.055-.1244587.5293486.1968889 1.06112806.7233961 1.19710617.5265073.13597811 1.0651711-.17369095 1.2126039-.69710617.515826-2.01250821 1.9870826-3.64337407 3.9360237-4.36302299 1.948941-.71964892 4.1270218-.43630551 5.8269763.75802299-.2174607.55415611-.3306934 1.14371251-.334 1.739 0 .55228475.4477153 1 1 1s1-.44771525 1-1c-.0194104-1.04153684.5251344-2.01237161 1.4240357-2.53882401.8989014-.52645239 2.0120272-.52645239 2.9109286 0 .8989013.5264524 1.4434461 1.49728717 1.4240357 2.53882401 0 .55228475.4477153 1 1 1s1-.44771525 1-1c-.00812-.18321621-.026482-.36583479-.055-.547 3.8949674.1033126 7.2030828 2.88149928 7.978 6.7-.6383394.1520414-1.2389298.4327706-1.765.825-.4418278.3313708-.5313708.9581722-.2 1.4s.9581722.5313708 1.4.2c1.0938051-.813074 2.6073115-.7501256 3.6298225.1509683 1.0225109.9010938 1.2752653 2.3946732.6061775 3.5820317-.2991782.52452-.7532597.9436722-1.3 1.2-.5000938.234721-.715221.8304062-.4805 1.3305s.8304062.715221 1.3305.4805c.4150025-.1977517.8001118-.4529203 1.144-.758.8548985 1.993036.4696955 4.3015192-.986 5.909l-.02.021c-1.707056 1.8465051-4.4274369 2.3458593-6.679 1.226-.2933828-.1471737-.572277-.3216082-.833-.521.9843085-1.2453158 1.1589593-2.9477708.448-4.367-.2493412-.4893845-.8467164-.6860743-1.3380295-.440555-.491313.2455192-.6926529.8413432-.4509705 1.334555.4678839.9374935.1765755 2.0763219-.684 2.674-.5043494.3358189-1.1274193.4420924-1.714572.2924447-.5871526-.1496476-1.0833448-.5411876-1.365428-1.0774447-.2493412-.4893845-.8467164-.6860743-1.3380295-.440555-.491313.2455192-.6926529.8413432-.4509705 1.334555.9604217 1.9585536 3.2965663 2.8085022 5.291 1.925.4614445.4200301.9749898.778974 1.528 1.068 1.944257 1.0055857 4.2317064 1.1079324 6.258.28-1.241312 2.0645251-3.3254885 3.4809026-5.702 3.875z"/>
			<path id="Shape" d="m27.5 11c0-.5522847-.4477153-1-1-1-3.0361953.0033068-5.4966932 2.4638047-5.5 5.5 0 .5522847.4477153 1 1 1s1-.4477153 1-1c0-1.9329966 1.5670034-3.5 3.5-3.5.5522847 0 1-.4477153 1-1z"/>
			<path id="Shape" d="m2.293 3.293c-.39038194.39049985-.39038194 1.02350015 0 1.414l2 2c.39237889.37897221 1.01608478.37355237 1.40181858-.01218142.38573379-.3857338.39115363-1.00943969.01218142-1.40181858l-2-2c-.39049985-.39038194-1.02350015-.39038194-1.414 0z"/>
			<path id="Shape" d="m57.707 3.293c-.3904999-.39038194-1.0235001-.39038194-1.414 0l-2 2c-.2599566.25107447-.3642126.62287789-.2726972.97250732.0915155.34962944.3645604.6226744.7141899.71418984.3496294.09151544.7214328-.01274058.9725073-.27269716l2-2c.3903819-.39049985.3903819-1.02350015 0-1.414z"/>
			<path id="Shape" d="m4.293 27.293-2 2c-.25995658.2510745-.3642126.6228779-.27269716.9725073.09151544.3496295.3645604.6226744.71418984.7141899.34962943.0915154.72143285-.0127406.97250732-.2726972l2-2c.37897221-.3923789.37355237-1.0160848-.01218142-1.4018186-.3857338-.3857338-1.00943969-.3911536-1.40181858-.0121814z"/>
			<path id="Shape" d="m56.293 30.707c.3923789.3789722 1.0160848.3735524 1.4018186-.0121814s.3911536-1.0094397.0121814-1.4018186l-2-2c-.3923789-.3789722-1.0160848-.3735524-1.4018186.0121814s-.3911536 1.0094397-.0121814 1.4018186z"/>
			<path id="Shape" d="m0 17c0 .5522847.44771525 1 1 1h2c.55228475 0 1-.4477153 1-1s-.44771525-1-1-1h-2c-.55228475 0-1 .4477153-1 1z"/>
			<path id="Shape" d="m59 16h-2c-.5522847 0-1 .4477153-1 1s.4477153 1 1 1h2c.5522847 0 1-.4477153 1-1s-.4477153-1-1-1z"/>
		</g>
		</g>
	</symbol>
</svg>