<svg width="2093" height="2040" viewBox="0 0 2093 2040" fill="none" xmlns="http://www.w3.org/2000/svg">
<path d="M324.56 1645.42C117.078 1593.07 -22.0567 1416.22 3.64063 1213.2C29.338 1010.18 218.321 951.406 367.211 925.232C476.127 906.078 529.009 785.799 474.759 649.28C420.449 512.762 436.391 340.85 540.965 241.926C644.528 143.894 822.387 128.963 1024.63 194.932C1226.88 260.842 1202.02 401.644 1384.52 400.692C1594.02 399.621 1726.61 446.555 1775.69 536.734C1833.98 643.867 1784.73 751.06 1770.63 839.812C1756.47 928.563 1850.04 1031.35 1918.27 1063.12C1986.5 1094.88 2199.16 1233.31 2025.64 1448.17C1852.12 1663.03 1734.82 1641.73 1643.22 1770.76C1560.65 1887.05 1375.59 1937.02 1207.25 1895.79C1038.85 1854.57 1025.23 1750.89 811.025 1691.7C596.821 1632.51 460.304 1679.68 324.56 1645.42Z" fill="url(#paint0_linear)"/>
<path d="M599.083 1696.93L603.663 1693.78C602.89 1692.65 601.997 1691.4 601.105 1690.09C581.297 1661.66 534.839 1594.98 512.651 1438.77C500.517 1353.53 463.517 1280.95 434.548 1235.09C403.2 1185.42 374.29 1155.44 373.993 1155.14L370.007 1159.01C370.305 1159.31 398.857 1188.99 429.908 1238.18C458.52 1283.57 495.163 1355.31 507.119 1439.54C529.485 1597.06 576.478 1664.46 596.525 1693.25C597.476 1694.61 598.309 1695.8 599.083 1696.93Z" fill="#BAC1E3"/>
<path d="M341.216 1132.9C356.92 1152.82 376.847 1163.41 376.847 1163.41C376.847 1163.41 371.196 1141.64 355.492 1121.65C339.788 1101.73 319.861 1091.14 319.861 1091.14C319.861 1091.14 325.452 1112.91 341.216 1132.9Z" fill="#BAC1E3"/>
<path d="M391.897 1134.62C387.793 1157.94 392.849 1178.28 392.849 1178.28C392.849 1178.28 404.508 1160.85 408.553 1137.54C412.658 1114.22 407.601 1093.87 407.601 1093.87C407.601 1093.87 395.942 1111.3 391.897 1134.62Z" fill="#BAC1E3"/>
<path d="M423.484 1168.59C416.703 1193.99 420.272 1217.01 420.272 1217.01C420.272 1217.01 434.846 1198.86 441.627 1173.46C448.408 1148.06 444.839 1125.04 444.839 1125.04C444.839 1125.04 430.325 1143.25 423.484 1168.59Z" fill="#BAC1E3"/>
<path d="M456.439 1206.78C444.72 1232.24 444.363 1257.04 444.363 1257.04C444.363 1257.04 462.922 1240.56 474.641 1215.1C486.359 1189.65 486.716 1164.84 486.716 1164.84C486.716 1164.84 468.157 1181.26 456.439 1206.78Z" fill="#BAC1E3"/>
<path d="M492.129 1253.23C475.83 1279.59 472.082 1306.77 472.082 1306.77C472.082 1306.77 494.687 1291.25 510.985 1264.83C527.284 1238.48 531.032 1211.3 531.032 1211.3C531.032 1211.3 508.428 1226.88 492.129 1253.23Z" fill="#BAC1E3"/>
<path d="M522.823 1313.49C502.777 1340.56 496.174 1369.71 496.174 1369.71C496.174 1369.71 522.109 1354.89 542.215 1327.83C562.321 1300.76 568.864 1271.62 568.864 1271.62C568.864 1271.62 542.869 1286.37 522.823 1313.49Z" fill="#BAC1E3"/>
<path d="M541.679 1383.63C520.086 1409.56 511.877 1438.23 511.877 1438.23C511.877 1438.23 538.646 1424.97 560.179 1399.03C581.772 1373.1 589.981 1344.43 589.981 1344.43C589.981 1344.43 563.213 1357.75 541.679 1383.63Z" fill="#BAC1E3"/>
<path d="M557.74 1460.84C534.184 1484.93 523.655 1512.89 523.655 1512.89C523.655 1512.89 551.375 1501.76 574.931 1477.67C598.487 1453.58 609.016 1425.62 609.016 1425.62C609.016 1425.62 581.296 1436.75 557.74 1460.84Z" fill="#BAC1E3"/>
<path d="M581.296 1531.92C556.372 1555.9 544.713 1584.27 544.713 1584.27C544.713 1584.27 573.503 1573.74 598.427 1549.77C623.351 1525.8 635.01 1497.42 635.01 1497.42C635.01 1497.42 606.279 1507.95 581.296 1531.92Z" fill="#BAC1E3"/>
<path d="M481.778 1562.44C516.041 1567.08 542.214 1583.08 542.214 1583.08C542.214 1583.08 512.77 1591.59 478.506 1586.95C444.243 1582.31 418.07 1566.3 418.07 1566.3C418.07 1566.3 447.455 1557.8 481.778 1562.44Z" fill="#BAC1E3"/>
<path d="M464.231 1488.74C497.363 1495.1 521.931 1512.05 521.931 1512.05C521.931 1512.05 492.843 1518.72 459.71 1512.41C426.577 1506.05 402.01 1489.09 402.01 1489.09C402.01 1489.09 431.157 1482.37 464.231 1488.74Z" fill="#BAC1E3"/>
<path d="M449.717 1416.94C483.147 1421.52 508.547 1437.16 508.547 1437.16C508.547 1437.16 479.816 1445.37 446.445 1440.79C413.074 1436.21 387.615 1420.57 387.615 1420.57C387.615 1420.57 416.346 1412.36 449.717 1416.94Z" fill="#BAC1E3"/>
<path d="M433.12 1353.11C466.729 1355.85 493.021 1370 493.021 1370C493.021 1370 464.826 1379.82 431.217 1377.08C397.608 1374.35 371.316 1360.19 371.316 1360.19C371.316 1360.19 399.512 1350.37 433.12 1353.11Z" fill="#BAC1E3"/>
<path d="M411.528 1296.96C442.519 1297.25 467.503 1308.5 467.503 1308.5C467.503 1308.5 442.281 1319.32 411.29 1319.09C380.298 1318.79 355.315 1307.54 355.315 1307.54C355.315 1307.54 380.536 1296.66 411.528 1296.96Z" fill="#BAC1E3"/>
<path d="M391.599 1245.98C419.617 1247.11 441.923 1257.99 441.923 1257.99C441.923 1257.99 418.843 1267.09 390.826 1265.96C362.809 1264.83 340.502 1253.95 340.502 1253.95C340.502 1253.95 363.641 1244.85 391.599 1245.98Z" fill="#BAC1E3"/>
<path d="M372.981 1206.24C399.274 1207.01 420.272 1217.01 420.272 1217.01C420.272 1217.01 398.679 1225.75 372.446 1224.98C346.154 1224.21 325.156 1214.21 325.156 1214.21C325.156 1214.21 346.689 1205.47 372.981 1206.24Z" fill="#BAC1E3"/>
<path d="M348.711 1169.96C372.327 1171.26 391.064 1180.78 391.064 1180.78C391.064 1180.78 371.434 1188.16 347.819 1186.85C324.204 1185.54 305.466 1176.02 305.466 1176.02C305.466 1176.02 325.037 1168.65 348.711 1169.96Z" fill="#BAC1E3"/>
<path d="M619.961 1832.02L619.128 1830.72C619.128 1830.72 618.712 1830.06 617.939 1828.75L617.76 1828.63L617.701 1828.34C612.882 1820.31 575.585 1757.13 553.16 1679.09L553.1 1678.85C552.505 1676.83 551.911 1674.81 551.375 1672.72C537.932 1623.89 533.292 1579.09 537.515 1539.71C537.575 1539.12 537.634 1538.47 537.753 1537.81V1537.75C537.872 1536.56 537.991 1535.37 538.17 1534.24C542.393 1501.82 553.517 1467.74 571.243 1432.88L571.362 1432.64C571.659 1432.05 571.957 1431.51 572.254 1430.98L572.671 1430.14C584.032 1408.19 598.071 1385.89 614.37 1363.88C614.667 1363.46 614.964 1363.1 615.202 1362.75C644.885 1322.77 673.14 1295.53 681.111 1288.15C682.122 1287.2 682.658 1286.72 682.658 1286.72L683.312 1286.13L684.264 1286.9L684.383 1287.26C684.442 1287.38 684.621 1287.79 684.918 1288.45L685.097 1288.92C689.261 1298.92 704.013 1335.14 717.635 1382.79V1382.91C717.754 1383.27 717.813 1383.63 717.932 1383.92L717.992 1384.22C737.384 1452.03 745.712 1510.69 742.559 1558.39C740.358 1591.82 729.413 1631.44 710.08 1676L709.842 1676.53C709.247 1677.9 708.653 1679.27 708.058 1680.63L707.939 1680.87C675.222 1754.34 630.609 1817.33 621.984 1829.23L619.961 1832.02ZM619.783 1827.8C619.902 1827.98 620.021 1828.16 620.08 1828.34L620.318 1828.04C628.884 1816.2 673.319 1753.44 705.916 1680.28L706.035 1680.04C706.749 1678.43 707.463 1676.83 708.117 1675.22L708.415 1674.63C727.569 1630.49 738.335 1591.29 740.536 1558.21C743.689 1510.75 735.421 1452.33 716.029 1384.58L715.969 1384.34C715.91 1384.1 715.791 1383.74 715.672 1383.39L715.612 1383.15C701.99 1335.8 687.357 1299.69 683.193 1289.7L683.015 1289.22C683.015 1289.22 683.015 1289.22 683.015 1289.16C682.896 1289.28 682.717 1289.46 682.539 1289.58C674.627 1296.96 646.491 1324.02 616.868 1363.94C616.57 1364.29 616.333 1364.71 616.035 1365.07C599.796 1387.02 585.817 1409.2 574.515 1431.09L574.098 1431.93C573.86 1432.4 573.623 1432.82 573.385 1433.3L573.266 1433.59C555.599 1468.27 544.475 1502.24 540.252 1534.54C540.073 1535.67 539.954 1536.86 539.835 1537.99C539.716 1538.7 539.657 1539.3 539.597 1539.89C535.374 1579.03 540.014 1623.53 553.398 1672.13C553.933 1674.21 554.528 1676.23 555.123 1678.26L555.182 1678.49C577.786 1756.95 615.381 1820.37 619.664 1827.44L619.783 1827.8Z" fill="#7F5E9A"/>
<path d="M621.21 1830.12L618.831 1830.24C618.771 1828.45 611.217 1650.53 635.367 1516.75C659.518 1383.03 682.003 1288.15 682.182 1287.2L684.501 1287.73C684.264 1288.69 661.778 1383.51 637.687 1517.17C613.655 1650.71 621.15 1828.34 621.21 1830.12Z" fill="#7F5E9A"/>
<path d="M649.763 1452.15L647.979 1450.55C650.001 1448.23 697.886 1393.92 716.089 1382.02L717.397 1384.04C699.433 1395.76 650.239 1451.56 649.763 1452.15Z" fill="#7F5E9A"/>
<path d="M630.609 1561.49L628.825 1559.88C631.918 1556.37 705.025 1473.45 732.744 1455.36L734.053 1457.39C706.571 1475.29 631.383 1560.65 630.609 1561.49Z" fill="#7F5E9A"/>
<path d="M630.847 1560.3L629.717 1560.71L628.646 1561.13H628.587C628.23 1560.12 592.777 1466.61 572.314 1433.12C572.731 1432.28 573.207 1431.45 573.623 1430.62C591.825 1459.65 621.984 1537.22 629.301 1556.19C629.658 1557.08 629.896 1557.8 630.134 1558.45C630.49 1559.4 630.728 1560 630.847 1560.3Z" fill="#7F5E9A"/>
<path d="M622.043 1667.01L621.032 1667.61L619.961 1668.2C619.961 1668.2 619.902 1668.08 619.842 1667.96C617.106 1663.21 572.254 1585.1 538.824 1537.93C538.943 1536.74 539.062 1535.61 539.24 1534.42C569.815 1577.13 610.622 1647.26 620.08 1663.56C620.556 1664.34 620.913 1665.05 621.21 1665.53C621.686 1666.42 621.983 1666.95 622.043 1667.01Z" fill="#7F5E9A"/>
<path d="M620.139 1768.85L620.08 1768.91L619.128 1769.51L618.117 1770.16C618.117 1770.1 617.938 1769.86 617.641 1769.45C613.477 1763.26 583.735 1718.82 554.112 1678.79C553.517 1676.71 552.863 1674.57 552.327 1672.43C580.285 1709.78 609.194 1752.55 617.641 1765.16C618.295 1766.17 618.831 1766.95 619.247 1767.54C619.664 1768.14 619.961 1768.55 620.021 1768.73C620.139 1768.85 620.139 1768.85 620.139 1768.85Z" fill="#7F5E9A"/>
<path d="M621.864 1668.38L620.08 1666.77C620.972 1665.76 708.236 1566.78 740.298 1545.84L741.607 1547.86C709.782 1568.62 622.756 1667.37 621.864 1668.38Z" fill="#7F5E9A"/>
<path d="M709.129 1675.52C708.475 1677.12 707.701 1678.73 706.988 1680.4C676.531 1706.27 621.151 1769.03 620.08 1770.28L619.188 1769.51L618.296 1768.73C618.474 1768.55 618.772 1768.14 619.367 1767.54C619.605 1767.3 619.842 1767.01 620.14 1766.65C630.609 1754.81 682.063 1697.23 709.129 1675.52Z" fill="#7F5E9A"/>
<path d="M648.633 1450.6C648.395 1449.89 621.389 1378.57 614.964 1363.82L617.165 1362.86C623.649 1377.68 649.347 1445.85 649.584 1446.56L648.633 1450.6Z" fill="#7F5E9A"/>
<path d="M668.381 1941.06C668.381 1941.06 561.428 1806.39 615.024 1646.19C645.539 1553.34 721.679 1525.56 757.311 1517.05C810.966 1504.26 892.817 1482.13 902.334 1485.7C911.852 1489.27 871.521 1578.5 862.182 1612.88C852.129 1649.88 863.253 1683.55 851.237 1723.76C839.221 1763.97 771.884 1817.81 740.06 1846.72C708.176 1875.63 668.381 1941.06 668.381 1941.06Z" fill="url(#paint1_linear)"/>
<path d="M670.523 1940.94L666.24 1941.18C666.181 1939.46 657.972 1769.03 700.563 1681.35C742.678 1594.74 806.267 1554.71 806.921 1554.35L809.182 1558.04C808.527 1558.39 746.009 1597.83 704.429 1683.25C662.314 1769.92 670.463 1939.28 670.523 1940.94Z" fill="white"/>
<path d="M673.139 1808.23L669.987 1805.26C671.533 1803.65 708.176 1765.28 752.908 1755.53L753.801 1759.75C710.436 1769.27 673.496 1807.88 673.139 1808.23Z" fill="white"/>
<path d="M693.84 1707.34L690.925 1704.19C692.472 1702.76 728.877 1669.57 770.813 1665.59L771.229 1669.87C730.72 1673.68 694.197 1706.99 693.84 1707.34Z" fill="white"/>
<path d="M816.557 1603.48C781.759 1597.06 744.462 1619.9 744.105 1620.14L741.845 1616.45C743.391 1615.44 780.926 1592.48 817.39 1599.2L816.557 1603.48Z" fill="white"/>
<path d="M670.166 1805.61C668.679 1804.19 633.047 1769.92 626.028 1749.16L630.133 1747.8C636.855 1767.6 672.783 1802.16 673.2 1802.52L670.166 1805.61Z" fill="white"/>
<path d="M690.985 1704.67C689.855 1703.06 663.206 1664.69 660.113 1636.14L664.395 1635.67C667.429 1663.15 694.257 1701.75 694.554 1702.17L690.985 1704.67Z" fill="white"/>
<path d="M744.699 1616.87L740.774 1618.59C740.595 1618.24 727.509 1578.26 734.349 1556.19L738.454 1557.44C732.505 1576.72 743.331 1613.54 744.699 1616.87Z" fill="white"/>
<path d="M655.592 1975.86C655.592 1975.86 750.351 1797.88 654.521 1624.48C599.617 1523.89 505.929 1508.01 463.04 1505.75C398.499 1502.36 299.339 1494.27 289.167 1500.39C278.935 1506.52 344.428 1600.81 362.511 1638.52C381.963 1679.09 376.252 1720.25 398.678 1764.03C421.104 1807.87 510.212 1855.64 553.04 1882.23C595.81 1908.82 655.592 1975.86 655.592 1975.86Z" fill="#C4D8F2"/>
<path d="M653.094 1976.22L658.09 1975.56C657.852 1973.6 631.084 1775.28 563.331 1683.25C496.352 1592.3 414.56 1559.64 413.728 1559.35L411.884 1564.04C412.716 1564.34 493.199 1596.52 559.227 1686.23C626.266 1777.24 652.796 1974.25 653.094 1976.22Z" fill="white"/>
<path d="M621.923 1823.76L624.898 1819.65C622.756 1818.11 572.373 1781.7 518.718 1779.92L518.539 1784.97C570.648 1786.7 621.388 1823.34 621.923 1823.76Z" fill="white"/>
<path d="M576.595 1711.75L579.272 1707.46C577.19 1706.15 528.175 1675.58 478.981 1679.86L479.398 1684.92C526.985 1680.81 576.119 1711.45 576.595 1711.75Z" fill="white"/>
<path d="M413.013 1618.06C451.738 1603.25 499.623 1621.69 500.158 1621.86L502.002 1617.17C499.98 1616.33 451.797 1597.83 411.229 1613.3L413.013 1618.06Z" fill="white"/>
<path d="M624.778 1820.07C626.206 1818.11 659.993 1771.05 663.681 1745.59L658.685 1744.88C655.175 1769.15 621.031 1816.68 620.674 1817.15L624.778 1820.07Z" fill="white"/>
<path d="M579.332 1708.12C580.284 1706.04 602.888 1656.13 600.39 1622.58L595.333 1622.93C597.713 1655.23 574.93 1705.5 574.692 1706.04L579.332 1708.12Z" fill="white"/>
<path d="M498.79 1618.18L503.727 1619.37C503.846 1618.95 510.449 1569.99 497.898 1546.08L493.437 1548.4C504.322 1569.34 499.623 1614.07 498.79 1618.18Z" fill="white"/>
<path d="M1532.93 1653.93L1531.27 1652.68C1531.27 1652.68 1530.37 1652.02 1528.77 1650.77L1528.47 1650.65L1528.29 1650.3C1518.06 1642.45 1438.89 1580.1 1372.38 1491.41L1372.2 1491.17C1370.48 1488.85 1368.69 1486.53 1367.03 1484.16C1326.28 1428.3 1299.1 1373.33 1286.37 1320.75C1286.19 1319.92 1285.95 1319.08 1285.83 1318.25V1318.19C1285.42 1316.64 1285.06 1315.04 1284.76 1313.43C1275.24 1269.83 1274.17 1220.58 1281.49 1167.16L1281.55 1166.74C1281.67 1165.85 1281.79 1165.02 1281.91 1164.18L1282.08 1162.88C1287.02 1129.09 1295.29 1093.52 1306.71 1057.23C1306.89 1056.58 1307.13 1055.92 1307.31 1055.33C1328.24 989.298 1353.17 940.401 1360.31 926.957C1361.26 925.232 1361.73 924.34 1361.73 924.34L1362.33 923.269L1363.94 923.745L1364.23 924.161C1364.35 924.28 1364.77 924.756 1365.48 925.47L1365.96 926.005C1376.19 936.713 1412.77 975.735 1453.28 1029.93L1453.34 1030.05C1453.64 1030.46 1453.94 1030.82 1454.23 1031.23L1454.41 1031.53C1511.99 1108.63 1550.48 1179.59 1568.56 1242.23C1581.29 1286.13 1585.22 1342.28 1580.22 1409.03L1580.16 1409.86C1580.04 1411.94 1579.86 1413.96 1579.69 1416.04V1416.46C1570.41 1526.81 1540.37 1629.77 1534.42 1649.29L1532.93 1653.93ZM1530.67 1648.57C1530.91 1648.75 1531.15 1648.93 1531.32 1649.11L1531.5 1648.57C1537.39 1629.12 1567.31 1526.63 1576.59 1416.7V1416.28C1576.77 1413.84 1577.01 1411.4 1577.13 1409.03L1577.25 1408.13C1582.12 1342.05 1578.2 1286.55 1565.65 1243.12C1547.62 1180.78 1509.32 1110.11 1451.79 1033.08L1451.62 1032.84C1451.38 1032.54 1451.08 1032.13 1450.78 1031.77L1450.6 1031.47C1410.33 977.639 1373.87 938.676 1363.64 928.028L1363.16 927.552C1363.16 927.552 1363.16 927.552 1363.1 927.493C1362.98 927.731 1362.81 927.969 1362.69 928.266C1355.55 941.65 1330.74 990.369 1309.92 1056.16C1309.69 1056.75 1309.51 1057.41 1309.33 1058C1297.97 1094.17 1289.7 1129.62 1284.82 1163.23L1284.64 1164.54C1284.52 1165.25 1284.4 1165.97 1284.34 1166.68L1284.29 1167.1C1276.91 1220.34 1277.98 1269.35 1287.44 1312.78C1287.79 1314.32 1288.09 1315.87 1288.51 1317.42C1288.69 1318.37 1288.87 1319.2 1289.1 1319.98C1301.77 1372.2 1328.78 1426.81 1369.35 1482.43C1371.01 1484.81 1372.8 1487.07 1374.52 1489.39L1374.7 1489.63C1441.56 1578.86 1521.27 1641.26 1530.31 1648.16L1530.67 1648.57Z" fill="#7F5E9A"/>
<path d="M1533.7 1650.83L1530.55 1652.14C1529.6 1649.88 1436.39 1425.86 1406.05 1242.53C1375.71 1059.31 1361.32 926.6 1361.14 925.292L1364.47 924.816C1364.59 926.124 1378.98 1058.78 1409.32 1241.87C1439.72 1424.91 1532.75 1648.63 1533.7 1650.83Z" fill="#7F5E9A"/>
<path d="M1394.99 1152.7L1391.83 1151.57C1393.44 1147.59 1431.93 1054.2 1450.66 1029.87L1453.34 1031.77C1434.9 1055.74 1395.34 1151.75 1394.99 1152.7Z" fill="#7F5E9A"/>
<path d="M1420.62 1302.31L1417.47 1301.18C1419.97 1295.11 1478.68 1152.53 1507.17 1115.53L1509.85 1117.43C1481.6 1154.07 1421.22 1300.82 1420.62 1302.31Z" fill="#7F5E9A"/>
<path d="M1420.33 1300.58L1419.02 1301.71L1417.77 1302.79L1417.71 1302.84C1416.76 1301.71 1325.75 1199.7 1282.8 1167.04C1282.8 1166.98 1282.8 1167.04 1282.8 1167.04C1282.98 1165.73 1283.16 1164.48 1283.39 1163.23C1321.23 1191.31 1397.78 1275.6 1416.34 1296.24C1417.23 1297.19 1417.95 1298.03 1418.54 1298.68C1419.49 1299.63 1420.09 1300.35 1420.33 1300.58Z" fill="#7F5E9A"/>
<path d="M1458.46 1441.62L1457.39 1442.87L1456.26 1444.18C1456.2 1444.18 1456.14 1444.12 1455.96 1443.94C1450.13 1439.18 1353.76 1361.62 1287.14 1317.83C1286.72 1316.29 1286.37 1314.74 1286.07 1313.14C1346.8 1352.63 1434.07 1421.99 1454.23 1438.17C1455.18 1438.95 1456.02 1439.6 1456.67 1440.14C1457.74 1441.09 1458.4 1441.56 1458.46 1441.62Z" fill="#7F5E9A"/>
<path d="M1503.61 1572.97L1503.55 1573.09L1502.59 1574.33L1501.58 1575.7C1501.52 1575.64 1501.17 1575.4 1500.63 1574.99C1492.18 1569.1 1431.75 1527.04 1373.51 1490.58C1371.73 1488.2 1369.88 1485.82 1368.16 1483.38C1422.88 1517.23 1481.42 1557.62 1498.61 1569.52C1499.98 1570.47 1501.05 1571.18 1501.88 1571.78C1502.71 1572.37 1503.25 1572.73 1503.49 1572.91C1503.55 1572.97 1503.61 1572.97 1503.61 1572.97Z" fill="#7F5E9A"/>
<path d="M1458.93 1443.47L1455.78 1442.34C1456.49 1440.61 1526.57 1270.36 1559.58 1227.59L1562.26 1229.5C1529.54 1271.91 1459.65 1441.74 1458.93 1443.47Z" fill="#7F5E9A"/>
<path d="M1578.67 1409.14C1578.56 1411.52 1578.32 1413.96 1578.14 1416.4C1549.59 1464.7 1505.09 1572.67 1504.26 1574.81C1504.26 1574.87 1504.26 1574.87 1504.26 1574.87L1502.65 1574.33L1501.05 1573.8C1501.17 1573.5 1501.46 1572.85 1501.88 1571.78C1502.06 1571.36 1502.24 1570.82 1502.47 1570.29C1510.98 1549.83 1552.68 1450.43 1578.67 1409.14Z" fill="#7F5E9A"/>
<path d="M1392.79 1151.28C1392.13 1150.5 1322.77 1072.64 1307.31 1056.99L1309.8 1054.67C1325.33 1070.38 1391.54 1144.85 1392.19 1145.63L1392.79 1151.28Z" fill="#7F5E9A"/>
<path d="M1811.32 1040.1C1813.88 1050.92 1815.84 1062.35 1814.71 1075.37C1814.65 1076.27 1814.59 1077.16 1814.47 1078.05C1814.11 1081.08 1813.58 1084.24 1812.87 1087.45C1803.05 1130.81 1788 1142.06 1770.33 1182.45C1768.97 1185.66 1767.78 1188.75 1766.82 1191.67C1766.47 1192.74 1766.17 1193.81 1765.87 1194.82C1761.77 1209.93 1762.96 1222.3 1764.56 1234.67C1764.68 1235.51 1764.74 1236.28 1764.86 1237.05C1766.59 1250.68 1768.37 1264.36 1763.43 1281.61C1752.55 1319.62 1719.36 1351.32 1705.14 1373.93C1703.06 1377.26 1701.63 1380.53 1700.62 1383.92C1700.32 1384.99 1700.02 1386 1699.79 1387.08C1695.68 1405.75 1702.64 1426.69 1683.55 1461.19C1659.93 1503.96 1625.25 1535.61 1584.98 1577.67C1544.71 1619.72 1545.3 1667.49 1545.3 1667.49C1545.3 1667.49 1543.64 1666.36 1540.78 1664.28C1540.37 1663.98 1539.95 1663.68 1539.47 1663.32C1529.06 1655.53 1506.58 1637.03 1488.02 1610.68C1468.15 1582.42 1473.45 1533.53 1478.98 1503.43C1479.22 1502.18 1479.4 1501.05 1479.63 1499.86C1480.82 1493.61 1481.95 1488.32 1482.84 1484.45C1487.78 1462.15 1462.38 1405.34 1470.77 1363.94C1471.96 1358.05 1473.68 1352.22 1475.77 1346.39C1476.18 1345.26 1476.6 1344.19 1477.02 1343.12C1486.35 1319.08 1501.64 1296.36 1511.58 1278.93C1512.11 1278.04 1512.59 1277.15 1513.06 1276.25C1516.39 1270.25 1518.95 1264.95 1520.26 1260.61C1526.45 1239.67 1508.78 1187.21 1518.24 1153.12C1520.2 1145.92 1523.41 1139.02 1527.4 1132.3C1527.93 1131.41 1528.47 1130.52 1529.06 1129.56C1543.94 1105.53 1567.49 1084.53 1576.35 1066.57C1581.11 1056.93 1582.07 1041.7 1582.9 1024.04C1582.9 1024.04 1582.9 1024.04 1582.9 1023.98C1583.08 1020.17 1583.26 1016.24 1583.49 1012.2C1584.62 989.358 1586.65 963.839 1596.28 941.591C1606.51 917.916 1630.6 897.869 1652.91 883.236C1653.68 882.76 1654.4 882.225 1655.17 881.749C1667.13 874.016 1678.37 867.889 1686.52 863.665C1687.29 863.249 1688.07 862.833 1688.84 862.476C1692.23 860.691 1694.91 859.323 1696.69 858.371C1710.25 850.995 1725.01 815.839 1747.02 798.172C1763.61 784.907 1800.25 777.769 1817.27 775.033C1818.4 774.854 1819.47 774.676 1820.42 774.557C1824.11 773.962 1826.31 773.724 1826.31 773.724C1826.31 773.724 1811.56 808.88 1806.38 836.54C1801.21 864.201 1823.04 881.035 1821.91 910.183C1821.67 916.012 1821.37 920.89 1820.9 925.173C1820.84 926.125 1820.72 927.017 1820.6 927.909C1818.75 943.197 1815.01 952.477 1806.74 981.089C1800.67 1002.21 1806.26 1019.28 1810.72 1037.78C1810.96 1038.49 1811.14 1039.27 1811.32 1040.1Z" fill="#C4D8F2"/>
<path d="M1539.71 1664.46C1539.47 1663.32 1518.48 1549.17 1627.51 1177.33C1682.83 988.763 1732.09 889.065 1763.61 838.622C1797.94 783.777 1818.99 773.842 1819.83 773.426L1820.78 775.508C1820.54 775.627 1799.24 785.799 1765.22 840.347C1733.81 890.671 1684.8 990.071 1629.71 1177.93C1520.92 1548.99 1541.73 1662.85 1541.97 1663.98L1539.71 1664.46Z" fill="white"/>
<path d="M1675.52 1036.41L1673.85 1034.86C1674.39 1034.27 1731.19 972.404 1824.58 923.15L1825.65 925.172C1732.68 974.188 1676.11 1035.76 1675.52 1036.41Z" fill="white"/>
<path d="M1676.53 1032.84L1675.28 1033.26L1674.33 1033.55C1674.33 1033.55 1674.33 1033.5 1674.27 1033.38C1673.08 1029.63 1654.52 968.121 1652.85 883.176C1653.63 882.7 1654.34 882.165 1655.11 881.689C1656.42 958.306 1671.65 1016.07 1675.58 1029.75C1675.87 1030.82 1676.11 1031.65 1676.29 1032.19C1676.47 1032.6 1676.53 1032.84 1676.53 1032.84Z" fill="white"/>
<path d="M1700.5 971.095L1698.3 971.631C1698.3 971.631 1698.24 971.512 1698.24 971.274C1697.23 966.991 1687.71 924.697 1686.52 863.605C1687.29 863.189 1688.07 862.773 1688.84 862.416C1689.79 916.428 1697.29 955.986 1699.78 967.586C1700.2 969.787 1700.5 971.036 1700.5 971.095Z" fill="white"/>
<path d="M1629.83 1176.14L1628.94 1176.56L1627.75 1177.15C1627.75 1177.15 1627.69 1177.03 1627.63 1176.91C1625.73 1172.93 1596.7 1111.48 1582.9 1023.92C1582.9 1023.92 1582.9 1023.92 1582.9 1023.86C1583.08 1020.05 1583.25 1016.13 1583.49 1012.08C1595.33 1097.56 1622.57 1160.44 1628.64 1173.52C1628.88 1174 1629.06 1174.42 1629.24 1174.71C1629.59 1175.67 1629.83 1176.08 1629.83 1176.14Z" fill="white"/>
<path d="M1597.29 1292.55L1595.39 1293.8C1595.39 1293.8 1595.39 1293.8 1595.33 1293.74C1593.72 1291.19 1553.21 1227.18 1527.46 1132.24C1527.99 1131.35 1528.53 1130.46 1529.12 1129.51C1552.68 1217.6 1589.2 1279.41 1596.16 1290.71C1596.82 1291.9 1597.23 1292.49 1597.29 1292.55Z" fill="white"/>
<path d="M1570.7 1403.67L1568.86 1404.86L1568.74 1404.92C1568.32 1404.33 1536.92 1355.25 1511.58 1278.87C1512.11 1277.98 1512.59 1277.09 1513.06 1276.2C1535.73 1345.08 1563.51 1392.07 1569.51 1401.77C1570.29 1402.96 1570.7 1403.61 1570.7 1403.67Z" fill="white"/>
<path d="M1554.17 1490.58L1552.32 1491.95C1552.32 1491.95 1552.26 1491.89 1552.2 1491.77C1549.41 1488.08 1508.01 1432.05 1475.77 1346.39C1476.18 1345.26 1476.6 1344.19 1477.02 1343.12C1506.76 1423.36 1544.89 1477.97 1552.74 1488.68C1553.63 1489.87 1554.17 1490.52 1554.17 1490.58Z" fill="white"/>
<path d="M1541.38 1592.54L1539.65 1594.02C1539.65 1594.02 1539.59 1593.97 1539.47 1593.85C1537.27 1591.29 1509.14 1557.98 1478.98 1503.37C1479.22 1502.12 1479.4 1500.99 1479.63 1499.8C1507.06 1549.89 1533.05 1582.48 1539.71 1590.57C1540.78 1591.82 1541.32 1592.48 1541.38 1592.54Z" fill="white"/>
<path d="M1811.32 1040.1C1698.54 1102.68 1630.6 1176.68 1629.89 1177.45L1628.94 1176.62L1628.17 1175.9C1628.23 1175.84 1628.52 1175.49 1629.18 1174.83C1629.65 1174.3 1630.43 1173.52 1631.32 1172.57C1645.95 1157.4 1710.91 1093.04 1810.78 1037.72C1810.96 1038.49 1811.14 1039.27 1811.32 1040.1Z" fill="white"/>
<path d="M1616.33 1225.1L1614.66 1223.55C1615.38 1222.72 1694.55 1138.61 1816.61 1074.3L1815.9 1077.22C1704.25 1135.81 1617.04 1224.32 1616.33 1225.1Z" fill="white"/>
<path d="M1766.82 1191.67C1766.47 1192.74 1766.17 1193.81 1765.87 1194.82C1655.65 1256.86 1589.38 1329.02 1588.73 1329.79L1588.61 1329.67L1587 1328.24C1587.06 1328.19 1587.95 1327.17 1589.62 1325.45C1603.06 1311.53 1667.31 1247.29 1766.82 1191.67Z" fill="white"/>
<path d="M1764.86 1236.99C1648.63 1300.23 1578.32 1376.78 1577.66 1377.56L1577.37 1377.26L1576 1376.01C1576.06 1375.95 1576.83 1375.12 1578.2 1373.69C1590.99 1360.31 1658.98 1291.9 1764.62 1234.56C1764.68 1235.45 1764.74 1236.22 1764.86 1236.99Z" fill="white"/>
<path d="M1700.62 1383.86C1700.32 1384.93 1700.02 1385.95 1699.79 1387.02C1608.3 1443.88 1553.99 1502.66 1552.5 1504.32L1550.78 1502.77C1550.84 1502.72 1551.67 1501.82 1553.16 1500.28C1564.58 1488.38 1617.58 1435.14 1700.62 1383.86Z" fill="white"/>
<path d="M1554.58 1927.98C1554.58 1927.98 1407.3 1703.54 1513.3 1462.15C1573.8 1322.18 1696.1 1289.7 1752.67 1281.49C1837.85 1269.12 1968.18 1246.33 1982.52 1253.23C1996.79 1260.13 1921.48 1393.08 1902.09 1445.25C1881.27 1501.35 1893.82 1555.24 1869.43 1616.03C1845.05 1676.83 1732.8 1751.01 1679.26 1791.46C1625.67 1831.85 1554.58 1927.98 1554.58 1927.98Z" fill="url(#paint2_linear)"/>
<path d="M1557.97 1928.09L1551.25 1927.86C1551.37 1925.18 1562.67 1659.1 1641.31 1528.83C1719 1400.1 1823.51 1346.92 1824.52 1346.39L1827.56 1352.4C1826.55 1352.93 1723.7 1405.34 1647.08 1532.28C1569.28 1661.12 1558.09 1925.42 1557.97 1928.09Z" fill="white"/>
<path d="M1580.7 1722.22L1576.24 1717.16C1578.85 1714.84 1641.25 1660.47 1712.1 1651.61L1712.93 1658.27C1644.17 1666.83 1581.35 1721.62 1580.7 1722.22Z" fill="white"/>
<path d="M1627.15 1568.27L1623.05 1562.91C1625.67 1560.95 1686.94 1514.43 1752.67 1514.14L1752.73 1520.86C1689.2 1521.21 1627.75 1567.79 1627.15 1568.27Z" fill="white"/>
<path d="M1832.55 1424.14C1779.38 1409.2 1718.17 1439.48 1717.57 1439.78L1714.54 1433.77C1717.09 1432.46 1778.72 1402.01 1834.4 1417.65L1832.55 1424.14Z" fill="white"/>
<path d="M1576.41 1717.7C1574.27 1715.26 1523.77 1657.02 1515.8 1623.71L1522.34 1622.16C1529.96 1653.87 1580.99 1712.7 1581.53 1713.29L1576.41 1717.7Z" fill="white"/>
<path d="M1623.11 1563.75C1621.56 1561.07 1585.57 1497.72 1584.74 1452.93L1591.46 1452.81C1592.24 1495.93 1628.58 1559.76 1628.94 1560.42L1623.11 1563.75Z" fill="white"/>
<path d="M1718.94 1434.78L1712.57 1436.92C1712.4 1436.39 1697.7 1372.32 1711.38 1339.07L1717.63 1341.63C1705.61 1370.72 1717.27 1429.43 1718.94 1434.78Z" fill="white"/>
<path d="M1550.06 1967.47C1550.06 1967.47 1662.19 1796.27 1581.23 1612.23C1535.01 1505.51 1441.74 1480.82 1398.61 1474.64C1333.66 1465.3 1234.26 1447.99 1223.31 1453.28C1212.43 1458.58 1269.95 1559.88 1284.76 1599.62C1300.7 1642.39 1291.13 1683.49 1309.8 1729.83C1328.42 1776.17 1414.08 1832.68 1454.95 1863.43C1495.81 1894.25 1550.06 1967.47 1550.06 1967.47Z" fill="url(#paint3_linear)"/>
<path d="M1547.5 1967.59L1552.62 1967.41C1552.56 1965.39 1543.7 1762.49 1483.68 1663.21C1424.31 1565.11 1344.6 1524.61 1343.83 1524.25L1341.57 1528.83C1342.34 1529.25 1420.8 1569.1 1479.33 1665.88C1538.64 1764.03 1547.39 1965.57 1547.5 1967.59Z" fill="white"/>
<path d="M1530.02 1810.61L1533.41 1806.74C1531.38 1804.96 1483.8 1763.56 1429.72 1756.84L1429.07 1761.95C1481.54 1768.44 1529.54 1810.19 1530.02 1810.61Z" fill="white"/>
<path d="M1494.44 1693.25L1497.6 1689.2C1495.63 1687.71 1448.88 1652.32 1398.73 1652.14V1657.26C1447.15 1657.44 1494.03 1692.89 1494.44 1693.25Z" fill="white"/>
<path d="M1337.7 1583.56C1378.21 1572.13 1424.91 1595.21 1425.38 1595.45L1427.7 1590.87C1425.74 1589.86 1378.75 1566.72 1336.33 1578.68L1337.7 1583.56Z" fill="white"/>
<path d="M1533.23 1807.16C1534.83 1805.26 1573.32 1760.88 1579.39 1735.42L1574.39 1734.23C1568.56 1758.44 1529.72 1803.35 1529.36 1803.77L1533.23 1807.16Z" fill="white"/>
<path d="M1497.54 1689.8C1498.73 1687.77 1526.09 1639.41 1526.68 1605.27L1521.57 1605.21C1520.97 1638.1 1493.37 1686.76 1493.08 1687.3L1497.54 1689.8Z" fill="white"/>
<path d="M1424.37 1591.59L1429.25 1593.25C1429.37 1592.84 1440.55 1544 1430.08 1518.6L1425.32 1520.56C1434.48 1542.69 1425.62 1587.48 1424.37 1591.59Z" fill="white"/>
<path d="M977.642 133.901L980.735 132.057C980.973 131.938 1003.93 118.137 1018.15 101.601C1020.17 99.2806 1022.32 96.5441 1024.63 93.6293C1038.85 75.9028 1060.27 49.075 1092.45 49.4319C1092.8 49.4319 1093.22 49.4319 1093.58 49.4319C1111.54 49.9673 1122.07 56.8676 1132.24 63.4704C1141.64 69.5974 1150.5 75.427 1164.72 75.546C1167.34 75.546 1170.19 75.427 1173.05 75.0107C1188.75 72.9882 1201.96 58.4737 1216 43.0671C1234.68 22.5447 1255.91 -0.773431 1288.21 0.416272C1331.4 2.02237 1350.97 26.8872 1373.57 55.7374C1380.59 64.7197 1387.91 73.9993 1396.35 83.279C1431.87 122.123 1447.87 130.094 1447.99 130.153L1451.79 131.997H1447.39L977.642 133.901ZM1092.45 51.4545C1061.52 51.1571 1040.46 77.39 1026.54 94.8191C1024.22 97.7339 1022.02 100.47 1020 102.85C1008.57 116.115 991.681 127.595 984.959 131.938L1443.82 130.153C1437.58 126.108 1421.93 114.449 1394.63 84.5877C1386.12 75.2485 1378.81 65.9689 1371.73 56.9271C1348.53 27.363 1330.15 4.04481 1288.15 2.4982C1257.1 1.30849 1236.22 24.2698 1217.9 44.4352C1203.56 60.1393 1190.06 75.0106 1173.47 77.152C1170.43 77.5089 1167.52 77.7469 1164.78 77.6874C1149.85 77.5089 1140.69 71.5605 1130.93 65.1956C1121.06 58.7712 1110.83 52.0493 1093.58 51.5734C1093.16 51.4544 1092.8 51.4545 1092.45 51.4545Z" fill="url(#paint4_linear)"/>
<path d="M529.961 501.876L531.507 500.805C531.626 500.746 543.107 492.596 550.185 482.841C551.197 481.473 552.267 479.866 553.457 478.141C560.536 467.672 571.243 451.908 587.304 452.087C587.482 452.087 587.661 452.087 587.899 452.087C596.881 452.384 602.116 456.429 607.172 460.296C611.871 463.924 616.273 467.315 623.352 467.375C624.66 467.375 626.088 467.256 627.515 467.077C635.308 465.887 641.97 457.322 648.93 448.22C658.269 436.145 668.857 422.404 684.978 423.058C706.511 423.95 716.207 438.584 727.509 455.537C731.019 460.831 734.647 466.244 738.871 471.717C756.538 494.5 764.509 499.199 764.568 499.259L766.472 500.329H764.271L529.961 501.876ZM587.244 453.277C571.838 453.098 561.309 468.624 554.349 478.855C553.16 480.58 552.089 482.186 551.078 483.555C545.367 491.347 536.92 498.129 533.589 500.686L762.308 499.199C759.214 496.82 751.422 489.979 737.8 472.431C733.577 466.958 729.948 461.486 726.379 456.191C714.839 438.822 705.738 425.14 684.799 424.248C669.333 423.593 658.923 437.097 649.763 448.994C642.625 458.273 635.843 467.018 627.575 468.267C626.088 468.505 624.601 468.624 623.233 468.564C615.797 468.505 611.217 464.995 606.398 461.248C601.461 457.441 596.405 453.574 587.78 453.277C587.601 453.277 587.423 453.277 587.244 453.277Z" fill="#BAC1E3"/>
<path d="M345.082 291.775C345.082 291.775 356.86 279.581 367.567 263.877C378.394 248.054 387.019 238.179 402.842 238.179C418.665 238.179 421.936 255.787 437.819 249.719C447.634 245.972 458.876 179.348 500.635 179.348C542.393 179.348 557.561 232.706 578.44 240.023C599.32 247.28 606.517 216.586 633.166 221.404C659.815 226.282 691.164 286.897 691.164 286.897L345.082 291.775Z" fill="url(#paint5_linear)"/>
<path d="M1573.26 357.209C1573.26 357.209 1564.75 346.918 1557.02 333.712C1549.23 320.387 1542.98 312.059 1531.56 312.059C1520.14 312.059 1517.76 326.931 1506.34 321.815C1499.26 318.662 1491.17 262.508 1461.01 262.508C1430.91 262.508 1419.97 307.479 1404.92 313.665C1389.87 319.792 1384.64 293.916 1365.42 297.961C1346.21 302.066 1323.6 353.163 1323.6 353.163L1573.26 357.209Z" fill="url(#paint6_linear)"/>
<path d="M1119.39 1987.58H781.045V1992.64H1119.39V1987.58Z" fill="#BAC1E3"/>
<path d="M1837.14 1987.58H1272.03V1992.64H1837.14V1987.58Z" fill="#BAC1E3"/>
<path d="M1232.06 2034.39H369.591V2039.45H1232.06V2034.39Z" fill="#BAC1E3"/>
<path d="M1582.72 2034.39H1342.82V2039.45H1582.72V2034.39Z" fill="#BAC1E3"/>
<path d="M1454.59 542.446C1454.59 553.094 1446.92 561.719 1437.4 561.719C1427.94 561.719 1420.21 553.094 1420.21 542.446C1420.21 531.798 1427.88 523.173 1437.4 523.173C1446.92 523.173 1454.59 531.798 1454.59 542.446Z" fill="white"/>
<path d="M1744.34 718.581C1744.34 729.229 1736.67 737.854 1727.15 737.854C1717.69 737.854 1709.96 729.229 1709.96 718.581C1709.96 707.933 1717.63 699.308 1727.15 699.308C1736.67 699.308 1744.34 707.933 1744.34 718.581Z" fill="white"/>
<path d="M1488.79 695.382C1488.79 700.616 1484.99 704.84 1480.35 704.84C1475.71 704.84 1471.9 700.616 1471.9 695.382C1471.9 690.147 1475.71 685.924 1480.35 685.924C1485.05 685.924 1488.79 690.147 1488.79 695.382Z" fill="white"/>
<path d="M1176.8 1272.63C1176.8 1282.98 1169.3 1291.3 1160.14 1291.3C1150.98 1291.3 1143.48 1282.92 1143.48 1272.63C1143.48 1262.28 1150.98 1253.89 1160.14 1253.89C1169.3 1253.89 1176.8 1262.28 1176.8 1272.63Z" fill="white"/>
<path d="M600.747 708.35C600.747 718.819 593.193 727.325 583.854 727.325C574.515 727.325 566.96 718.819 566.96 708.35C566.96 697.88 574.515 689.374 583.854 689.374C593.193 689.434 600.747 697.88 600.747 708.35Z" fill="white"/>
<path d="M641.375 631.019C641.375 636.848 637.151 641.607 631.917 641.607C626.682 641.607 622.458 636.848 622.458 631.019C622.458 625.189 626.682 620.43 631.917 620.43C637.151 620.43 641.375 625.13 641.375 631.019Z" fill="white"/>
<path d="M724.654 940.699C724.654 945.22 721.383 948.849 717.338 948.849C713.293 948.849 710.021 945.161 710.021 940.699C710.021 936.178 713.293 932.55 717.338 932.55C721.442 932.49 724.654 936.178 724.654 940.699Z" fill="white"/>
<path d="M469.286 975.26C469.286 979.781 466.014 983.409 461.969 983.409C457.924 983.409 454.653 979.721 454.653 975.26C454.653 970.739 457.924 967.11 461.969 967.11C466.014 967.11 469.286 970.739 469.286 975.26Z" fill="white"/>
<path d="M383.926 1266.08C383.926 1270.6 380.655 1274.23 376.61 1274.23C372.565 1274.23 369.293 1270.54 369.293 1266.08C369.293 1261.56 372.565 1257.93 376.61 1257.93C380.655 1257.87 383.926 1261.56 383.926 1266.08Z" fill="white"/>
<path d="M1226.94 419.251C1226.94 423.356 1223.97 426.687 1220.34 426.687C1216.71 426.687 1213.74 423.356 1213.74 419.251C1213.74 415.147 1216.71 411.815 1220.34 411.815C1223.97 411.815 1226.94 415.147 1226.94 419.251Z" fill="white"/>
<path d="M734.052 1095.42C737.699 1095.42 740.655 1092.09 740.655 1087.98C740.655 1083.88 737.699 1080.55 734.052 1080.55C730.406 1080.55 727.449 1083.88 727.449 1087.98C727.449 1092.09 730.406 1095.42 734.052 1095.42Z" fill="white"/>
<path d="M555.896 1320.63C555.896 1324.73 552.921 1328.07 549.293 1328.07C545.664 1328.07 542.69 1324.73 542.69 1320.63C542.69 1316.53 545.664 1313.19 549.293 1313.19C552.921 1313.19 555.896 1316.53 555.896 1320.63Z" fill="white"/>
<path d="M1171.2 1379.22C1171.2 1383.33 1168.23 1386.66 1164.6 1386.66C1160.97 1386.66 1158 1383.33 1158 1379.22C1158 1375.12 1160.97 1371.79 1164.6 1371.79C1168.23 1371.85 1171.2 1375.12 1171.2 1379.22Z" fill="white"/>
<path d="M1350.61 1698.42C1350.61 1700.86 1348.89 1702.82 1346.68 1702.82C1344.54 1702.82 1342.76 1700.86 1342.76 1698.42C1342.76 1695.98 1344.48 1694.02 1346.68 1694.02C1348.89 1694.08 1350.61 1696.04 1350.61 1698.42Z" fill="white"/>
<path d="M1208.92 1752.67C1208.92 1756.36 1206.24 1759.33 1202.97 1759.33C1199.7 1759.33 1197.02 1756.36 1197.02 1752.67C1197.02 1748.98 1199.7 1746.01 1202.97 1746.01C1206.24 1746.01 1208.92 1748.98 1208.92 1752.67Z" fill="white"/>
<path d="M1280.24 924.579C1280.24 928.683 1277.27 932.014 1273.64 932.014C1270.01 932.014 1267.03 928.683 1267.03 924.579C1267.03 920.474 1270.01 917.143 1273.64 917.143C1277.33 917.143 1280.24 920.474 1280.24 924.579Z" fill="white"/>
<path d="M732.624 331.808C732.624 335.912 729.65 339.244 726.021 339.244C722.393 339.244 719.419 335.912 719.419 331.808C719.419 327.703 722.393 324.372 726.021 324.372C729.65 324.372 732.624 327.703 732.624 331.808Z" fill="white"/>
<path d="M269.596 1213.08C269.596 1219.8 264.718 1225.28 258.71 1225.28C252.702 1225.28 247.824 1219.8 247.824 1213.08C247.824 1206.36 252.702 1200.89 258.71 1200.89C264.718 1200.89 269.596 1206.36 269.596 1213.08Z" fill="white"/>
<path d="M233.549 1388.09C233.549 1401.77 223.615 1412.89 211.421 1412.89C199.226 1412.89 189.292 1401.77 189.292 1388.09C189.292 1374.4 199.226 1363.28 211.421 1363.28C223.615 1363.22 233.549 1374.35 233.549 1388.09Z" fill="#9BB7E1"/>
<path d="M158.36 1439.42C158.36 1446.26 153.125 1451.8 146.701 1451.8C140.276 1451.8 135.042 1446.26 135.042 1439.42C135.042 1432.58 140.276 1427.05 146.701 1427.05C153.125 1426.99 158.36 1432.58 158.36 1439.42Z" fill="#9BB7E1"/>
<path d="M135.042 1312.36C141.481 1312.36 146.701 1306.82 146.701 1299.99C146.701 1293.16 141.481 1287.62 135.042 1287.62C128.603 1287.62 123.383 1293.16 123.383 1299.99C123.383 1306.82 128.603 1312.36 135.042 1312.36Z" fill="#9BB7E1"/>
<path d="M1883.53 1219.09C1883.53 1230.15 1875.5 1239.14 1865.63 1239.14C1855.75 1239.14 1847.72 1230.15 1847.72 1219.09C1847.72 1208.03 1855.75 1199.04 1865.63 1199.04C1875.5 1199.04 1883.53 1208.03 1883.53 1219.09Z" fill="#9BB7E1"/>
<path d="M1907.74 1157.76C1907.74 1163.29 1903.52 1167.75 1898.34 1167.75C1893.17 1167.75 1888.94 1163.29 1888.94 1157.76C1888.94 1152.23 1893.17 1147.77 1898.34 1147.77C1903.52 1147.77 1907.74 1152.23 1907.74 1157.76Z" fill="#9BB7E1"/>
<path d="M1941.11 1040.99C1941.11 1044.56 1938.44 1047.42 1935.1 1047.42C1931.77 1047.42 1929.1 1044.56 1929.1 1040.99C1929.1 1037.42 1931.77 1034.57 1935.1 1034.57C1938.38 1034.57 1941.11 1037.42 1941.11 1040.99Z" fill="#9BB7E1"/>
<path d="M1990.43 1196.01C1990.43 1201.54 1986.2 1206 1981.03 1206C1975.85 1206 1971.63 1201.54 1971.63 1196.01C1971.63 1190.48 1975.85 1186.02 1981.03 1186.02C1986.2 1186.02 1990.43 1190.48 1990.43 1196.01Z" fill="#9BB7E1"/>
<path d="M1891.44 812.984C1887.7 824.465 1876.39 831.067 1866.22 827.736C1855.99 824.405 1850.76 812.448 1854.44 800.968C1858.19 789.487 1869.49 782.884 1879.67 786.216C1889.9 789.547 1895.19 801.503 1891.44 812.984Z" fill="#DEE2F3"/>
<path d="M1890.19 906.792C1888.05 913.395 1881.57 917.143 1875.68 915.239C1869.79 913.336 1866.76 906.435 1868.9 899.832C1871.04 893.229 1877.52 889.482 1883.41 891.386C1889.3 893.289 1892.34 900.189 1890.19 906.792Z" fill="#DEE2F3"/>
<path d="M1931.72 864.796C1929.16 872.588 1921.48 877.109 1914.52 874.849C1907.56 872.588 1904 864.439 1906.49 856.646C1909.05 848.854 1916.72 844.333 1923.68 846.593C1930.64 848.794 1934.21 856.944 1931.72 864.796Z" fill="#DEE2F3"/>
<path d="M425.803 716.261C431.752 727.146 428.718 740.233 419.022 745.527C409.326 750.822 396.656 746.301 390.707 735.415C384.759 724.529 387.793 711.442 397.489 706.148C407.185 700.854 419.855 705.375 425.803 716.261Z" fill="#DEE2F3"/>
<path d="M430.503 804.953C435.856 814.768 433.12 826.546 424.376 831.364C415.632 836.123 404.211 832.078 398.857 822.263C393.503 812.448 396.24 800.67 404.984 795.852C413.728 791.033 425.149 795.138 430.503 804.953Z" fill="#DEE2F3"/>
<path d="M343.774 683.722C345.975 687.767 344.845 692.586 341.276 694.549C337.707 696.512 333.007 694.846 330.806 690.801C328.605 686.756 329.736 681.938 333.305 679.975C336.874 678.071 341.573 679.737 343.774 683.722Z" fill="#DEE2F3"/>
<path d="M389.577 775.627C392.848 781.576 391.183 788.714 385.889 791.629C380.595 794.543 373.694 792.045 370.423 786.096C367.151 780.148 368.817 773.009 374.111 770.095C379.405 767.239 386.305 769.678 389.577 775.627Z" fill="#DEE2F3"/>
<path d="M262.696 1043.43C262.696 1045.87 260.912 1047.89 258.711 1047.89C256.51 1047.89 254.726 1045.93 254.726 1043.43C254.726 1040.93 256.51 1038.97 258.711 1038.97C260.912 1039.03 262.696 1040.99 262.696 1043.43Z" fill="white"/>
<path d="M521.989 1225.93C521.989 1228.37 520.204 1230.39 518.003 1230.39C515.803 1230.39 514.018 1228.43 514.018 1225.93C514.018 1223.43 515.803 1221.47 518.003 1221.47C520.264 1221.47 521.989 1223.49 521.989 1225.93Z" fill="white"/>
<path d="M447.396 1173.94C447.396 1176.38 445.612 1178.4 443.411 1178.4C441.21 1178.4 439.425 1176.44 439.425 1173.94C439.425 1171.44 441.21 1169.48 443.411 1169.48C445.612 1169.48 447.396 1171.5 447.396 1173.94Z" fill="white"/>
<path d="M846.419 773.367C838.329 764.622 818.401 756.413 802.817 762.362C782.473 770.154 804.72 774.794 816.736 778.423C826.134 781.278 838.329 786.513 843.563 784.014C849.393 781.278 849.155 776.341 846.419 773.367Z" fill="#7F5E9A"/>
<path d="M849.868 799.718C847.786 797.457 847.727 794.067 849.749 792.223C851.772 790.379 855.103 790.676 857.244 792.996C859.326 795.256 859.386 798.647 857.363 800.491C855.341 802.335 851.95 802.038 849.868 799.718Z" fill="#7F5E9A"/>
<path d="M778.725 762.897C777.119 761.172 777.059 758.554 778.665 757.127C780.212 755.699 782.77 755.937 784.376 757.722C785.982 759.447 786.042 762.064 784.435 763.492C782.889 764.919 780.331 764.681 778.725 762.897Z" fill="#7F5E9A"/>
<path d="M783.96 780.98C783.067 779.969 783.008 778.541 783.9 777.768C784.792 776.935 786.22 777.114 787.112 778.065C788.005 779.077 788.064 780.504 787.172 781.337C786.339 782.11 784.852 781.932 783.96 780.98Z" fill="#7F5E9A"/>
<path d="M1213.26 1943.92C1207.91 1943.92 1058.01 1938.56 1049.98 1930.53C1042.84 1923.45 1052.53 1886.99 1058.24 1861.11C1059.02 1857.72 1059.67 1854.51 1060.21 1851.6C1065.14 1826.2 1030.05 1705.8 1032.49 1652.68C1034.15 1616.09 1048.07 1581.59 1053.07 1541.26C1055.74 1519.85 891.568 1348.11 891.568 1348.11C891.568 1348.11 774.145 1542.15 753.444 1554.23C714.006 1577.31 551.375 1678.97 509.855 1708.41C488.083 1723.88 475.175 1740.3 466.55 1756.36C458.698 1770.81 454.296 1784.91 449.835 1797.64C440.496 1824.41 431.097 1896.69 414.144 1890.44C401.236 1885.68 371.315 1720.49 384.699 1707.05C394.514 1697.23 421.163 1693.19 444.66 1682.78C453.285 1678.97 461.494 1674.33 468.335 1668.2C493.735 1645.42 562.677 1560.06 590.754 1538.64C618.831 1517.23 689.141 1493.32 697.231 1489.27C705.262 1485.29 707.582 1465.83 725.308 1410.51C748.21 1339.19 754.515 1293.39 762.545 1235.86C770.576 1178.34 795.559 1151.51 795.559 1151.51L1013.69 1230.51C1013.69 1230.51 1141.28 1505.33 1142.59 1530.73C1143.9 1556.13 1133.67 1586.95 1125.64 1641.38C1118.26 1691.28 1106.01 1832.74 1112.67 1855.52C1114.4 1861.41 1117.37 1866.82 1121.36 1871.94C1132.72 1886.39 1151.93 1897.7 1171.56 1907.1C1198.98 1920.06 1218.61 1943.92 1213.26 1943.92Z" fill="#606CB1"/>
<path d="M1258.82 687.589C1257.64 687.589 1256.27 693.3 1255.91 702.223V702.282C1255.67 706.922 1256.21 712.454 1256.21 718.522C1256.21 726.612 1255.2 729.348 1257.75 744.933C1258.94 752.19 1241.57 755.759 1228.37 751.833C1210.76 746.599 1190.95 745.468 1182.45 756.235C1174 767.002 1159.72 791.986 1160.14 806.262C1160.56 820.539 1110.17 746.896 1109.28 745.528C1108.33 744.219 1151.22 572.902 1151.22 572.902L1245.8 544.825L1250.79 578.791C1250.79 578.791 1256.15 606.571 1255.14 617.992C1254.72 622.453 1252.88 622.929 1254.01 630.067C1255.14 637.205 1265.67 666.175 1274.11 678.131C1281.67 688.72 1261.44 687.589 1258.82 687.589Z" fill="#F7B079"/>
<path d="M466.669 1756.3C458.817 1770.76 454.415 1784.85 449.954 1797.58C440.615 1824.35 431.216 1896.63 414.263 1890.38C401.355 1885.62 371.434 1720.43 384.818 1706.99C394.633 1697.17 421.282 1693.13 444.779 1682.72C449.3 1702.05 459.234 1742.8 466.669 1756.3Z" fill="#364463"/>
<path d="M1213.26 1943.92C1207.91 1943.92 1058.01 1938.56 1049.98 1930.53C1042.84 1923.45 1052.53 1886.99 1058.24 1861.11C1073.23 1864.92 1098.28 1870.57 1121.54 1872C1132.9 1886.45 1151.87 1898.29 1171.74 1907.15C1211.24 1924.64 1218.61 1943.92 1213.26 1943.92Z" fill="#364463"/>
<path d="M891.746 1348.41L889.545 1347.16C889.724 1346.8 909.71 1312.78 911.436 1303.68L913.934 1304.15C912.149 1313.67 892.579 1347.04 891.746 1348.41Z" fill="#23254D"/>
<path d="M1358.7 1183.7C1358.7 1183.7 1381.54 1215.82 1391.12 1212.25C1400.64 1208.68 1427.4 1171.2 1427.4 1171.2L1393.08 1151.57L1358.7 1183.7Z" fill="#7F5E9A"/>
<path d="M1437.22 1151.57C1437.22 1151.57 1467.56 1164.07 1469.34 1175.67C1471.13 1187.26 1444.36 1302.67 1437.22 1323.07C1430.08 1343.41 1409.56 1340.74 1409.56 1354.12C1409.56 1367.51 1573.74 1819 1573.74 1819L1544.29 1827.03C1544.29 1827.03 1405.63 1475.47 1391.12 1435.32C1376.55 1395.17 1361.5 1363.4 1364.17 1345.97C1366.85 1328.54 1393.26 1324.2 1403.97 1303.5C1414.67 1282.74 1430.74 1205.82 1432.04 1201.13C1433.41 1196.43 1409.98 1185.06 1409.98 1185.06L1437.22 1151.57Z" fill="#7F5E9A"/>
<path d="M1560.23 1688.25C1549.05 1688.25 1538.17 1689.44 1527.7 1691.76C1516.39 1694.2 1505.57 1697.89 1495.4 1702.7C1443.41 1727.09 1407.36 1779.92 1407.36 1841.19C1407.36 1925.65 1475.83 1994.12 1560.29 1994.12C1644.76 1994.12 1713.17 1925.65 1713.17 1841.19C1713.11 1756.72 1644.7 1688.25 1560.23 1688.25ZM1560.23 1962.3C1493.31 1962.3 1439.12 1908.11 1439.12 1841.19C1439.12 1793.36 1466.78 1752.08 1507.06 1732.39C1516.87 1727.57 1527.52 1724 1538.64 1722.04C1545.66 1720.79 1552.92 1720.07 1560.29 1720.07C1627.21 1720.07 1681.4 1774.26 1681.4 1841.19C1681.35 1908.11 1627.15 1962.3 1560.23 1962.3Z" fill="#5C6FB4"/>
<path d="M1423.84 1489.33C1423.84 1489.33 1359.12 1595.04 1341.69 1665.88C1327.41 1723.88 1329.31 1804.01 1333.72 1843.15C1339.55 1895.32 1340.85 1938.62 1296.24 1943.98C1251.63 1949.33 928.626 1925.3 861.409 1914.29C795.916 1903.59 765.281 1886.1 765.281 1886.1L761.058 1900.49C761.058 1900.49 803.59 1940.82 1038.43 1952.01C1256.98 1962.42 1331.99 1969.85 1353.41 1952.01C1374.82 1934.16 1364.11 1851.36 1369.47 1777.66C1374.82 1703.95 1393.14 1645.3 1416.76 1612.05C1439.6 1579.93 1456.02 1568.33 1456.02 1568.33L1423.84 1489.33Z" fill="#7F5E9A"/>
<path d="M1248.65 635.956C1248.65 635.956 1246.51 637.979 1242.53 639.466C1240.56 640.239 1238.18 640.774 1235.57 640.953C1234.26 641.072 1232.95 641.072 1231.64 640.893C1230.33 640.834 1229.02 640.477 1227.6 640.179C1226.35 639.763 1225.1 639.466 1223.91 638.871C1222.72 638.395 1221.59 637.741 1220.46 637.205C1219.39 636.61 1218.32 636.075 1217.42 635.48C1216.53 634.885 1215.64 634.29 1215.04 633.636C1214.69 633.398 1214.27 632.922 1213.97 632.565C1213.5 632.09 1213.08 631.792 1212.61 631.495C1211.65 630.959 1210.58 630.84 1209.87 630.959C1208.32 631.257 1207.85 632.03 1207.85 631.971C1207.73 632.03 1207.73 632.149 1207.79 632.268C1207.85 632.387 1207.97 632.387 1208.09 632.328C1208.03 632.328 1208.8 632.03 1209.87 632.268C1210.41 632.387 1210.88 632.744 1211.3 633.22C1211.54 633.458 1211.71 633.815 1211.89 634.053C1212.13 634.469 1212.37 634.945 1212.61 635.421C1213.26 636.491 1214.03 637.503 1215.04 638.395C1216 639.347 1217.19 640.12 1218.44 640.834C1219.74 641.429 1221.11 642.083 1222.54 642.44C1223.97 642.916 1225.57 643.094 1227.06 643.392C1228.43 643.451 1229.98 643.689 1231.52 643.63C1233.01 643.63 1234.5 643.451 1235.86 643.213C1238.66 642.737 1241.16 641.726 1243.12 640.655C1247.05 638.455 1248.95 636.135 1248.95 636.135C1249.01 636.075 1249.01 635.897 1248.95 635.837C1248.89 635.897 1248.77 635.897 1248.65 635.956Z" fill="#23254D"/>
<path d="M1256.21 718.581C1237.77 716.499 1233.07 698.178 1233.07 698.178C1243.06 701.866 1249.96 703.948 1255.85 702.342C1255.67 706.982 1256.21 712.514 1256.21 718.581Z" fill="white"/>
<path d="M1352.87 1109.16C1352.87 1109.16 1386.84 1103.75 1399.74 1109.16C1412.65 1114.57 1450.13 1139.56 1445.25 1156.09C1440.37 1172.57 1417.59 1194.88 1409.56 1191.79C1401.53 1188.63 1389.93 1177.03 1383.27 1172.16C1376.61 1167.22 1339.96 1160.56 1336.87 1151.63C1333.72 1142.65 1352.87 1109.16 1352.87 1109.16Z" fill="#F7B079"/>
<path d="M1354.24 1100.71C1354.24 1102.02 1353.7 1105.06 1352.87 1109.16C1352.45 1111.07 1351.98 1113.21 1351.44 1115.47C1349.06 1124.93 1345.61 1136.88 1341.99 1145.51C1340.68 1148.66 1339.31 1151.4 1338.06 1153.42C1336.87 1155.2 1335.74 1156.45 1334.67 1156.93C1334.07 1157.23 1332.77 1157.29 1330.98 1157.17C1325.33 1156.87 1314.32 1154.79 1300.88 1151.75C1293.03 1149.97 1284.29 1147.83 1275.3 1145.51C1273.82 1145.15 1272.33 1144.73 1270.84 1144.38C1260.79 1141.76 1250.5 1138.9 1240.8 1136.11C1229.62 1132.9 1219.15 1129.62 1210.7 1126.71C1202.43 1123.91 1196.07 1121.36 1192.62 1119.45C1190.3 1118.14 1188.04 1116.84 1185.84 1115.47C1184.05 1114.4 1182.33 1113.27 1180.6 1112.14C1168.53 1104.28 1158.53 1095.96 1150.56 1088.46C1149.43 1087.39 1148.36 1086.38 1147.29 1085.37C1133.55 1071.86 1126.83 1061.45 1126.83 1061.45C1126.83 1061.45 1124.51 1066.69 1120.52 1075.43C1119.16 1078.35 1117.61 1081.68 1115.94 1085.37C1112.02 1093.93 1107.14 1104.22 1101.67 1115.47C1098.16 1122.66 1094.41 1130.28 1090.48 1138.01C1089.24 1140.51 1087.93 1143.01 1086.62 1145.57C1081.44 1155.68 1076.03 1165.85 1070.56 1175.61C1067.17 1181.73 1063.78 1187.62 1060.39 1193.33C1057.83 1197.62 1055.27 1201.78 1052.71 1205.71C1044.74 1218.2 1037.07 1228.61 1030.35 1235.21C1030.11 1235.39 1029.93 1235.57 1029.75 1235.81C1026.12 1239.26 1022.79 1241.64 1019.82 1242.65C1019.76 1242.65 1019.7 1242.71 1019.58 1242.71C1014.17 1244.43 1007.56 1244.55 1000.25 1243.48C991.799 1242.23 982.341 1239.43 972.467 1235.81C971.694 1235.51 970.92 1235.21 970.206 1234.97C960.332 1231.17 950.041 1226.64 940.107 1222.01C929.519 1217.07 919.228 1212.07 910.068 1207.79C908.462 1207.07 906.974 1206.36 905.428 1205.71C897.457 1202.14 890.497 1199.34 885.144 1198.03C883.478 1197.62 881.753 1197.08 880.028 1196.6C870.034 1193.51 859.922 1188.93 849.988 1184.11C843.98 1181.2 837.972 1178.28 832.143 1175.61C827.979 1173.76 823.874 1171.98 819.889 1170.49C813.703 1168.17 807.754 1166.51 802.162 1165.85C797.582 1165.32 793.478 1165.02 789.79 1164.6C788.778 1164.48 787.827 1164.36 786.875 1164.24C774.324 1162.7 767.661 1159.78 766.591 1145.57C766.531 1144.32 766.472 1142.89 766.472 1141.34C766.472 1135.1 770.219 1125.94 776.168 1115.47C779.915 1108.86 784.615 1101.67 789.79 1094.35C791.931 1091.32 794.132 1088.34 796.392 1085.37C803.887 1075.37 812.037 1065.44 819.889 1056.58C820.305 1056.16 820.662 1055.68 821.079 1055.27C830.001 1045.27 838.508 1036.71 844.991 1031.12C846.419 1029.87 848.085 1028.32 849.988 1026.48C850.405 1026.06 850.821 1025.64 851.237 1025.23C858.197 1018.21 867.477 1007.74 877.886 995.188C878.6 994.296 879.314 993.463 880.087 992.511C887.047 984.124 894.423 974.784 901.978 965.088C902.929 963.839 903.881 962.59 904.833 961.341C906.617 959.08 908.342 956.76 910.127 954.441C910.543 953.905 910.96 953.37 911.376 952.775C915.838 946.886 920.299 940.937 924.701 934.929C929.995 927.672 935.229 920.415 940.226 913.277C942.189 910.421 944.152 907.626 946.056 904.889C953.313 894.301 959.975 884.069 965.686 874.849C967.351 872.172 968.838 869.555 970.325 866.997C970.325 866.997 970.325 866.997 970.325 866.938C971.931 864.142 973.419 861.465 974.787 858.967C976.333 856.111 977.701 853.435 978.891 850.877C979.843 848.854 980.854 846.832 981.985 844.75C987.041 835.113 993.465 825.358 1000.42 815.899C1000.72 815.483 1001.02 815.067 1001.38 814.65C1003.16 812.211 1005.01 809.832 1006.85 807.452C1013.15 799.362 1019.76 791.629 1026 784.551C1027.55 782.885 1029.04 781.219 1030.46 779.613C1040.46 768.609 1049.38 759.805 1054.85 754.511C1058.42 751.06 1060.5 749.097 1060.5 749.097L1090.6 751.834L1115.53 754.094L1120.17 754.511L1120.7 754.57L1129.68 755.403C1129.68 755.403 1131.53 756.712 1134.5 758.913C1138.43 761.946 1144.44 766.586 1150.74 772.297C1155.03 776.044 1159.43 780.268 1163.53 784.61C1164.13 785.264 1164.72 785.859 1165.32 786.514C1171.8 793.652 1177.27 801.147 1179.65 808.107C1180.07 809.356 1180.48 810.903 1180.84 812.687C1180.96 813.341 1181.08 813.996 1181.26 814.65C1182.45 821.907 1183.22 832.496 1183.64 844.75C1183.99 853.97 1184.17 864.261 1184.29 874.79C1184.41 884.724 1184.41 894.896 1184.47 904.83C1184.59 915.359 1184.65 925.65 1184.89 934.87C1185.18 947.005 1185.66 957.534 1186.55 964.969C1186.85 967.825 1187.27 970.204 1187.74 972.108C1189.53 979.067 1191.37 986.86 1194.11 995.009C1197.44 1004.82 1201.96 1015.12 1209.16 1025.05C1209.75 1025.88 1210.35 1026.72 1211 1027.49C1212.67 1029.63 1214.45 1031.77 1216.35 1033.85C1218.32 1035.99 1220.4 1038.08 1222.66 1040.22C1227.89 1044.98 1233.96 1049.62 1241.1 1053.9C1241.75 1054.32 1242.47 1054.73 1243.12 1055.09C1244.13 1055.68 1245.08 1056.22 1246.16 1056.81C1254.01 1061.1 1262.51 1065.02 1271.2 1068.65C1281.25 1072.88 1291.54 1076.62 1301.24 1080.01C1306.53 1081.86 1311.59 1083.58 1316.47 1085.19C1317.83 1085.61 1319.14 1086.08 1320.51 1086.5C1323.49 1087.45 1326.34 1088.4 1329.02 1089.29C1329.79 1089.53 1330.56 1089.83 1331.34 1090.07C1344.9 1094.94 1354.24 1098.34 1354.24 1100.71Z" fill="url(#paint7_linear)"/>
<path d="M1124.75 1060.26C1124.27 1059.31 1075.55 965.564 1075.97 902.212H1078.47C1078.05 964.969 1126.47 1058.18 1126.95 1059.07L1124.75 1060.26Z" fill="#5C6FB4"/>
<path d="M1179.35 638.098C1179.35 638.098 1190.12 638.514 1192.56 629.175C1195 619.836 1210.58 595.268 1223.08 593.067C1235.57 590.866 1256.51 598.421 1260.55 595.744C1264.54 593.067 1266.32 584.561 1266.8 574.33C1267.21 564.098 1257.81 541.018 1247.58 528.823C1236.64 515.796 1209.22 471.718 1144.08 469.041C1078.94 466.364 1067.82 475.941 1032.13 461.903C979.903 441.44 935.765 453.396 904.179 479.689C874.139 504.732 875.924 525.79 841.185 551.13C778.25 597.053 693.722 641.429 709.307 698.237C727.688 765.099 817.391 735.237 848.144 759.328C878.957 783.42 865.335 822.918 894.185 846.772C938.858 883.772 962.712 796.507 1025.71 808.225C1067.94 816.077 1116.96 793.056 1133.02 761.529C1149.08 730.062 1153.42 684.258 1150.45 676.585C1147.41 668.851 1140.09 663.141 1141.11 649.757C1142.12 636.373 1152.82 615.612 1164.19 617.992C1175.49 620.252 1179.35 638.098 1179.35 638.098Z" fill="url(#paint8_linear)"/>
<path d="M1562.73 1868.61C1577.88 1868.61 1590.16 1856.33 1590.16 1841.19C1590.16 1826.04 1577.88 1813.76 1562.73 1813.76C1547.59 1813.76 1535.31 1826.04 1535.31 1841.19C1535.31 1856.33 1547.59 1868.61 1562.73 1868.61Z" fill="#5C6FB4"/>
<path d="M760.999 1768.79C698.778 1768.79 648.395 1819.24 648.395 1881.46C648.395 1943.68 698.838 1994.12 760.999 1994.12C804.482 1994.12 842.255 1969.5 860.993 1933.39C864.026 1927.62 866.524 1921.55 868.487 1915.3C871.878 1904.6 873.663 1893.24 873.663 1881.46C873.663 1819.24 823.22 1768.79 760.999 1768.79ZM760.999 1965.63C714.482 1965.63 676.828 1927.92 676.828 1881.46C676.828 1834.94 714.541 1797.29 760.999 1797.29C807.516 1797.29 845.229 1835 845.229 1881.46C845.229 1891.63 843.445 1901.33 840.173 1910.31C837.972 1916.26 835.176 1921.91 831.726 1927.2C816.676 1950.34 790.622 1965.63 760.999 1965.63Z" fill="#5C6FB4"/>
<path d="M760.999 1904.54C771.216 1904.54 779.499 1896.26 779.499 1886.04C779.499 1875.82 771.216 1867.54 760.999 1867.54C750.782 1867.54 742.499 1875.82 742.499 1886.04C742.499 1896.26 750.782 1904.54 760.999 1904.54Z" fill="#5C6FB4"/>
<path d="M1134.8 806.975C1132.42 807.689 1129.92 806.38 1129.21 804.061C1128.5 801.681 1129.8 799.183 1132.12 798.469L1143.9 794.781C1146.28 794.067 1148.78 795.376 1149.49 797.696C1150.21 800.075 1148.9 802.573 1146.58 803.287L1134.8 806.975Z" fill="#7D93CB"/>
<path d="M1164.6 862.06C1164.6 864.558 1162.58 866.521 1160.14 866.521C1157.64 866.521 1155.68 864.498 1155.68 862.06V849.746C1155.68 847.247 1157.7 845.284 1160.14 845.284C1162.64 845.284 1164.6 847.307 1164.6 849.746V862.06Z" fill="#7D93CB"/>
<path d="M1044.38 1198.21C1044.38 1200.71 1042.36 1202.67 1039.92 1202.67C1037.42 1202.67 1035.46 1200.65 1035.46 1198.21V1185.9C1035.46 1183.4 1037.48 1181.44 1039.92 1181.44C1042.42 1181.44 1044.38 1183.46 1044.38 1185.9V1198.21Z" fill="#7D93CB"/>
<path d="M1094.53 860.87C1092.57 862.416 1089.77 862.06 1088.22 860.096C1086.68 858.133 1087.03 855.338 1089 853.791L1098.69 846.177C1100.66 844.63 1103.45 844.987 1105 846.95C1106.55 848.913 1106.19 851.709 1104.23 853.256L1094.53 860.87Z" fill="#7D93CB"/>
<path d="M1045.81 841.775C1046.47 844.154 1045.04 846.653 1042.66 847.248C1040.28 847.902 1037.78 846.474 1037.19 844.095L1033.97 832.198C1033.32 829.818 1034.75 827.32 1037.13 826.725C1039.51 826.071 1042 827.498 1042.6 829.878L1045.81 841.775Z" fill="#7D93CB"/>
<path d="M1041.05 893.883C1043.37 894.657 1044.68 897.215 1043.91 899.535C1043.13 901.855 1040.58 903.163 1038.26 902.39L1026.54 898.523C1024.22 897.75 1022.91 895.192 1023.68 892.872C1024.46 890.552 1027.01 889.244 1029.33 890.017L1041.05 893.883Z" fill="#7D93CB"/>
<path d="M860.815 1051.1C863.135 1051.88 864.443 1054.43 863.67 1056.75C862.896 1059.07 860.339 1060.38 858.019 1059.61L846.301 1055.74C843.981 1054.97 842.672 1052.41 843.445 1050.09C844.219 1047.77 846.776 1046.46 849.096 1047.24L860.815 1051.1Z" fill="#7D93CB"/>
<path d="M907.152 1179.77C909.472 1180.54 910.78 1183.1 910.007 1185.42C909.234 1187.74 906.676 1189.05 904.356 1188.28L892.638 1184.41C890.318 1183.64 889.009 1181.08 889.782 1178.76C890.556 1176.44 893.113 1175.13 895.433 1175.9L907.152 1179.77Z" fill="#7D93CB"/>
<path d="M997.153 987.93C999.473 988.703 1000.78 991.261 1000.01 993.581C999.235 995.901 996.677 997.21 994.357 996.436L982.639 992.57C980.319 991.796 979.01 989.239 979.783 986.919C980.557 984.599 983.114 983.29 985.434 984.063L997.153 987.93Z" fill="#7D93CB"/>
<path d="M977.582 922.674C979.486 921.068 982.282 921.306 983.888 923.15C985.494 925.054 985.256 927.85 983.412 929.456L974.073 937.486C972.169 939.092 969.374 938.854 967.768 937.01C966.161 935.107 966.399 932.311 968.243 930.705L977.582 922.674Z" fill="#7D93CB"/>
<path d="M814 1121.65C815.903 1120.05 818.699 1120.28 820.305 1122.13C821.911 1124.03 821.673 1126.83 819.829 1128.43L810.49 1136.46C808.587 1138.07 805.791 1137.83 804.185 1135.99C802.579 1134.08 802.817 1131.29 804.661 1129.68L814 1121.65Z" fill="#7D93CB"/>
<path d="M926.247 1014.52C928.15 1012.91 930.946 1013.15 932.552 1015C934.158 1016.9 933.92 1019.69 932.076 1021.3L922.737 1029.33C920.834 1030.94 918.038 1030.7 916.432 1028.86C914.826 1026.95 915.064 1024.16 916.908 1022.55L926.247 1014.52Z" fill="#7D93CB"/>
<path d="M895.851 1105.17C897.755 1103.57 900.55 1103.81 902.156 1105.65C903.762 1107.55 903.525 1110.35 901.681 1111.96L892.341 1119.99C890.438 1121.59 887.642 1121.35 886.036 1119.51C884.43 1117.61 884.668 1114.81 886.512 1113.21L895.851 1105.17Z" fill="#7D93CB"/>
<path d="M912.03 971.987C911.614 972.106 911.257 972.166 910.9 972.166C908.937 972.166 907.093 970.798 906.558 968.835L904.595 961.399C906.379 959.139 908.104 956.819 909.889 954.499C910.305 953.963 910.722 953.428 911.138 952.833C911.614 953.369 911.911 953.963 912.09 954.677L915.243 966.574C915.837 968.954 914.41 971.392 912.03 971.987Z" fill="#7D93CB"/>
<path d="M1038.79 951.228C1037.36 949.205 1037.9 946.41 1039.92 944.982C1041.94 943.554 1044.74 944.09 1046.17 946.112L1053.19 956.225C1054.61 958.247 1054.08 961.043 1052.06 962.471C1050.03 963.898 1047.24 963.363 1045.81 961.34L1038.79 951.228Z" fill="#7D93CB"/>
<path d="M951.528 1080.73C950.1 1078.7 950.635 1075.91 952.658 1074.48C954.68 1073.05 957.476 1073.59 958.904 1075.61L965.923 1085.72C967.351 1087.75 966.815 1090.54 964.793 1091.97C962.77 1093.4 959.975 1092.86 958.547 1090.84L951.528 1080.73Z" fill="#7D93CB"/>
<path d="M976.63 1219.57C975.203 1217.54 975.738 1214.75 977.76 1213.32C979.783 1211.89 982.579 1212.43 984.006 1214.45L991.026 1224.56C992.453 1226.58 991.918 1229.38 989.895 1230.81C987.873 1232.24 985.077 1231.7 983.65 1229.68L976.63 1219.57Z" fill="#7D93CB"/>
<path d="M1013.15 1050.92C1011.73 1048.9 1012.26 1046.11 1014.28 1044.68C1016.31 1043.25 1019.1 1043.79 1020.53 1045.81L1027.55 1055.92C1028.98 1057.94 1028.44 1060.74 1026.42 1062.17C1024.4 1063.59 1021.6 1063.06 1020.17 1061.04L1013.15 1050.92Z" fill="#7D93CB"/>
<path d="M968.66 1153.18C967.232 1151.16 967.768 1148.36 969.79 1146.93C971.813 1145.51 974.609 1146.04 976.036 1148.06L983.055 1158.18C984.483 1160.2 983.948 1162.99 981.925 1164.42C979.903 1165.85 977.107 1165.31 975.679 1163.29L968.66 1153.18Z" fill="#7D93CB"/>
<path d="M1075.02 1003.04C1076.51 1001.08 1079.3 1000.66 1081.26 1002.15C1083.23 1003.63 1083.64 1006.43 1082.16 1008.39L1074.72 1018.21C1073.23 1020.17 1070.44 1020.59 1068.48 1019.1C1066.51 1017.61 1066.1 1014.82 1067.58 1012.85L1075.02 1003.04Z" fill="#7D93CB"/>
<path d="M1033.91 1114.4C1035.4 1112.43 1038.2 1112.02 1040.16 1113.5C1042.12 1114.99 1042.54 1117.79 1041.05 1119.75L1033.62 1129.56C1032.13 1131.53 1029.33 1131.94 1027.31 1130.46C1025.35 1128.97 1024.93 1126.17 1026.42 1124.21L1033.91 1114.4Z" fill="#7D93CB"/>
<path d="M1122.49 901.974C1124.57 900.666 1127.36 901.26 1128.67 903.342C1129.98 905.424 1129.39 908.22 1127.3 909.529L1116.9 916.132C1114.81 917.44 1112.02 916.845 1110.71 914.763C1109.4 912.681 1109.99 909.886 1112.08 908.577L1122.49 901.974Z" fill="#7D93CB"/>
<path d="M1170.49 934.096C1170.73 931.657 1172.93 929.872 1175.43 930.11C1177.87 930.348 1179.65 932.549 1179.41 935.047L1178.1 947.301C1177.87 949.74 1175.61 951.525 1173.17 951.287C1170.73 951.049 1168.94 948.788 1169.18 946.349L1170.49 934.096Z" fill="#7D93CB"/>
<path d="M1092.8 1075.91C1093.04 1073.47 1095.24 1071.69 1097.74 1071.92C1100.18 1072.16 1101.97 1074.36 1101.73 1076.86L1100.42 1089.11C1100.18 1091.55 1097.92 1093.34 1095.48 1093.1C1093.04 1092.86 1091.26 1090.6 1091.5 1088.16L1092.8 1075.91Z" fill="#7D93CB"/>
<path d="M1113.39 974.903C1110.89 974.843 1108.98 972.761 1109.04 970.322C1109.1 967.824 1111.18 965.921 1113.62 965.98L1125.94 966.337C1128.43 966.397 1130.34 968.478 1130.28 970.917C1130.22 973.416 1128.14 975.319 1125.7 975.26L1113.39 974.903Z" fill="#7D93CB"/>
<path d="M1157.76 1027.73C1156.93 1030.05 1154.37 1031.24 1152.05 1030.4C1149.73 1029.57 1148.54 1027.01 1149.37 1024.69L1153.54 1013.09C1154.37 1010.77 1156.93 1009.58 1159.25 1010.42C1161.57 1011.25 1162.76 1013.81 1161.92 1016.13L1157.76 1027.73Z" fill="#7D93CB"/>
<path d="M1248.36 1100.42C1247.52 1102.74 1244.97 1103.93 1242.65 1103.09C1240.33 1102.26 1239.14 1099.7 1239.97 1097.38L1244.13 1085.78C1244.97 1083.46 1247.52 1082.27 1249.84 1083.11C1252.16 1083.94 1253.35 1086.5 1252.52 1088.82L1248.36 1100.42Z" fill="#7D93CB"/>
<path d="M1288.27 1122.01C1290.35 1120.7 1293.15 1121.3 1294.46 1123.38C1295.77 1125.46 1295.17 1128.26 1293.09 1129.56L1282.68 1136.17C1280.6 1137.48 1277.8 1136.88 1276.49 1134.8C1275.18 1132.72 1275.78 1129.92 1277.86 1128.61L1288.27 1122.01Z" fill="#7D93CB"/>
<path d="M1328.6 1089.53C1328.6 1091.02 1327.83 1092.45 1326.52 1093.28L1316.11 1099.94C1314.03 1101.25 1311.23 1100.65 1309.92 1098.57C1309.45 1097.86 1309.21 1097.03 1309.21 1096.19C1309.21 1094.71 1309.92 1093.28 1311.29 1092.39L1320.1 1086.79C1323.07 1087.69 1325.92 1088.64 1328.6 1089.53Z" fill="#7D93CB"/>
<path d="M1173.05 1092.15C1170.55 1092.03 1168.65 1089.95 1168.77 1087.45C1168.89 1084.95 1170.97 1083.05 1173.47 1083.17L1185.78 1083.76C1188.28 1083.88 1190.18 1085.96 1190.06 1088.46C1189.94 1090.96 1187.86 1092.86 1185.36 1092.74L1173.05 1092.15Z" fill="#7D93CB"/>
<path d="M1222.3 1040.4C1222.18 1040.57 1222 1040.75 1221.77 1040.93L1212.07 1048.49C1210.11 1050.03 1207.31 1049.68 1205.77 1047.71C1205.11 1046.88 1204.81 1045.93 1204.81 1044.98C1204.81 1043.61 1205.41 1042.3 1206.54 1041.47L1216 1034.09C1217.96 1036.23 1220.04 1038.31 1222.3 1040.4Z" fill="#7D93CB"/>
<path d="M986.089 866.758C985.554 868.78 983.709 870.089 981.746 870.089C981.33 870.089 980.973 870.029 980.557 869.91L969.968 866.996C969.968 866.996 969.968 866.996 969.968 866.936C971.574 864.14 973.062 861.464 974.43 858.965L982.877 861.285C985.375 861.94 986.743 864.378 986.089 866.758Z" fill="#7D93CB"/>
<path d="M701.633 672.42L699.373 672.004C705.797 635.837 746.544 602.644 779.618 581.11C792.942 572.426 804.066 565.823 813.881 559.934C830.953 549.762 843.326 542.386 854.39 531.916C866.108 520.852 875.388 510.739 883.537 501.817C903.108 480.402 917.206 464.936 946.71 456.548C984.542 445.782 1016.13 453.753 1039.21 459.523C1041.71 460.177 1044.15 460.772 1046.47 461.307C1068.42 466.601 1154.97 469.933 1155.8 469.933L1155.74 472.253C1152.17 472.134 1068.12 468.921 1045.93 463.568C1043.61 462.973 1041.17 462.378 1038.61 461.783C1015.83 456.013 984.602 448.161 947.305 458.749C918.395 466.958 904.476 482.246 885.203 503.363C876.994 512.345 867.714 522.517 855.937 533.582C844.634 544.17 832.262 551.606 815.011 561.897C805.196 567.726 794.132 574.389 780.867 583.014C748.15 604.31 707.879 637.086 701.633 672.42Z" fill="#7F5E9A"/>
<path d="M727.687 610.139L725.962 608.592C740.358 592.829 769.446 576.113 795.143 561.361C807.754 554.104 819.71 547.263 827.265 541.85C845.527 528.882 868.666 509.193 885.56 494.857C908.521 475.346 910.186 474.156 911.673 474.929L910.603 476.952C910.841 477.071 911.138 477.071 911.197 477.071C909.472 477.547 898.646 486.826 887.106 496.582C870.213 510.977 847.014 530.667 828.633 543.694C820.959 549.107 809.538 555.71 796.333 563.324C772.063 577.303 741.845 594.673 727.687 610.139Z" fill="#7F5E9A"/>
<defs>
<linearGradient id="paint0_linear" x1="152.81" y1="673.872" x2="2041.46" y2="1514.67" gradientUnits="userSpaceOnUse">
<stop stop-color="#E8EBF7"/>
<stop offset="1" stop-color="#DEE2F3"/>
</linearGradient>
<linearGradient id="paint1_linear" x1="807.02" y1="1525.6" x2="678.537" y2="1800.86" gradientUnits="userSpaceOnUse">
<stop stop-color="#CADCF3"/>
<stop offset="1" stop-color="#9BB7E1"/>
</linearGradient>
<linearGradient id="paint2_linear" x1="1792.7" y1="1298.71" x2="1594.79" y2="1768" gradientUnits="userSpaceOnUse">
<stop stop-color="#CADCF3"/>
<stop offset="1" stop-color="#9BB7E1"/>
</linearGradient>
<linearGradient id="paint3_linear" x1="1380.99" y1="1520.63" x2="1536.74" y2="1883.85" gradientUnits="userSpaceOnUse">
<stop stop-color="#76C9DE"/>
<stop offset="1" stop-color="#5BC1D3"/>
</linearGradient>
<linearGradient id="paint4_linear" x1="977.628" y1="67.19" x2="1451.78" y2="67.2848" gradientUnits="userSpaceOnUse">
<stop stop-color="#ADC7E9"/>
<stop offset="1" stop-color="#9BB7E1"/>
</linearGradient>
<linearGradient id="paint5_linear" x1="554.415" y1="158.531" x2="483.672" y2="413.352" gradientUnits="userSpaceOnUse">
<stop stop-color="#F9FCFE"/>
<stop offset="1" stop-color="#9BB7E1"/>
</linearGradient>
<linearGradient id="paint6_linear" x1="1489.98" y1="259.44" x2="1378.77" y2="443.389" gradientUnits="userSpaceOnUse">
<stop stop-color="#F9FCFE"/>
<stop offset="1" stop-color="#9BB7E1"/>
</linearGradient>
<linearGradient id="paint7_linear" x1="766.444" y1="996.654" x2="1354.21" y2="996.654" gradientUnits="userSpaceOnUse">
<stop stop-color="#6CC6DB"/>
<stop offset="1" stop-color="#5BC1D3"/>
</linearGradient>
<linearGradient id="paint8_linear" x1="958.689" y1="813.365" x2="1006.82" y2="501.224" gradientUnits="userSpaceOnUse">
<stop stop-color="#7F5E9A"/>
<stop offset="1" stop-color="#8D69AB"/>
</linearGradient>
</defs>
</svg>
