<svg width="620" height="843" viewBox="0 0 620 843" fill="none" xmlns="http://www.w3.org/2000/svg">
<path d="M144.127 605.797L139.547 602.645C140.32 601.515 141.212 600.265 142.105 598.957C161.913 570.523 208.37 503.84 230.558 347.632C242.693 262.389 279.692 189.818 308.661 143.954C340.01 94.2843 368.919 64.3038 369.217 64.0063L373.202 67.8728C372.905 68.1703 344.352 97.8534 313.301 147.048C284.689 192.435 248.047 264.174 236.09 348.405C213.724 505.922 166.731 573.318 146.685 602.109C145.733 603.477 144.9 604.667 144.127 605.797Z" fill="#BAC1E3"/>
<path d="M401.993 41.7587C386.289 61.6863 366.362 72.2747 366.362 72.2747C366.362 72.2747 372.013 50.503 387.717 30.5159C403.421 10.5884 423.348 0 423.348 0C423.348 0 417.757 21.7717 401.993 41.7587Z" fill="#BAC1E3"/>
<path d="M351.312 43.4834C355.416 66.8016 350.36 87.1457 350.36 87.1457C350.36 87.1457 338.701 69.7165 334.656 46.3983C330.551 23.08 335.608 2.73608 335.608 2.73608C335.608 2.73608 347.267 20.1651 351.312 43.4834Z" fill="#BAC1E3"/>
<path d="M319.725 77.4496C326.506 102.85 322.937 125.87 322.937 125.87C322.937 125.87 308.364 107.727 301.582 82.3272C294.801 56.9271 298.37 33.9065 298.37 33.9065C298.37 33.9065 312.885 52.109 319.725 77.4496Z" fill="#BAC1E3"/>
<path d="M286.771 115.64C298.489 141.1 298.846 165.905 298.846 165.905C298.846 165.905 280.287 149.427 268.569 123.968C256.85 98.5079 256.493 73.7026 256.493 73.7026C256.493 73.7026 275.052 90.1205 286.771 115.64Z" fill="#BAC1E3"/>
<path d="M251.08 162.097C267.379 188.449 271.127 215.634 271.127 215.634C271.127 215.634 248.523 200.108 232.224 173.697C215.925 147.345 212.177 120.16 212.177 120.16C212.177 120.16 234.782 135.745 251.08 162.097Z" fill="#BAC1E3"/>
<path d="M220.386 222.356C240.433 249.422 247.035 278.57 247.035 278.57C247.035 278.57 221.1 263.758 200.994 236.692C180.888 209.626 174.345 180.479 174.345 180.479C174.345 180.479 200.34 195.231 220.386 222.356Z" fill="#BAC1E3"/>
<path d="M201.53 292.489C223.123 318.425 231.332 347.097 231.332 347.097C231.332 347.097 204.564 333.832 183.03 307.896C161.437 281.96 153.229 253.289 153.229 253.289C153.229 253.289 179.997 266.613 201.53 292.489Z" fill="#BAC1E3"/>
<path d="M185.469 369.701C209.025 393.792 219.554 421.75 219.554 421.75C219.554 421.75 191.834 410.626 168.278 386.535C144.722 362.443 134.194 334.485 134.194 334.485C134.194 334.485 161.913 345.609 185.469 369.701Z" fill="#BAC1E3"/>
<path d="M161.913 440.786C186.837 464.758 198.496 493.133 198.496 493.133C198.496 493.133 169.706 482.604 144.782 458.631C119.858 434.659 108.199 406.284 108.199 406.284C108.199 406.284 136.93 416.813 161.913 440.786Z" fill="#BAC1E3"/>
<path d="M261.431 471.301C227.168 475.941 200.995 491.942 200.995 491.942C200.995 491.942 230.44 500.448 264.703 495.809C298.966 491.169 325.139 475.167 325.139 475.167C325.139 475.167 295.754 466.661 261.431 471.301Z" fill="#BAC1E3"/>
<path d="M278.979 397.599C245.846 403.963 221.279 420.917 221.279 420.917C221.279 420.917 250.367 427.579 283.5 421.274C316.633 414.909 341.2 397.956 341.2 397.956C341.2 397.956 312.052 391.234 278.979 397.599Z" fill="#BAC1E3"/>
<path d="M293.493 325.801C260.063 330.381 234.663 346.025 234.663 346.025C234.663 346.025 263.394 354.234 296.764 349.654C330.135 345.074 355.595 329.429 355.595 329.429C355.595 329.429 326.864 321.22 293.493 325.801Z" fill="#BAC1E3"/>
<path d="M310.089 261.973C276.48 264.709 250.188 278.867 250.188 278.867C250.188 278.867 278.383 288.682 311.992 285.945C345.601 283.209 371.893 269.051 371.893 269.051C371.893 269.051 343.698 259.236 310.089 261.973Z" fill="#BAC1E3"/>
<path d="M331.682 205.819C300.69 206.117 275.707 217.36 275.707 217.36C275.707 217.36 300.928 228.186 331.919 227.948C362.911 227.65 387.895 216.408 387.895 216.408C387.895 216.408 362.673 205.522 331.682 205.819Z" fill="#BAC1E3"/>
<path d="M351.61 154.84C323.593 155.971 301.286 166.856 301.286 166.856C301.286 166.856 324.366 175.957 352.383 174.827C380.4 173.697 402.707 162.811 402.707 162.811C402.707 162.811 379.568 153.71 351.61 154.84Z" fill="#BAC1E3"/>
<path d="M370.228 115.104C343.936 115.877 322.938 125.87 322.938 125.87C322.938 125.87 344.531 134.615 370.763 133.841C397.056 133.068 418.054 123.075 418.054 123.075C418.054 123.075 396.52 114.33 370.228 115.104Z" fill="#BAC1E3"/>
<path d="M394.498 78.8182C370.883 80.1269 352.145 89.6446 352.145 89.6446C352.145 89.6446 371.775 97.0207 395.39 95.7121C419.006 94.4034 437.743 84.8858 437.743 84.8858C437.743 84.8858 418.173 77.5095 394.498 78.8182Z" fill="#BAC1E3"/>
<path d="M123.248 740.887L124.081 739.579C124.081 739.579 124.497 738.925 125.271 737.616L125.449 737.497L125.509 737.199C130.327 729.169 167.624 665.995 190.049 587.951L190.109 587.713C190.704 585.691 191.299 583.668 191.834 581.586C205.278 532.749 209.917 487.956 205.694 448.577C205.634 447.982 205.575 447.328 205.456 446.674V446.614C205.337 445.424 205.218 444.235 205.04 443.105C200.816 410.685 189.692 376.6 171.966 341.742L171.847 341.504C171.55 340.909 171.252 340.374 170.955 339.838L170.538 339.005C159.177 317.055 145.138 294.748 128.84 272.739C128.542 272.322 128.245 271.966 128.007 271.609C98.3241 231.635 70.069 204.391 62.098 197.014C61.0868 196.063 60.5514 195.587 60.5514 195.587L59.897 194.992L58.9453 195.765L58.8264 196.122C58.7669 196.241 58.5883 196.657 58.2909 197.312L58.1125 197.788C53.9486 207.781 39.1964 244.008 25.5744 291.655V291.774C25.4554 292.131 25.396 292.488 25.277 292.785L25.2175 293.083C5.8255 360.896 -2.50228 419.548 0.650406 467.256C2.85134 500.686 13.7964 540.304 33.129 584.858L33.3669 585.393C33.9618 586.761 34.5566 588.129 35.1514 589.498L35.2704 589.735C67.9869 663.2 112.6 726.194 121.226 738.091L123.248 740.887ZM123.427 736.664C123.308 736.842 123.189 737.021 123.129 737.199L122.891 736.902C114.325 725.065 69.8904 662.307 37.2929 589.141L37.174 588.903C36.4601 587.297 35.7463 585.691 35.092 584.085L34.7945 583.49C15.6405 539.351 4.87379 500.151 2.67286 467.077C-0.479824 419.608 7.7885 361.193 27.1805 293.44L27.24 293.202C27.2995 292.964 27.4184 292.607 27.5374 292.25L27.5969 292.012C41.2189 244.662 55.8521 208.554 60.016 198.561L60.1945 198.085C60.1945 198.085 60.1945 198.085 60.1945 198.026C60.3134 198.144 60.4919 198.323 60.6704 198.442C68.5818 205.818 96.718 232.884 126.341 272.798C126.639 273.155 126.877 273.572 127.174 273.929C143.413 295.879 157.392 318.067 168.694 339.957L169.111 340.79C169.349 341.266 169.587 341.682 169.825 342.158L169.944 342.456C187.611 377.135 198.734 411.101 202.958 443.402C203.136 444.532 203.255 445.722 203.374 446.852C203.493 447.566 203.552 448.161 203.612 448.756C207.835 487.897 203.195 532.392 189.811 580.991C189.276 583.073 188.681 585.096 188.086 587.118L188.027 587.356C165.423 665.817 127.828 729.228 123.546 736.307L123.427 736.664Z" fill="#7F5E9A"/>
<path d="M121.999 738.983L124.379 739.102C124.438 737.318 131.993 559.397 107.842 425.615C83.6912 291.893 61.2061 197.014 61.0277 196.062L58.7078 196.597C58.9457 197.549 81.4308 292.369 105.522 426.032C129.554 559.576 122.059 737.199 121.999 738.983Z" fill="#7F5E9A"/>
<path d="M93.4462 361.015L95.2307 359.409C93.2082 357.089 45.323 302.779 27.1207 290.882L25.812 292.905C43.7764 304.623 92.9703 360.42 93.4462 361.015Z" fill="#7F5E9A"/>
<path d="M112.6 470.348L114.384 468.742C111.291 465.233 38.1844 382.31 10.4646 364.227L9.15589 366.249C36.6378 384.154 111.826 469.516 112.6 470.348Z" fill="#7F5E9A"/>
<path d="M112.362 469.159L113.492 469.576L114.563 469.992H114.623C114.979 468.981 150.432 375.47 170.895 341.98C170.479 341.147 170.003 340.314 169.586 339.481C151.384 368.51 121.225 446.079 113.909 465.055C113.552 465.947 113.314 466.661 113.076 467.315C112.719 468.267 112.481 468.862 112.362 469.159Z" fill="#7F5E9A"/>
<path d="M121.166 575.875L122.177 576.47L123.248 577.065C123.248 577.065 123.308 576.946 123.367 576.827C126.103 572.068 170.955 493.964 204.385 446.793C204.266 445.603 204.147 444.473 203.969 443.283C173.394 485.993 132.587 556.126 123.129 572.425C122.653 573.198 122.296 573.912 121.999 574.388C121.523 575.281 121.226 575.816 121.166 575.875Z" fill="#7F5E9A"/>
<path d="M123.07 677.714L123.129 677.774L124.081 678.368L125.092 679.022C125.092 678.963 125.271 678.725 125.568 678.309C129.732 672.122 159.474 627.687 189.098 587.653C189.692 585.571 190.347 583.43 190.882 581.288C162.924 618.645 134.015 661.415 125.568 674.026C124.914 675.037 124.378 675.81 123.962 676.405C123.546 677 123.248 677.416 123.189 677.595C123.07 677.714 123.07 677.714 123.07 677.714Z" fill="#7F5E9A"/>
<path d="M121.345 577.243L123.13 575.637C122.237 574.626 34.9734 475.642 2.91121 454.703L1.60254 456.726C33.4268 477.486 120.453 576.232 121.345 577.243Z" fill="#7F5E9A"/>
<path d="M34.0804 584.381C34.7348 585.987 35.5081 587.594 36.2219 589.259C66.6781 615.135 122.058 677.892 123.129 679.141L124.021 678.368L124.914 677.595C124.735 677.416 124.438 677 123.843 676.405C123.605 676.167 123.367 675.87 123.07 675.513C112.6 663.675 61.146 606.093 34.0804 584.381Z" fill="#7F5E9A"/>
<path d="M94.5763 359.468C94.8142 358.754 121.82 287.431 128.245 272.679L126.044 271.727C119.56 286.539 93.8625 354.709 93.6245 355.422L94.5763 359.468Z" fill="#7F5E9A"/>
<path d="M509.66 296.949C509.66 310.631 519.594 321.754 531.789 321.754C543.983 321.754 553.917 310.631 553.917 296.949C553.917 283.268 543.983 272.144 531.789 272.144C519.594 272.085 509.66 283.208 509.66 296.949Z" fill="#9BB7E1"/>
<path d="M584.85 348.285C584.85 355.126 590.084 360.658 596.509 360.658C602.933 360.658 608.167 355.126 608.167 348.285C608.167 341.445 602.933 335.912 596.509 335.912C590.084 335.853 584.85 341.445 584.85 348.285Z" fill="#9BB7E1"/>
<path d="M608.167 221.225C601.728 221.225 596.508 215.685 596.508 208.852C596.508 202.018 601.728 196.479 608.167 196.479C614.606 196.479 619.826 202.018 619.826 208.852C619.826 215.685 614.606 221.225 608.167 221.225Z" fill="#9BB7E1"/>
<path d="M162.716 842.176C162.716 842.176 50.5871 670.978 131.546 486.931C177.765 380.214 271.037 355.528 314.164 349.341C379.121 340.002 478.52 322.692 489.465 327.986C500.35 333.28 442.829 434.584 428.017 474.32C412.075 517.09 421.652 558.194 402.974 604.533C384.355 650.872 298.698 707.383 257.832 738.137C216.966 768.95 162.716 842.176 162.716 842.176Z" fill="url(#paint0_linear)"/>
<path d="M165.273 842.295L160.158 842.117C160.217 840.094 169.08 637.19 229.1 537.909C288.466 439.818 368.175 399.309 368.949 398.952L371.209 403.532C370.436 403.949 291.976 443.804 233.443 540.586C174.137 638.737 165.392 840.272 165.273 842.295Z" fill="white"/>
<path d="M182.762 685.314L179.372 681.447C181.394 679.663 228.982 638.261 283.053 631.539L283.708 636.655C231.242 643.139 183.238 684.897 182.762 685.314Z" fill="white"/>
<path d="M218.334 567.949L215.182 563.904C217.145 562.417 263.899 527.024 314.045 526.845V531.961C265.625 532.139 218.751 567.592 218.334 567.949Z" fill="white"/>
<path d="M375.076 458.259C334.567 446.838 287.872 469.918 287.396 470.156L285.076 465.576C287.039 464.565 334.032 441.425 376.444 453.382L375.076 458.259Z" fill="white"/>
<path d="M179.551 681.864C177.945 679.96 139.458 635.584 133.39 610.125L138.387 608.935C144.217 633.145 183.06 678.056 183.417 678.473L179.551 681.864Z" fill="white"/>
<path d="M215.241 564.5C214.051 562.477 186.688 514.116 186.093 479.971L191.209 479.912C191.804 512.807 219.405 561.466 219.702 562.001L215.241 564.5Z" fill="white"/>
<path d="M288.407 466.289L283.529 467.955C283.41 467.539 272.227 418.701 282.697 393.301L287.455 395.264C278.295 417.393 287.158 462.185 288.407 466.289Z" fill="white"/>
<defs>
<linearGradient id="paint0_linear" x1="331.784" y1="395.336" x2="176.04" y2="758.559" gradientUnits="userSpaceOnUse">
<stop stop-color="#76C9DE"/>
<stop offset="1" stop-color="#5BC1D3"/>
</linearGradient>
</defs>
</svg>
