<svg width="1424" height="1445" viewBox="0 0 1424 1445" fill="none" xmlns="http://www.w3.org/2000/svg">
<path d="M965.971 1130.75L964.305 1129.5C964.305 1129.5 963.413 1128.85 961.807 1127.6L961.509 1127.48L961.331 1127.12C951.1 1119.27 871.926 1056.93 805.422 968.24L805.243 968.002C803.518 965.682 801.734 963.362 800.068 960.982C759.321 905.126 732.137 850.162 719.407 797.577C719.229 796.744 718.991 795.911 718.872 795.078V795.019C718.455 793.472 718.098 791.866 717.801 790.26C708.284 746.657 707.213 697.403 714.529 643.986L714.589 643.569C714.708 642.677 714.827 641.844 714.946 641.011L715.124 639.703C720.061 605.915 728.33 570.343 739.751 534.057C739.929 533.403 740.167 532.748 740.346 532.154C761.284 466.125 786.208 417.228 793.346 403.785C794.298 402.059 794.774 401.167 794.774 401.167L795.369 400.096L796.975 400.572L797.272 400.989C797.391 401.108 797.808 401.584 798.522 402.297L798.997 402.833C809.229 413.54 845.812 452.562 886.321 506.753L886.38 506.872C886.678 507.289 886.975 507.646 887.273 508.062L887.451 508.359C945.032 585.452 983.519 656.418 1001.6 719.056C1014.33 762.956 1018.26 819.11 1013.26 885.853L1013.2 886.685C1013.08 888.767 1012.9 890.79 1012.73 892.872V893.288C1003.45 1003.63 973.406 1106.6 967.458 1126.11L965.971 1130.75ZM963.71 1125.4C963.948 1125.58 964.186 1125.76 964.365 1125.94L964.543 1125.4C970.432 1105.95 1000.35 1003.45 1009.63 893.526V893.11C1009.81 890.671 1010.05 888.232 1010.17 885.853L1010.29 884.96C1015.16 818.872 1011.24 763.373 998.687 719.948C980.663 657.608 942.355 586.94 884.834 509.906L884.655 509.668C884.417 509.371 884.12 508.954 883.823 508.597L883.644 508.3C843.373 454.466 806.909 415.503 796.678 404.855L796.202 404.379C796.202 404.379 796.202 404.379 796.142 404.32C796.023 404.558 795.845 404.796 795.726 405.093C788.588 418.477 763.783 467.196 742.963 532.986C742.725 533.581 742.547 534.236 742.368 534.83C731.007 570.997 722.738 606.451 717.861 640.06L717.682 641.368C717.563 642.082 717.444 642.796 717.385 643.51L717.325 643.926C709.949 697.166 711.02 746.181 720.478 789.606C720.835 791.152 721.132 792.699 721.549 794.245C721.727 795.197 721.906 796.03 722.143 796.803C734.814 849.031 761.82 903.639 802.388 959.257C804.054 961.637 805.838 963.897 807.563 966.217L807.742 966.455C874.602 1055.68 954.312 1118.08 963.353 1124.98L963.71 1125.4Z" fill="#7F5E9A"/>
<path d="M966.744 1127.66L963.591 1128.97C962.639 1126.71 869.427 902.687 839.09 719.354C808.752 536.139 794.357 403.428 794.179 402.119L797.51 401.643C797.629 402.952 812.024 535.604 842.361 718.699C872.758 901.735 965.792 1125.46 966.744 1127.66Z" fill="#7F5E9A"/>
<path d="M828.027 629.53L824.874 628.4C826.48 624.414 864.967 531.023 883.704 506.693L886.381 508.597C867.941 532.57 828.384 628.578 828.027 629.53Z" fill="#7F5E9A"/>
<path d="M853.663 779.136L850.511 778.006C853.009 771.939 911.72 629.352 940.213 592.353L942.89 594.256C914.635 630.899 854.258 777.649 853.663 779.136Z" fill="#7F5E9A"/>
<path d="M853.367 777.411L852.058 778.542L850.809 779.612L850.749 779.672C849.798 778.542 758.786 676.525 715.838 643.867C715.838 643.808 715.838 643.867 715.838 643.867C716.016 642.558 716.195 641.309 716.433 640.06C754.265 668.137 830.822 752.428 849.381 773.069C850.273 774.021 850.987 774.854 851.582 775.508C852.534 776.46 853.129 777.174 853.367 777.411Z" fill="#7F5E9A"/>
<path d="M891.496 918.451L890.426 919.7L889.295 921.008C889.236 921.008 889.176 920.949 888.998 920.77C883.168 916.012 786.803 838.443 720.181 794.662C719.764 793.116 719.407 791.569 719.11 789.963C779.844 829.461 867.108 898.82 887.273 915C888.225 915.774 889.057 916.428 889.712 916.963C890.782 917.915 891.437 918.391 891.496 918.451Z" fill="#7F5E9A"/>
<path d="M936.646 1049.79L936.586 1049.91L935.634 1051.16L934.623 1052.53C934.563 1052.47 934.207 1052.23 933.671 1051.82C925.224 1045.93 864.788 1003.87 806.552 967.406C804.768 965.027 802.924 962.648 801.199 960.209C855.925 994.056 914.458 1034.45 931.649 1046.34C933.017 1047.29 934.088 1048.01 934.92 1048.6C935.753 1049.2 936.288 1049.56 936.526 1049.73C936.586 1049.79 936.646 1049.79 936.646 1049.79Z" fill="#7F5E9A"/>
<path d="M891.972 920.294L888.819 919.164C889.533 917.439 959.606 747.192 992.62 704.422L995.297 706.326C962.58 748.739 892.686 918.569 891.972 920.294Z" fill="#7F5E9A"/>
<path d="M1011.71 885.971C1011.6 888.35 1011.36 890.789 1011.18 893.228C982.626 941.53 938.131 1049.5 937.299 1051.64C937.299 1051.7 937.299 1051.7 937.299 1051.7L935.693 1051.16L934.086 1050.63C934.205 1050.33 934.503 1049.67 934.919 1048.6C935.098 1048.19 935.276 1047.65 935.514 1047.12C944.021 1026.65 985.719 927.254 1011.71 885.971Z" fill="#7F5E9A"/>
<path d="M825.826 628.104C825.171 627.33 755.812 549.464 740.346 533.82L742.844 531.5C758.37 547.204 824.576 621.679 825.231 622.452L825.826 628.104Z" fill="#7F5E9A"/>
<path d="M1244.36 516.926C1246.92 527.752 1248.88 539.173 1247.75 552.2C1247.69 553.093 1247.63 553.985 1247.51 554.877C1247.15 557.911 1246.62 561.064 1245.91 564.276C1236.09 607.641 1221.04 618.883 1203.37 659.274C1202.01 662.486 1200.82 665.579 1199.86 668.494C1199.51 669.565 1199.21 670.636 1198.91 671.647C1194.81 686.756 1196 699.129 1197.6 711.502C1197.72 712.335 1197.78 713.108 1197.9 713.881C1199.63 727.503 1201.41 741.185 1196.47 758.436C1185.59 796.447 1152.4 828.152 1138.18 850.757C1136.1 854.088 1134.67 857.359 1133.66 860.75C1133.36 861.821 1133.06 862.832 1132.83 863.903C1128.72 882.581 1135.68 903.52 1116.59 938.021C1092.97 980.791 1058.29 1012.44 1018.02 1054.49C977.749 1096.55 978.344 1144.32 978.344 1144.32C978.344 1144.32 976.678 1143.19 973.823 1141.1C973.407 1140.81 972.99 1140.51 972.514 1140.15C962.104 1132.36 939.619 1113.86 921.06 1087.51C901.192 1059.25 906.486 1010.36 912.018 980.256C912.256 979.007 912.435 977.876 912.673 976.687C913.862 970.441 914.993 965.147 915.885 961.28C920.822 938.973 895.422 882.165 903.809 840.763C904.999 834.874 906.724 829.044 908.806 823.215C909.222 822.085 909.639 821.014 910.055 819.943C919.394 795.911 934.682 773.188 944.616 755.759C945.151 754.866 945.627 753.974 946.103 753.082C949.434 747.074 951.992 741.78 953.301 737.437C959.487 716.499 941.82 664.033 951.278 629.948C953.241 622.75 956.453 615.85 960.439 609.128C960.974 608.236 961.51 607.343 962.104 606.392C976.976 582.36 1000.53 561.361 1009.39 543.397C1014.15 533.76 1015.11 518.532 1015.94 500.865C1015.94 500.865 1015.94 500.865 1015.94 500.805C1016.12 496.998 1016.29 493.072 1016.53 489.027C1017.66 466.185 1019.69 440.666 1029.32 418.418C1039.55 394.743 1063.64 374.697 1085.95 360.063C1086.72 359.588 1087.44 359.052 1088.21 358.576C1100.17 350.843 1111.41 344.716 1119.56 340.493C1120.33 340.076 1121.11 339.66 1121.88 339.303C1125.27 337.518 1127.95 336.15 1129.73 335.199C1143.29 327.822 1158.05 292.667 1180.06 274.999C1196.65 261.734 1233.29 254.596 1250.31 251.86C1251.44 251.681 1252.51 251.503 1253.46 251.384C1257.15 250.789 1259.35 250.551 1259.35 250.551C1259.35 250.551 1244.6 285.707 1239.42 313.367C1234.25 341.028 1256.08 357.862 1254.95 387.01C1254.71 392.84 1254.41 397.717 1253.94 402C1253.88 402.952 1253.76 403.844 1253.64 404.737C1251.79 420.024 1248.05 429.304 1239.78 457.916C1233.71 479.034 1239.3 496.106 1243.76 514.606C1244 515.32 1244.18 516.093 1244.36 516.926Z" fill="#C4D8F2"/>
<path d="M972.752 1141.28C972.514 1140.15 951.516 1026 1060.55 654.158C1115.87 465.59 1165.13 365.893 1196.65 315.449C1230.98 260.604 1252.03 250.67 1252.87 250.253L1253.82 252.335C1253.58 252.454 1232.28 262.626 1198.26 317.174C1166.85 367.499 1117.84 466.898 1062.75 654.753C953.955 1025.82 974.775 1139.68 975.013 1140.81L972.752 1141.28Z" fill="white"/>
<path d="M1108.56 513.237L1106.89 511.691C1107.43 511.096 1164.23 449.231 1257.62 399.977L1258.69 402C1165.72 451.016 1109.15 512.583 1108.56 513.237Z" fill="white"/>
<path d="M1109.57 509.668L1108.32 510.085L1107.37 510.382C1107.37 510.382 1107.37 510.322 1107.31 510.204C1106.12 506.456 1087.56 444.948 1085.89 360.003C1086.67 359.527 1087.38 358.992 1088.15 358.516C1089.46 435.133 1104.69 492.893 1108.61 506.575C1108.91 507.646 1109.15 508.478 1109.33 509.014C1109.51 509.43 1109.57 509.668 1109.57 509.668Z" fill="white"/>
<path d="M1133.54 447.923L1131.34 448.458C1131.34 448.458 1131.28 448.339 1131.28 448.101C1130.27 443.818 1120.75 401.524 1119.56 340.433C1120.33 340.016 1121.11 339.6 1121.88 339.243C1122.83 393.256 1130.33 432.813 1132.82 444.413C1133.24 446.614 1133.54 447.863 1133.54 447.923Z" fill="white"/>
<path d="M1062.87 652.969L1061.98 653.385L1060.79 653.98C1060.79 653.98 1060.73 653.861 1060.67 653.742C1058.77 649.757 1029.74 588.308 1015.94 500.746C1015.94 500.746 1015.94 500.746 1015.94 500.687C1016.12 496.879 1016.29 492.954 1016.53 488.909C1028.37 574.389 1055.61 637.265 1061.68 650.351C1061.92 650.827 1062.1 651.244 1062.28 651.541C1062.63 652.493 1062.87 652.909 1062.87 652.969Z" fill="white"/>
<path d="M1030.33 769.381L1028.43 770.63C1028.43 770.63 1028.43 770.63 1028.37 770.571C1026.76 768.013 986.255 704.007 960.498 609.069C961.033 608.176 961.569 607.284 962.163 606.332C985.719 694.43 1022.24 756.235 1029.2 767.537C1029.86 768.727 1030.27 769.322 1030.33 769.381Z" fill="white"/>
<path d="M1003.74 880.499L1001.9 881.689L1001.78 881.748C1001.36 881.154 969.957 832.078 944.616 755.699C945.151 754.807 945.627 753.915 946.103 753.022C968.767 821.906 996.546 868.9 1002.55 878.596C1003.33 879.785 1003.74 880.44 1003.74 880.499Z" fill="white"/>
<path d="M987.207 967.407L985.363 968.775C985.363 968.775 985.303 968.716 985.244 968.597C982.448 964.909 941.047 908.874 908.806 823.215C909.222 822.085 909.639 821.014 910.055 819.943C939.798 900.189 977.927 954.796 985.779 965.504C986.671 966.693 987.207 967.348 987.207 967.407Z" fill="white"/>
<path d="M974.418 1069.37L972.693 1070.85C972.693 1070.85 972.633 1070.79 972.514 1070.67C970.313 1068.12 942.177 1034.8 912.018 980.197C912.256 978.948 912.435 977.817 912.673 976.628C940.095 1026.71 966.09 1059.31 972.752 1067.4C973.823 1068.65 974.358 1069.31 974.418 1069.37Z" fill="white"/>
<path d="M1244.36 516.925C1131.58 579.504 1063.64 653.503 1062.93 654.276L1061.98 653.444L1061.21 652.73C1061.27 652.67 1061.56 652.313 1062.22 651.659C1062.69 651.124 1063.47 650.35 1064.36 649.399C1078.99 634.23 1143.95 569.867 1243.82 514.546C1244 515.319 1244.18 516.093 1244.36 516.925Z" fill="white"/>
<path d="M1049.37 701.925L1047.7 700.378C1048.42 699.545 1127.59 615.433 1249.65 551.13L1248.94 554.044C1137.29 612.637 1050.08 701.152 1049.37 701.925Z" fill="white"/>
<path d="M1199.86 668.494C1199.51 669.565 1199.21 670.635 1198.91 671.647C1088.69 733.69 1022.42 805.845 1021.77 806.619L1021.65 806.5L1020.04 805.072C1020.1 805.013 1020.99 804.001 1022.66 802.276C1036.1 788.357 1100.35 724.113 1199.86 668.494Z" fill="white"/>
<path d="M1197.9 713.822C1081.67 777.054 1011.36 853.612 1010.7 854.385L1010.41 854.088L1009.04 852.838C1009.1 852.779 1009.87 851.946 1011.24 850.518C1024.03 837.134 1092.02 768.727 1197.66 711.383C1197.72 712.275 1197.78 713.049 1197.9 713.822Z" fill="white"/>
<path d="M1133.66 860.691C1133.36 861.762 1133.06 862.773 1132.83 863.844C1041.34 920.712 987.029 979.483 985.542 981.149L983.817 979.602C983.876 979.542 984.709 978.65 986.196 977.103C997.617 965.206 1050.62 911.967 1133.66 860.691Z" fill="white"/>
<path d="M987.623 1404.8C987.623 1404.8 840.339 1180.36 946.34 938.974C1006.84 799.005 1129.14 766.526 1185.71 758.317C1270.89 745.944 1401.22 723.161 1415.55 730.061C1429.83 736.962 1354.52 869.911 1335.13 922.08C1314.31 978.174 1326.86 1032.07 1302.47 1092.86C1278.09 1153.66 1165.84 1227.83 1112.3 1268.28C1058.71 1308.67 987.623 1404.8 987.623 1404.8Z" fill="url(#paint0_linear)"/>
<path d="M991.014 1404.92L984.292 1404.68C984.411 1402.01 995.713 1135.93 1074.35 1005.66C1152.04 876.93 1256.55 823.75 1257.56 823.215L1260.6 829.223C1259.59 829.758 1156.74 882.165 1080.12 1009.11C1002.32 1137.95 991.133 1402.24 991.014 1404.92Z" fill="white"/>
<path d="M1013.74 1199.04L1009.28 1193.99C1011.89 1191.67 1074.29 1137.3 1145.14 1128.43L1145.97 1135.1C1077.21 1143.66 1014.39 1198.45 1013.74 1199.04Z" fill="white"/>
<path d="M1060.19 1045.09L1056.09 1039.74C1058.71 1037.78 1119.98 991.26 1185.71 990.963L1185.77 997.685C1122.24 998.042 1060.79 1044.62 1060.19 1045.09Z" fill="white"/>
<path d="M1265.59 900.963C1212.41 886.032 1151.21 916.31 1150.61 916.608L1147.58 910.599C1150.13 909.291 1211.76 878.834 1267.44 894.479L1265.59 900.963Z" fill="white"/>
<path d="M1009.45 1194.52C1007.31 1192.08 956.81 1133.85 948.839 1100.54L955.382 1098.99C962.996 1130.69 1014.03 1189.53 1014.57 1190.12L1009.45 1194.52Z" fill="white"/>
<path d="M1056.15 1040.57C1054.6 1037.9 1018.61 974.545 1017.78 929.753L1024.5 929.634C1025.28 972.761 1061.62 1036.59 1061.98 1037.24L1056.15 1040.57Z" fill="white"/>
<path d="M1151.98 911.61L1145.61 913.752C1145.44 913.216 1130.74 849.151 1144.42 815.898L1150.67 818.456C1138.65 847.544 1150.31 906.257 1151.98 911.61Z" fill="white"/>
<path d="M983.102 1444.3C983.102 1444.3 1095.23 1273.1 1014.27 1089.05C968.052 982.338 874.78 957.651 831.654 951.465C766.697 942.126 667.298 924.816 656.353 930.11C645.467 935.404 702.989 1036.71 717.801 1076.44C733.742 1119.21 724.165 1160.32 742.844 1206.66C761.462 1253 847.12 1309.51 887.986 1340.26C928.852 1371.07 983.102 1444.3 983.102 1444.3Z" fill="url(#paint1_linear)"/>
<path d="M980.544 1444.42L985.66 1444.24C985.6 1442.22 976.737 1239.31 916.717 1140.03C857.351 1041.94 777.642 1001.43 776.869 1001.08L774.608 1005.66C775.381 1006.07 853.842 1045.93 912.375 1142.71C971.681 1240.86 980.425 1442.4 980.544 1444.42Z" fill="white"/>
<path d="M963.055 1287.44L966.446 1283.57C964.423 1281.79 916.836 1240.38 862.764 1233.66L862.11 1238.78C914.575 1245.26 962.579 1287.02 963.055 1287.44Z" fill="white"/>
<path d="M927.483 1170.07L930.636 1166.03C928.673 1164.54 881.918 1129.15 831.772 1128.97V1134.08C880.193 1134.26 927.067 1169.72 927.483 1170.07Z" fill="white"/>
<path d="M770.741 1060.38C811.25 1048.96 857.945 1072.04 858.421 1072.28L860.741 1067.7C858.778 1066.69 811.785 1043.55 769.373 1055.51L770.741 1060.38Z" fill="white"/>
<path d="M966.267 1283.99C967.873 1282.08 1006.36 1237.71 1012.43 1212.25L1007.43 1211.06C1001.6 1235.27 962.757 1280.18 962.4 1280.6L966.267 1283.99Z" fill="white"/>
<path d="M930.577 1166.62C931.766 1164.6 959.129 1116.24 959.724 1082.1L954.609 1082.04C954.014 1114.93 926.413 1163.59 926.115 1164.12L930.577 1166.62Z" fill="white"/>
<path d="M857.41 1068.41L862.288 1070.08C862.407 1069.66 873.59 1020.82 863.121 995.425L858.362 997.388C867.523 1019.52 858.66 1064.31 857.41 1068.41Z" fill="white"/>
<path d="M887.629 19.2731C887.629 29.921 879.956 38.5463 870.438 38.5463C860.98 38.5463 853.247 29.921 853.247 19.2731C853.247 8.62529 860.921 0 870.438 0C879.956 0 887.629 8.62529 887.629 19.2731Z" fill="white"/>
<path d="M1177.38 195.408C1177.38 206.056 1169.7 214.682 1160.19 214.682C1150.73 214.682 1143 206.056 1143 195.408C1143 184.761 1150.67 176.135 1160.19 176.135C1169.7 176.135 1177.38 184.761 1177.38 195.408Z" fill="white"/>
<path d="M921.833 172.209C921.833 177.444 918.026 181.667 913.386 181.667C908.746 181.667 904.939 177.444 904.939 172.209C904.939 166.974 908.746 162.751 913.386 162.751C918.085 162.751 921.833 166.974 921.833 172.209Z" fill="white"/>
<path d="M609.836 749.453C609.836 759.804 602.341 768.132 593.18 768.132C584.019 768.132 576.524 759.744 576.524 749.453C576.524 739.103 584.019 730.715 593.18 730.715C602.341 730.715 609.836 739.103 609.836 749.453Z" fill="white"/>
<path d="M33.7872 185.177C33.7872 195.646 26.2327 204.153 16.8936 204.153C7.55453 204.153 0 195.646 0 185.177C0 174.708 7.55453 166.201 16.8936 166.201C26.2327 166.261 33.7872 174.708 33.7872 185.177Z" fill="white"/>
<path d="M604.244 856.051C604.244 860.156 601.27 863.487 597.641 863.487C594.012 863.487 591.038 860.156 591.038 856.051C591.038 851.947 594.012 848.616 597.641 848.616C601.27 848.675 604.244 851.947 604.244 856.051Z" fill="white"/>
<path d="M783.65 1175.25C783.65 1177.69 781.925 1179.65 779.724 1179.65C777.582 1179.65 775.798 1177.69 775.798 1175.25C775.798 1172.81 777.523 1170.85 779.724 1170.85C781.925 1170.91 783.65 1172.87 783.65 1175.25Z" fill="white"/>
<path d="M641.957 1229.5C641.957 1233.19 639.281 1236.16 636.009 1236.16C632.737 1236.16 630.061 1233.19 630.061 1229.5C630.061 1225.81 632.737 1222.84 636.009 1222.84C639.281 1222.84 641.957 1225.81 641.957 1229.5Z" fill="white"/>
<path d="M713.28 401.406C713.28 405.51 710.306 408.842 706.677 408.842C703.049 408.842 700.074 405.51 700.074 401.406C700.074 397.302 703.049 393.97 706.677 393.97C710.365 393.97 713.28 397.302 713.28 401.406Z" fill="white"/>
<path d="M1316.57 695.917C1316.57 706.981 1308.54 715.963 1298.67 715.963C1288.79 715.963 1280.76 706.981 1280.76 695.917C1280.76 684.852 1288.79 675.87 1298.67 675.87C1308.54 675.87 1316.57 684.852 1316.57 695.917Z" fill="#9BB7E1"/>
<path d="M1340.78 634.588C1340.78 640.12 1336.56 644.581 1331.38 644.581C1326.21 644.581 1321.98 640.12 1321.98 634.588C1321.98 629.056 1326.21 624.595 1331.38 624.595C1336.56 624.595 1340.78 629.056 1340.78 634.588Z" fill="#9BB7E1"/>
<path d="M1374.15 517.819C1374.15 521.388 1371.48 524.243 1368.14 524.243C1364.81 524.243 1362.14 521.388 1362.14 517.819C1362.14 514.249 1364.81 511.394 1368.14 511.394C1371.42 511.394 1374.15 514.249 1374.15 517.819Z" fill="#9BB7E1"/>
<path d="M1423.47 672.837C1423.47 678.369 1419.24 682.83 1414.07 682.83C1408.89 682.83 1404.67 678.369 1404.67 672.837C1404.67 667.305 1408.89 662.843 1414.07 662.843C1419.24 662.843 1423.47 667.305 1423.47 672.837Z" fill="#9BB7E1"/>
<defs>
<linearGradient id="paint0_linear" x1="1225.74" y1="775.541" x2="1027.83" y2="1244.83" gradientUnits="userSpaceOnUse">
<stop stop-color="#CADCF3"/>
<stop offset="1" stop-color="#9BB7E1"/>
</linearGradient>
<linearGradient id="paint1_linear" x1="814.034" y1="997.459" x2="969.778" y2="1360.68" gradientUnits="userSpaceOnUse">
<stop stop-color="#76C9DE"/>
<stop offset="1" stop-color="#5BC1D3"/>
</linearGradient>
</defs>
</svg>
