<svg width="1366" height="1652" viewBox="0 0 1366 1652" fill="none" xmlns="http://www.w3.org/2000/svg">
<path d="M475.699 1372.56L480.28 1369.41C479.506 1368.28 478.614 1367.03 477.722 1365.72C457.913 1337.29 411.456 1270.6 389.268 1114.4C377.133 1029.15 340.134 956.582 311.165 910.719C279.816 861.049 250.907 831.069 250.609 830.771L246.624 834.638C246.921 834.935 275.474 864.618 306.525 913.813C335.137 959.2 371.78 1030.94 383.736 1115.17C406.102 1272.69 453.095 1340.08 473.141 1368.87C474.093 1370.24 474.926 1371.43 475.699 1372.56Z" fill="#BAC1E3"/>
<path d="M217.833 808.524C233.537 828.451 253.464 839.04 253.464 839.04C253.464 839.04 247.813 817.268 232.109 797.281C216.405 777.353 196.478 766.765 196.478 766.765C196.478 766.765 202.07 788.537 217.833 808.524Z" fill="#BAC1E3"/>
<path d="M268.514 810.248C264.41 833.567 269.466 853.911 269.466 853.911C269.466 853.911 281.125 836.481 285.17 813.163C289.275 789.845 284.218 769.501 284.218 769.501C284.218 769.501 272.559 786.93 268.514 810.248Z" fill="#BAC1E3"/>
<path d="M300.101 844.215C293.32 869.615 296.889 892.635 296.889 892.635C296.889 892.635 311.463 874.492 318.244 849.092C325.025 823.692 321.456 800.671 321.456 800.671C321.456 800.671 306.942 818.874 300.101 844.215Z" fill="#BAC1E3"/>
<path d="M333.055 882.405C321.337 907.864 320.98 932.67 320.98 932.67C320.98 932.67 339.539 916.192 351.258 890.733C362.976 865.273 363.333 840.468 363.333 840.468C363.333 840.468 344.774 856.885 333.055 882.405Z" fill="#BAC1E3"/>
<path d="M368.746 928.862C352.447 955.214 348.699 982.398 348.699 982.398C348.699 982.398 371.304 966.873 387.602 940.461C403.901 914.11 407.649 886.925 407.649 886.925C407.649 886.925 385.045 902.51 368.746 928.862Z" fill="#BAC1E3"/>
<path d="M399.44 989.121C379.394 1016.19 372.791 1045.33 372.791 1045.33C372.791 1045.33 398.726 1030.52 418.832 1003.46C438.938 976.391 445.481 947.243 445.481 947.243C445.481 947.243 419.486 961.996 399.44 989.121Z" fill="#BAC1E3"/>
<path d="M418.296 1059.25C396.703 1085.19 388.494 1113.86 388.494 1113.86C388.494 1113.86 415.262 1100.6 436.796 1074.66C458.389 1048.73 466.598 1020.05 466.598 1020.05C466.598 1020.05 439.829 1033.38 418.296 1059.25Z" fill="#BAC1E3"/>
<path d="M434.357 1136.47C410.801 1160.56 400.272 1188.52 400.272 1188.52C400.272 1188.52 427.992 1177.39 451.548 1153.3C475.104 1129.21 485.632 1101.25 485.632 1101.25C485.632 1101.25 457.913 1112.37 434.357 1136.47Z" fill="#BAC1E3"/>
<path d="M457.913 1207.55C432.989 1231.52 421.33 1259.9 421.33 1259.9C421.33 1259.9 450.121 1249.37 475.045 1225.4C499.969 1201.42 511.628 1173.05 511.628 1173.05C511.628 1173.05 482.897 1183.58 457.913 1207.55Z" fill="#BAC1E3"/>
<path d="M358.395 1238.07C392.658 1242.71 418.831 1258.71 418.831 1258.71C418.831 1258.71 389.386 1267.21 355.123 1262.57C320.86 1257.93 294.687 1241.93 294.687 1241.93C294.687 1241.93 324.072 1233.43 358.395 1238.07Z" fill="#BAC1E3"/>
<path d="M340.847 1164.36C373.98 1170.73 398.547 1187.68 398.547 1187.68C398.547 1187.68 369.459 1194.34 336.327 1188.04C303.194 1181.67 278.626 1164.72 278.626 1164.72C278.626 1164.72 307.774 1158 340.847 1164.36Z" fill="#BAC1E3"/>
<path d="M326.333 1092.57C359.764 1097.15 385.164 1112.79 385.164 1112.79C385.164 1112.79 356.433 1121 323.062 1116.42C289.691 1111.84 264.231 1096.19 264.231 1096.19C264.231 1096.19 292.963 1087.99 326.333 1092.57Z" fill="#BAC1E3"/>
<path d="M309.737 1028.74C343.346 1031.47 369.638 1045.63 369.638 1045.63C369.638 1045.63 341.443 1055.45 307.834 1052.71C274.225 1049.97 247.933 1035.82 247.933 1035.82C247.933 1035.82 276.129 1026 309.737 1028.74Z" fill="#BAC1E3"/>
<path d="M288.145 972.584C319.136 972.882 344.12 984.124 344.12 984.124C344.12 984.124 318.898 994.951 287.907 994.713C256.915 994.415 231.932 983.173 231.932 983.173C231.932 983.173 257.153 972.287 288.145 972.584Z" fill="#BAC1E3"/>
<path d="M268.216 921.605C296.234 922.735 318.541 933.621 318.541 933.621C318.541 933.621 295.46 942.722 267.443 941.592C239.426 940.462 217.119 929.576 217.119 929.576C217.119 929.576 240.259 920.475 268.216 921.605Z" fill="#BAC1E3"/>
<path d="M249.598 881.868C275.89 882.642 296.888 892.635 296.888 892.635C296.888 892.635 275.295 901.38 249.063 900.606C222.771 899.833 201.772 889.84 201.772 889.84C201.772 889.84 223.306 881.095 249.598 881.868Z" fill="#BAC1E3"/>
<path d="M225.328 845.583C248.944 846.892 267.681 856.41 267.681 856.41C267.681 856.41 248.051 863.786 224.436 862.477C200.821 861.168 182.083 851.651 182.083 851.651C182.083 851.651 201.653 844.274 225.328 845.583Z" fill="#BAC1E3"/>
<path d="M496.578 1507.65L495.745 1506.34C495.745 1506.34 495.329 1505.69 494.555 1504.38L494.377 1504.26L494.318 1503.96C489.499 1495.93 452.202 1432.76 429.777 1354.72L429.717 1354.48C429.122 1352.46 428.528 1350.43 427.992 1348.35C414.549 1299.51 409.909 1254.72 414.132 1215.34C414.192 1214.75 414.251 1214.09 414.37 1213.44V1213.38C414.489 1212.19 414.608 1211 414.787 1209.87C419.01 1177.45 430.134 1143.36 447.86 1108.51L447.979 1108.27C448.276 1107.67 448.574 1107.14 448.871 1106.6L449.288 1105.77C460.649 1083.82 474.688 1061.51 490.986 1039.5C491.284 1039.09 491.581 1038.73 491.819 1038.37C521.502 998.4 549.757 971.155 557.728 963.779C558.739 962.827 559.275 962.351 559.275 962.351L559.929 961.757L560.881 962.53L561 962.887C561.059 963.006 561.238 963.422 561.535 964.077L561.714 964.552C565.878 974.546 580.63 1010.77 594.252 1058.42V1058.54C594.371 1058.9 594.43 1059.25 594.549 1059.55L594.609 1059.85C614.001 1127.66 622.328 1186.31 619.176 1234.02C616.975 1267.45 606.03 1307.07 586.697 1351.62L586.459 1352.16C585.864 1353.53 585.27 1354.89 584.675 1356.26L584.556 1356.5C551.839 1429.96 507.226 1492.96 498.6 1504.86L496.578 1507.65ZM496.4 1503.43C496.518 1503.61 496.637 1503.79 496.697 1503.96L496.935 1503.67C505.501 1491.83 549.936 1429.07 582.533 1355.91L582.652 1355.67C583.366 1354.06 584.08 1352.46 584.734 1350.85L585.032 1350.25C604.186 1306.12 614.952 1266.92 617.153 1233.84C620.306 1186.37 612.038 1127.96 592.646 1060.2L592.586 1059.97C592.527 1059.73 592.408 1059.37 592.289 1059.01L592.229 1058.78C578.607 1011.43 563.974 975.319 559.81 965.326L559.632 964.85C559.632 964.85 559.632 964.85 559.632 964.79C559.513 964.909 559.334 965.088 559.156 965.207C551.244 972.583 523.108 999.649 493.485 1039.56C493.187 1039.92 492.949 1040.34 492.652 1040.69C476.413 1062.64 462.434 1084.83 451.132 1106.72L450.715 1107.55C450.477 1108.03 450.24 1108.45 450.002 1108.92L449.883 1109.22C432.216 1143.9 421.092 1177.87 416.869 1210.17C416.69 1211.3 416.571 1212.49 416.452 1213.62C416.333 1214.33 416.274 1214.93 416.214 1215.52C411.991 1254.66 416.631 1299.16 430.015 1347.76C430.55 1349.84 431.145 1351.86 431.74 1353.88L431.799 1354.12C454.403 1432.58 491.998 1495.99 496.281 1503.07L496.4 1503.43Z" fill="#7F5E9A"/>
<path d="M497.827 1505.75L495.448 1505.87C495.388 1504.08 487.834 1326.16 511.984 1192.38C536.135 1058.66 558.62 963.779 558.799 962.827L561.118 963.362C560.88 964.314 538.395 1059.13 514.304 1192.8C490.272 1326.34 497.767 1503.96 497.827 1505.75Z" fill="#7F5E9A"/>
<path d="M526.38 1127.78L524.595 1126.17C526.618 1123.85 574.503 1069.54 592.705 1057.65L594.014 1059.67C576.05 1071.39 526.856 1127.19 526.38 1127.78Z" fill="#7F5E9A"/>
<path d="M507.226 1237.11L505.442 1235.51C508.535 1232 581.642 1149.08 609.362 1130.99L610.67 1133.01C583.188 1150.92 508 1236.28 507.226 1237.11Z" fill="#7F5E9A"/>
<path d="M507.464 1235.92L506.334 1236.34L505.263 1236.76H505.204C504.847 1235.75 469.394 1142.23 448.931 1108.74C449.348 1107.91 449.823 1107.08 450.24 1106.25C468.442 1135.28 498.601 1212.84 505.917 1231.82C506.274 1232.71 506.512 1233.43 506.75 1234.08C507.107 1235.03 507.345 1235.63 507.464 1235.92Z" fill="#7F5E9A"/>
<path d="M498.66 1342.64L497.649 1343.24L496.578 1343.83C496.578 1343.83 496.518 1343.71 496.459 1343.59C493.723 1338.83 448.871 1260.73 415.441 1213.56C415.56 1212.37 415.679 1211.24 415.857 1210.05C446.432 1252.76 487.239 1322.89 496.697 1339.19C497.173 1339.96 497.53 1340.68 497.827 1341.15C498.303 1342.05 498.6 1342.58 498.66 1342.64Z" fill="#7F5E9A"/>
<path d="M496.756 1444.48L496.697 1444.54L495.745 1445.13L494.734 1445.79C494.734 1445.73 494.555 1445.49 494.258 1445.07C490.094 1438.89 460.352 1394.45 430.729 1354.42C430.134 1352.34 429.479 1350.19 428.944 1348.05C456.902 1385.41 485.811 1428.18 494.258 1440.79C494.912 1441.8 495.448 1442.58 495.864 1443.17C496.281 1443.76 496.578 1444.18 496.637 1444.36C496.756 1444.48 496.756 1444.48 496.756 1444.48Z" fill="#7F5E9A"/>
<path d="M498.481 1344.01L496.697 1342.4C497.589 1341.39 584.853 1242.41 616.915 1221.47L618.224 1223.49C586.399 1244.25 499.373 1343 498.481 1344.01Z" fill="#7F5E9A"/>
<path d="M585.746 1351.15C585.091 1352.75 584.318 1354.36 583.604 1356.02C553.148 1381.9 497.768 1444.66 496.697 1445.91L495.805 1445.13L494.913 1444.36C495.091 1444.18 495.389 1443.76 495.983 1443.17C496.221 1442.93 496.459 1442.63 496.757 1442.28C507.226 1430.44 558.68 1372.86 585.746 1351.15Z" fill="#7F5E9A"/>
<path d="M525.25 1126.23C525.012 1125.52 498.006 1054.2 491.582 1039.44L493.782 1038.49C500.266 1053.3 525.964 1121.47 526.202 1122.19L525.25 1126.23Z" fill="#7F5E9A"/>
<path d="M544.998 1616.69C544.998 1616.69 438.045 1482.02 491.64 1321.82C522.156 1228.97 598.296 1201.19 633.928 1192.68C687.583 1179.89 769.433 1157.76 778.951 1161.33C788.469 1164.9 748.138 1254.13 738.799 1288.51C728.746 1325.51 739.87 1359.18 727.854 1399.39C715.838 1439.6 648.501 1493.44 616.677 1522.35C584.793 1551.26 544.998 1616.69 544.998 1616.69Z" fill="url(#paint0_linear)"/>
<path d="M547.14 1616.57L542.857 1616.81C542.797 1615.08 534.588 1444.66 577.179 1356.98C619.294 1270.37 682.883 1230.33 683.538 1229.98L685.798 1233.66C685.144 1234.02 622.626 1273.46 581.046 1358.88C538.931 1445.55 547.08 1614.91 547.14 1616.57Z" fill="white"/>
<path d="M549.756 1483.86L546.604 1480.89C548.15 1479.28 584.793 1440.91 629.525 1431.16L630.417 1435.38C587.053 1444.9 550.113 1483.5 549.756 1483.86Z" fill="white"/>
<path d="M570.457 1382.97L567.542 1379.82C569.089 1378.39 605.494 1345.2 647.43 1341.21L647.847 1345.5C607.338 1349.3 570.814 1382.62 570.457 1382.97Z" fill="white"/>
<path d="M693.174 1279.11C658.376 1272.69 621.079 1295.53 620.722 1295.77L618.461 1292.08C620.008 1291.07 657.543 1268.11 694.007 1274.83L693.174 1279.11Z" fill="white"/>
<path d="M546.783 1481.24C545.296 1479.81 509.664 1445.55 502.645 1424.79L506.75 1423.42C513.471 1443.23 549.4 1477.79 549.817 1478.15L546.783 1481.24Z" fill="white"/>
<path d="M567.602 1380.3C566.472 1378.69 539.823 1340.32 536.729 1311.77L541.012 1311.29C544.046 1338.77 570.874 1377.38 571.171 1377.8L567.602 1380.3Z" fill="white"/>
<path d="M621.316 1292.5L617.391 1294.22C617.212 1293.86 604.126 1253.89 610.966 1231.82L615.071 1233.07C609.122 1252.34 619.948 1289.16 621.316 1292.5Z" fill="white"/>
<path d="M532.209 1651.49C532.209 1651.49 626.968 1473.51 531.138 1300.11C476.234 1199.52 382.545 1183.64 339.657 1181.38C275.116 1177.99 175.955 1169.9 165.783 1176.02C155.552 1182.15 221.045 1276.43 239.128 1314.15C258.579 1354.72 252.869 1395.88 275.295 1439.66C297.72 1483.5 386.828 1531.27 429.657 1557.86C472.427 1584.45 532.209 1651.49 532.209 1651.49Z" fill="#C4D8F2"/>
<path d="M529.71 1651.85L534.707 1651.19C534.469 1649.23 507.701 1450.9 439.948 1358.88C372.968 1267.93 291.177 1235.27 290.344 1234.97L288.5 1239.67C289.333 1239.97 369.816 1272.15 435.844 1361.85C502.883 1452.87 529.413 1649.88 529.71 1651.85Z" fill="white"/>
<path d="M498.54 1499.39L501.514 1495.28C499.373 1493.73 448.989 1457.33 395.334 1455.54L395.156 1460.6C447.264 1462.33 498.005 1498.97 498.54 1499.39Z" fill="white"/>
<path d="M453.212 1387.37L455.889 1383.09C453.807 1381.78 404.792 1351.21 355.598 1355.49L356.014 1360.55C403.602 1356.44 452.736 1387.08 453.212 1387.37Z" fill="white"/>
<path d="M289.63 1293.68C328.354 1278.87 376.24 1297.31 376.775 1297.49L378.619 1292.79C376.597 1291.96 328.414 1273.46 287.845 1288.93L289.63 1293.68Z" fill="white"/>
<path d="M501.395 1495.7C502.823 1493.73 536.61 1446.68 540.298 1421.22L535.301 1420.51C531.792 1444.78 497.647 1492.31 497.291 1492.78L501.395 1495.7Z" fill="white"/>
<path d="M455.949 1383.74C456.901 1381.66 479.505 1331.75 477.006 1298.2L471.95 1298.56C474.33 1330.86 451.547 1381.13 451.309 1381.66L455.949 1383.74Z" fill="white"/>
<path d="M375.407 1293.8L380.344 1294.99C380.463 1294.58 387.066 1245.62 374.515 1221.71L370.053 1224.03C380.939 1244.97 376.24 1289.7 375.407 1293.8Z" fill="white"/>
<path d="M1365.41 371.009C1365.41 376.244 1361.6 380.468 1356.96 380.468C1352.32 380.468 1348.52 376.244 1348.52 371.009C1348.52 365.775 1352.32 361.551 1356.96 361.551C1361.66 361.551 1365.41 365.775 1365.41 371.009Z" fill="white"/>
<path d="M1053.41 948.254C1053.41 958.604 1045.92 966.932 1036.76 966.932C1027.6 966.932 1020.1 958.545 1020.1 948.254C1020.1 937.903 1027.6 929.516 1036.76 929.516C1045.92 929.516 1053.41 937.903 1053.41 948.254Z" fill="white"/>
<path d="M477.364 383.978C477.364 394.447 469.81 402.953 460.471 402.953C451.132 402.953 443.577 394.447 443.577 383.978C443.577 373.508 451.132 365.002 460.471 365.002C469.81 365.061 477.364 373.508 477.364 383.978Z" fill="white"/>
<path d="M517.991 306.646C517.991 312.476 513.768 317.235 508.533 317.235C503.299 317.235 499.075 312.476 499.075 306.646C499.075 300.817 503.299 296.058 508.533 296.058C513.768 296.058 517.991 300.757 517.991 306.646Z" fill="white"/>
<path d="M601.271 616.327C601.271 620.848 597.999 624.476 593.954 624.476C589.909 624.476 586.638 620.788 586.638 616.327C586.638 611.806 589.909 608.177 593.954 608.177C598.059 608.118 601.271 611.806 601.271 616.327Z" fill="white"/>
<path d="M345.903 650.887C345.903 655.408 342.631 659.037 338.586 659.037C334.541 659.037 331.27 655.349 331.27 650.887C331.27 646.367 334.541 642.738 338.586 642.738C342.631 642.738 345.903 646.367 345.903 650.887Z" fill="white"/>
<path d="M260.543 941.71C260.543 946.231 257.272 949.86 253.227 949.86C249.182 949.86 245.91 946.172 245.91 941.71C245.91 937.19 249.182 933.561 253.227 933.561C257.272 933.502 260.543 937.19 260.543 941.71Z" fill="white"/>
<path d="M610.669 771.048C614.316 771.048 617.272 767.719 617.272 763.612C617.272 759.506 614.316 756.177 610.669 756.177C607.023 756.177 604.066 759.506 604.066 763.612C604.066 767.719 607.023 771.048 610.669 771.048Z" fill="white"/>
<path d="M432.513 996.258C432.513 1000.36 429.538 1003.69 425.91 1003.69C422.281 1003.69 419.307 1000.36 419.307 996.258C419.307 992.154 422.281 988.823 425.91 988.823C429.538 988.823 432.513 992.154 432.513 996.258Z" fill="white"/>
<path d="M1047.82 1054.85C1047.82 1058.96 1044.85 1062.29 1041.22 1062.29C1037.59 1062.29 1034.62 1058.96 1034.62 1054.85C1034.62 1050.75 1037.59 1047.42 1041.22 1047.42C1044.85 1047.48 1047.82 1050.75 1047.82 1054.85Z" fill="white"/>
<path d="M1227.23 1374.05C1227.23 1376.49 1225.5 1378.45 1223.3 1378.45C1221.16 1378.45 1219.38 1376.49 1219.38 1374.05C1219.38 1371.61 1221.1 1369.65 1223.3 1369.65C1225.5 1369.71 1227.23 1371.67 1227.23 1374.05Z" fill="white"/>
<path d="M1085.53 1428.3C1085.53 1431.99 1082.86 1434.96 1079.59 1434.96C1076.31 1434.96 1073.64 1431.99 1073.64 1428.3C1073.64 1424.61 1076.31 1421.64 1079.59 1421.64C1082.86 1421.64 1085.53 1424.61 1085.53 1428.3Z" fill="white"/>
<path d="M1156.86 600.206C1156.86 604.311 1153.88 607.642 1150.25 607.642C1146.63 607.642 1143.65 604.311 1143.65 600.206C1143.65 596.102 1146.63 592.771 1150.25 592.771C1153.94 592.771 1156.86 596.102 1156.86 600.206Z" fill="white"/>
<path d="M609.241 7.43561C609.241 11.5401 606.267 14.8712 602.638 14.8712C599.01 14.8712 596.036 11.5401 596.036 7.43561C596.036 3.33115 599.01 0 602.638 0C606.267 0 609.241 3.33115 609.241 7.43561Z" fill="white"/>
<path d="M146.213 888.709C146.213 895.431 141.335 900.904 135.327 900.904C129.319 900.904 124.441 895.431 124.441 888.709C124.441 881.987 129.319 876.515 135.327 876.515C141.335 876.515 146.213 881.987 146.213 888.709Z" fill="white"/>
<path d="M110.166 1063.71C110.166 1077.4 100.232 1088.52 88.0375 1088.52C75.8431 1088.52 65.9092 1077.4 65.9092 1063.71C65.9092 1050.03 75.8431 1038.91 88.0375 1038.91C100.232 1038.85 110.166 1049.97 110.166 1063.71Z" fill="#9BB7E1"/>
<path d="M34.9766 1115.05C34.9766 1121.89 29.7419 1127.42 23.3176 1127.42C16.8933 1127.42 11.6587 1121.89 11.6587 1115.05C11.6587 1108.21 16.8933 1102.68 23.3176 1102.68C29.7419 1102.62 34.9766 1108.21 34.9766 1115.05Z" fill="#9BB7E1"/>
<path d="M11.659 987.99C18.0981 987.99 23.318 982.45 23.318 975.617C23.318 968.783 18.0981 963.244 11.659 963.244C5.21995 963.244 0 968.783 0 975.617C0 982.45 5.21995 987.99 11.659 987.99Z" fill="#9BB7E1"/>
<path d="M139.314 719.058C139.314 721.497 137.529 723.519 135.328 723.519C133.127 723.519 131.343 721.556 131.343 719.058C131.343 716.559 133.127 714.596 135.328 714.596C137.529 714.656 139.314 716.619 139.314 719.058Z" fill="white"/>
<path d="M398.606 901.558C398.606 903.997 396.821 906.02 394.62 906.02C392.419 906.02 390.635 904.057 390.635 901.558C390.635 899.06 392.419 897.097 394.62 897.097C396.881 897.097 398.606 899.119 398.606 901.558Z" fill="white"/>
<path d="M324.013 849.568C324.013 852.007 322.229 854.029 320.028 854.029C317.827 854.029 316.042 852.066 316.042 849.568C316.042 847.07 317.827 845.107 320.028 845.107C322.229 845.107 324.013 847.129 324.013 849.568Z" fill="white"/>
<defs>
<linearGradient id="paint0_linear" x1="683.636" y1="1201.22" x2="555.154" y2="1476.49" gradientUnits="userSpaceOnUse">
<stop stop-color="#CADCF3"/>
<stop offset="1" stop-color="#9BB7E1"/>
</linearGradient>
</defs>
</svg>
